<?xml version="1.0" encoding="UTF-8"?>
<svg id="Layer_2" data-name="Layer 2" xmlns="http://www.w3.org/2000/svg" viewBox="0 0 157.99 156.13">
  <defs>
    <style>
      .cls-1 {
        fill: #fab773;
      }

      .cls-2 {
        fill: #fff;
      }

      .cls-3 {
        fill: #211a15;
      }

      .cls-4 {
        fill: #966b63;
      }

      .cls-5 {
        fill: #629da3;
      }
    </style>
  </defs>
  <g id="Layer_1-2" data-name="Layer 1">
    <g>
      <path class="cls-4" d="M143.75,83.48c9.02,15.67,23.24,59.88,6.42,70.75-4.06,2.62-11.49,3.07-17.68-2.2-13.13-11.2-17.23-51.42-19.74-67.89-2.65-17.35,21-18.06,31.01-.66"/>
      <path class="cls-4" d="M14.24,83.48c-9.02,15.67-23.24,59.88-6.42,70.75,4.06,2.62,11.49,3.07,17.68-2.2,13.13-11.2,17.23-51.42,19.74-67.89,2.65-17.35-21-18.06-31.01-.66"/>
      <path class="cls-1" d="M45.87,60.1H112.12l19.06,87.98-104.36,.14L45.87,60.1"/>
      <path class="cls-5" d="M48.02,60.05v45.55h8.84V60.05h-8.84"/>
      <path class="cls-5" d="M101.02,60.05v45.55h8.84V60.05h-8.84"/>
      <path class="cls-5" d="M112.55,105.59H45.45l-18.63,45.49,104.36-.14-18.63-45.35"/>
      <path class="cls-1" d="M112.12,60.1c9.35,0,26.36,6.15,36.58,33.2l-34.8,5.38-1.78-38.58"/>
      <path class="cls-3" d="M145.47,85.75l-25.55,4.05,.05,.31,25.55-4.05"/>
      <path class="cls-4" d="M121.46,91.58s-10.85-14.59-14.97-14.32c-2.46,.17,.45,9.9,.45,9.9l14.52,4.43"/>
      <path class="cls-5" d="M78.99,72.01c10.09,0,18.4-5.21,19.5-11.91H59.5c1.1,6.7,9.41,11.91,19.49,11.91"/>
      <path class="cls-4" d="M65.97,34.24v25.86h26.07v-12.15l-26.07-13.71"/>
      <path class="cls-4" d="M92.04,60.1c0,3.65-5.84,6.6-13.05,6.6s-13.04-2.96-13.04-6.6,5.84-6.6,13.04-6.6,13.05,2.95,13.05,6.6"/>
      <path class="cls-1" d="M45.87,60.1c-9.35,0-26.36,6.15-36.58,33.2l34.8,5.38,1.78-38.58"/>
      <path class="cls-4" d="M36.53,91.58s10.85-14.59,14.97-14.32c2.46,.17-.45,9.9-.45,9.9l-14.52,4.43"/>
      <path class="cls-2" d="M108.76,112.22H51.41c-1.81,0-3.28-1.47-3.28-3.29v-34.7c0-1.82,1.47-3.3,3.28-3.3h57.35c1.81,0,3.29,1.47,3.29,3.3v34.7c0,1.82-1.47,3.29-3.29,3.29"/>
      <path class="cls-4" d="M5.02,138.05s6.3,24.59,20.02,14.35c10.01-7.47,27.96-41.82,27.96-41.82,0,0,9.19-.29,5.99-4.93,0,0,7.76-3.07-.09-6.1,0,0,9.97,.41,4.47-5.15,0,0,6.31-.08,1.89-5.38-2.29-2.74-13.77-8.83-20.02-5.16-14.53,8.54-40.22,54.19-40.22,54.19"/>
      <path class="cls-3" d="M63.43,94.24l-12.71-5.83-.13,.29,12.71,5.83"/>
      <path class="cls-3" d="M58.96,99.4l-11.02-4.23-.11,.29,11.02,4.23"/>
      <path class="cls-3" d="M59.05,105.49l-11.1-3.95-.11,.3,11.11,3.95"/>
      <path class="cls-3" d="M62.22,87.93v.16c.21,0,.51,.09,.81,.26,.46,.24,.95,.65,1.32,1.07,.38,.43,.61,.9,.61,1.23,0,.17-.05,.31-.18,.43-.13,.12-.34,.22-.68,.28-.1,.02-.22,.03-.35,.03-.52,0-1.17-.15-1.74-.39-.28-.12-.54-.26-.74-.41-.21-.16-.35-.32-.43-.47-.05-.09-.07-.21-.07-.34,0-.34,.17-.78,.44-1.12,.28-.34,.64-.57,1.01-.57v-.32c-.5,0-.94,.3-1.25,.69-.31,.39-.51,.88-.51,1.32,0,.17,.03,.33,.1,.48,.11,.22,.29,.41,.53,.58,.69,.51,1.82,.86,2.67,.86,.14,0,.28-.01,.4-.03,.38-.06,.66-.19,.85-.36,.19-.18,.28-.42,.28-.66,0-.31-.13-.64-.33-.96-.3-.48-.77-.95-1.27-1.3-.5-.35-1.02-.6-1.46-.61v.16"/>
      <path class="cls-3" d="M59.71,93.6l.03,.16s.09-.01,.15-.01c.25,0,.57,.08,.92,.21,.51,.2,1.06,.53,1.47,.89,.2,.18,.38,.36,.49,.54,.12,.18,.18,.34,.17,.47,0,.13-.04,.22-.15,.33s-.3,.2-.59,.28c-.25,.07-.55,.1-.86,.1-.52,0-1.08-.09-1.55-.26-.46-.16-.83-.41-.97-.66-.07-.11-.1-.24-.1-.39,0-.31,.14-.68,.35-.97,.2-.3,.47-.51,.67-.53l-.03-.16-.02-.16c-.34,.05-.64,.32-.88,.66-.23,.34-.4,.76-.4,1.16,0,.19,.04,.38,.14,.55,.21,.36,.64,.62,1.14,.8,.5,.18,1.09,.28,1.65,.28,.33,0,.66-.04,.94-.11,.32-.09,.56-.2,.72-.36,.16-.16,.24-.35,.24-.56,0-.29-.16-.58-.38-.85-.34-.41-.86-.79-1.41-1.08s-1.11-.48-1.58-.49c-.07,0-.13,0-.19,.02l.02,.16"/>
      <path class="cls-3" d="M56.68,98.69l-.05,.15c.53,.16,1.46,.56,2.21,.85,.56,.22,.98,.46,1.26,.69,.14,.11,.23,.23,.3,.33,.06,.1,.09,.19,.09,.27,0,.1-.04,.19-.13,.29-.09,.1-.24,.2-.46,.28-.28,.11-.7,.17-1.17,.16-.57,0-1.2-.08-1.74-.22-.27-.07-.51-.16-.7-.25-.19-.1-.34-.21-.41-.31-.13-.17-.19-.38-.19-.61,0-.35,.14-.74,.32-1.03,.09-.15,.2-.27,.3-.34,.1-.08,.2-.11,.26-.11h.06s.09-.3,.09-.3c-.05-.02-.1-.02-.15-.02-.17,0-.32,.07-.46,.18-.2,.16-.39,.41-.52,.7-.14,.28-.22,.61-.22,.93,0,.29,.07,.57,.25,.8,.12,.16,.3,.29,.52,.4,.66,.32,1.69,.51,2.58,.51,.49,0,.94-.05,1.28-.18,.24-.09,.44-.21,.58-.35,.14-.14,.21-.32,.21-.51,0-.15-.05-.3-.14-.44-.26-.42-.83-.81-1.71-1.15-.74-.29-1.67-.69-2.23-.86l-.05,.15"/>
      <path class="cls-3" d="M54.77,104.15l-.05,.15c.96,.34,1.73,.68,2.25,.99,.26,.16,.45,.31,.58,.45s.17,.26,.17,.35c0,.06-.02,.12-.06,.19-.05,.07-.13,.15-.25,.23-.29,.2-.83,.34-1.41,.33-.73,0-1.51-.2-1.97-.66-.17-.17-.24-.38-.24-.61,0-.3,.13-.64,.32-.89,.09-.13,.19-.23,.29-.3s.19-.1,.26-.1h.07s.1-.29,.1-.29c-.06-.02-.11-.03-.18-.03-.16,0-.3,.06-.44,.16-.2,.14-.39,.35-.52,.6-.14,.26-.23,.54-.23,.84s.1,.6,.34,.83c.56,.55,1.41,.76,2.19,.76,.63,0,1.21-.14,1.59-.39,.14-.09,.26-.2,.33-.31,.07-.11,.12-.24,.12-.37,0-.2-.1-.39-.26-.56-.23-.26-.61-.51-1.1-.76-.5-.26-1.13-.51-1.85-.77l-.05,.15"/>
      <path class="cls-4" d="M85.69,1.49C95.92,0,107.69,6.58,107.32,23.5c-.1,4.57-.2,13.72-.54,18.29-.49,6.65-2.59,14.73-18.75,14.73l-22.06-22.28s-1.26-29.71,19.72-32.75"/>
      <path class="cls-3" d="M73.94,32.65l3.63-.05,2.48-15.66h26.76S104.21-4.28,78.97,.78c-10.13,2.03-29.21,17.1-12.99,43.87v-7.42s2.51-6.79,2.51-6.79l5.45,2.2"/>
      <path class="cls-3" d="M94.78,32.6l-.1,8.49c0,.09,.07,.16,.16,.16s.16-.07,.16-.16l.1-8.49c0-.09-.07-.16-.16-.16-.09,0-.16,.07-.16,.16"/>
      <path class="cls-3" d="M85.06,34.39c-.08,.93,.36,1.78,.98,1.88s1.2-.57,1.28-1.5c.08-.93-.36-1.78-.98-1.88s-1.2,.57-1.28,1.5"/>
      <path class="cls-3" d="M97.37,34.74c-.08,.93,.36,1.77,.98,1.88s1.19-.56,1.28-1.5c.08-.93-.36-1.77-.98-1.88-.63-.1-1.2,.56-1.28,1.5"/>
      <path class="cls-4" d="M73.94,32.65s-1.06-9.04-7.96-6.11c-3.02,1.28-5,7.11-.01,10.7l7.97-4.58"/>
      <path class="cls-3" d="M72.23,33.59l-6.13-7.17c-.06-.06-.16-.07-.22-.02-.07,.06-.08,.16-.02,.22l6.13,7.17c.06,.06,.16,.07,.22,.02,.06-.06,.07-.16,.02-.22"/>
      <path class="cls-3" d="M92.03,56.22l-6.98,.14c-.09,0-.16,.08-.16,.16,0,.09,.07,.16,.16,.16l6.98-.14c.09,0,.16-.07,.16-.16,0-.09-.08-.16-.16-.16"/>
      <path class="cls-3" d="M87.25,44.06s.05,.64,.44,1.27c.19,.31,.48,.64,.89,.88s.94,.39,1.63,.39c.32,0,.67-.03,1.06-.11,.08-.02,.14-.1,.13-.18-.02-.09-.1-.15-.19-.13-.37,.07-.7,.1-1,.1-.64,0-1.1-.15-1.46-.35-.54-.31-.83-.78-.99-1.18-.08-.2-.13-.38-.15-.51-.02-.07-.03-.12-.03-.15v-.04s0-.01,0-.01c-.01-.09-.08-.15-.17-.15s-.15,.08-.15,.17"/>
      <path class="cls-3" d="M84.49,91.58h-.16c0,1.18-.47,2.24-1.24,3.01-.77,.77-1.83,1.24-3,1.24s-2.23-.47-3.01-1.24c-.77-.77-1.24-1.83-1.24-3.01s.48-2.24,1.24-3.02c.77-.77,1.83-1.24,3.01-1.24s2.23,.47,3,1.24c.77,.78,1.24,1.84,1.24,3.02h.32c0-2.53-2.04-4.58-4.56-4.58s-4.56,2.05-4.56,4.58,2.04,4.57,4.56,4.57,4.56-2.05,4.56-4.57h-.16"/>
      <path class="cls-3" d="M14.74,122.13c4.99-7.95,11.33-17.49,17.49-25.21l-.25-.2c-6.17,7.73-12.51,17.28-17.51,25.24l.27,.17"/>
      <path class="cls-3" d="M12.47,86.07l25.55,4.05,.05-.31-25.55-4.05"/>
      <path class="cls-4" d="M152.97,138.05s-6.3,24.59-20.02,14.35c-10.01-7.47-27.96-41.82-27.96-41.82,0,0-9.19-.29-5.99-4.93,0,0-7.76-3.07,.09-6.1,0,0-9.97,.41-4.47-5.15,0,0-6.31-.08-1.89-5.38,2.29-2.74,13.77-8.83,20.02-5.16,14.53,8.54,40.22,54.19,40.22,54.19"/>
      <path class="cls-3" d="M94.69,94.53l12.71-5.83-.13-.29-12.71,5.83"/>
      <path class="cls-3" d="M99.14,99.69l11.02-4.23-.11-.29-11.02,4.23"/>
      <path class="cls-3" d="M99.05,105.8l11.11-3.95-.11-.3-11.1,3.95"/>
      <path class="cls-3" d="M95.77,87.93v-.16c-.3,0-.63,.11-.96,.29-.51,.27-1.02,.69-1.42,1.15-.4,.46-.68,.96-.69,1.44,0,.24,.09,.48,.28,.66,.19,.18,.47,.3,.85,.36,.13,.02,.26,.03,.4,.03,.57,0,1.26-.16,1.86-.41,.3-.13,.58-.28,.81-.45,.23-.18,.42-.36,.53-.58,.07-.15,.1-.31,.1-.48,0-.44-.2-.93-.51-1.32-.31-.39-.75-.68-1.25-.69v.32c.36,0,.73,.23,1.01,.57,.27,.34,.44,.78,.44,1.12,0,.14-.02,.25-.07,.34-.07,.15-.22,.31-.43,.47-.61,.46-1.71,.8-2.48,.8-.13,0-.24,0-.35-.03-.34-.06-.55-.16-.68-.28-.13-.13-.18-.26-.18-.43,0-.22,.1-.51,.29-.79,.27-.44,.71-.89,1.18-1.22,.46-.33,.95-.55,1.28-.55v-.16"/>
      <path class="cls-3" d="M98.28,93.6l.02-.16c-.06-.01-.13-.02-.19-.02-.31,0-.67,.09-1.03,.23-.55,.21-1.11,.56-1.56,.94-.22,.2-.41,.4-.55,.6-.14,.21-.22,.43-.22,.65,0,.2,.08,.4,.24,.56,.17,.16,.4,.27,.72,.36,.29,.08,.61,.11,.94,.11,.56,0,1.15-.1,1.65-.28,.51-.18,.93-.44,1.14-.8,.1-.17,.14-.35,.14-.55,0-.4-.17-.82-.4-1.16-.24-.34-.54-.6-.88-.66l-.02,.16-.03,.16c.19,.02,.46,.23,.67,.53,.2,.29,.35,.66,.35,.97,0,.15-.03,.28-.1,.39-.14,.25-.51,.49-.97,.66-.46,.17-1.03,.26-1.55,.26-.31,0-.61-.04-.86-.1-.29-.08-.48-.18-.59-.28s-.15-.2-.15-.33c0-.17,.1-.41,.31-.65,.3-.36,.79-.73,1.31-1.01,.52-.28,1.06-.45,1.43-.45,.05,0,.1,0,.15,.01l.03-.16"/>
      <path class="cls-3" d="M101.31,98.69l-.05-.15c-.56,.17-1.49,.57-2.23,.86-.58,.22-1.03,.48-1.34,.74-.16,.14-.28,.27-.36,.41-.09,.14-.14,.29-.14,.44,0,.19,.08,.36,.21,.51,.14,.15,.33,.26,.58,.35,.34,.13,.79,.18,1.28,.18,.6,0,1.26-.08,1.82-.23,.29-.07,.54-.17,.77-.28,.22-.11,.4-.23,.52-.4,.18-.23,.25-.52,.25-.8,0-.43-.15-.86-.37-1.2-.11-.17-.23-.31-.37-.42-.14-.11-.29-.18-.46-.18-.05,0-.09,0-.15,.02l.09,.3h.05c.07,0,.16,.03,.27,.11,.15,.12,.32,.33,.43,.58,.11,.24,.19,.53,.19,.79,0,.23-.06,.44-.19,.61-.07,.1-.22,.21-.41,.31-.58,.29-1.59,.47-2.44,.47-.47,0-.89-.05-1.17-.16-.22-.08-.37-.18-.46-.28s-.13-.19-.13-.29c0-.08,.03-.17,.09-.27,.18-.31,.71-.7,1.55-1.03,.75-.29,1.68-.69,2.21-.85l-.05-.15"/>
      <path class="cls-3" d="M103.22,104.15l-.05-.15c-.97,.35-1.76,.69-2.31,1.02-.28,.17-.49,.33-.65,.51s-.26,.36-.26,.56c0,.13,.05,.26,.12,.37,.08,.11,.19,.22,.33,.31,.38,.26,.96,.39,1.59,.39,.78,0,1.64-.21,2.19-.76,.24-.23,.34-.54,.34-.83,0-.39-.16-.78-.38-1.07-.11-.15-.23-.28-.37-.37s-.28-.16-.44-.16c-.06,0-.12,.01-.18,.03l.06,.15,.05,.15h.07c.07-.02,.16,.02,.26,.09,.15,.1,.31,.28,.42,.49s.19,.46,.19,.69-.07,.44-.24,.61c-.47,.46-1.25,.66-1.97,.66-.58,0-1.13-.14-1.41-.33-.12-.08-.2-.16-.25-.23-.05-.07-.06-.13-.06-.19,0-.09,.05-.21,.17-.35,.19-.21,.53-.45,1.02-.69,.48-.24,1.09-.49,1.81-.75l-.05-.15"/>
      <path class="cls-3" d="M143.52,121.97c-4.99-7.96-11.33-17.51-17.51-25.24l-.25,.2c6.16,7.71,12.49,17.26,17.49,25.21l.27-.17"/>
      <path class="cls-3" d="M9.3,93.3l22.81,3.53-3.04,3.96-19.77-7.48Z"/>
      <path class="cls-3" d="M148.7,93.3l-19.79,7.46-3.02-3.93,22.81-3.53Z"/>
      <path class="cls-3" d="M88.36,27.63c-.43-.75-1.24-1.26-2.17-1.26s-1.73,.51-2.17,1.26c-.04,.08-.02,.17,.06,.22,.08,.04,.18,.02,.22-.06,.38-.66,1.08-1.1,1.9-1.1s1.52,.44,1.9,1.1c.04,.07,.14,.1,.21,.06,.08-.05,.1-.14,.06-.22"/>
      <path class="cls-3" d="M100.82,27.63c-.43-.75-1.24-1.26-2.17-1.26s-1.73,.51-2.17,1.26c-.04,.08-.02,.17,.06,.22,.08,.04,.17,.02,.22-.06,.38-.66,1.08-1.1,1.9-1.1s1.52,.44,1.9,1.1c.05,.07,.14,.1,.22,.06,.07-.05,.1-.14,.06-.22"/>
      <path class="cls-3" d="M107.2,21.11s.08-.67,.08-1.75c0-2.14-.32-5.9-2.26-9.57-1.93-3.66-5.48-7.21-11.9-8.86-.08-.02-.17,.03-.19,.11s.03,.17,.11,.19c6.33,1.64,9.79,5.11,11.69,8.7s2.22,7.31,2.22,9.42c0,.53-.02,.96-.04,1.26-.01,.15-.02,.27-.03,.34,0,.08-.01,.11-.01,.11-.01,.09,.05,.17,.14,.18,.09,.01,.17-.05,.18-.14"/>
      <path class="cls-3" d="M66.67,44.82s-.03-.03-.08-.09c-.79-.87-7.09-8.24-7.09-18.32,0-3.03,.57-6.29,2.02-9.71,.03-.08,0-.17-.08-.21-.08-.04-.18,0-.21,.08-1.47,3.45-2.05,6.77-2.05,9.83,0,10.89,7.24,18.61,7.25,18.63,.06,.06,.16,.07,.22,0,.06-.06,.07-.16,.01-.22"/>
      <path class="cls-3" d="M53.02,110.57h-9.44c-.09,0-.16,.07-.16,.16s.07,.16,.16,.16h9.44c.09,0,.16-.07,.16-.16s-.07-.16-.16-.16"/>
      <path class="cls-3" d="M104.74,110.9h10.7c.09,0,.16-.07,.16-.16s-.07-.16-.16-.16h-10.7c-.08,0-.16,.07-.16,.16s.07,.16,.16,.16"/>
      <path class="cls-1" d="M99,116.15H58.9v9.9c0,11.1,8.98,20.1,20.05,20.1s20.05-9,20.05-20.1v-9.9"/>
      <path class="cls-3" d="M58.9,123.91h40.1v-.32H58.9v.32Z"/>
    </g>
  </g>
</svg>