<?xml version="1.0" encoding="UTF-8"?>
<svg width="500px" height="319px" viewBox="0 0 500 319" version="1.1" xmlns="http://www.w3.org/2000/svg" xmlns:xlink="http://www.w3.org/1999/xlink">
    <title>Group 7</title>
    <g id="Page-1" stroke="none" stroke-width="1" fill="none" fill-rule="evenodd">
        <g id="Group-7">
            <g id="Group-2" transform="translate(0.000000, 283.000000)" fill="#006341" fill-rule="nonzero">
                <g id="Group" transform="translate(-0.000000, 0.485673)">
                    <path d="M1.34774162,0.309616319 L12.3846527,0.309616319 C16.6464303,0.309616319 19.2326372,2.80475959 19.3054881,6.44730452 L19.3054881,6.55658086 C19.3054881,9.05172414 18.2309373,10.9640602 16.3550267,12.0021855 C19.378339,12.9310345 20.9446333,15.4990287 20.9446333,18.2127246 L20.9446333,18.3948519 C20.9446333,22.5473531 17.5206411,25.4978145 13.295289,25.4978145 L1.34774162,25.4978145 L1.34774162,0.309616319 Z M12.3118018,10.6544439 C14.1877125,10.6544439 15.5536668,8.96066051 15.5536668,7.12117533 C15.5536668,5.50024284 14.2605634,3.770034 12.2753764,3.770034 L5.28169014,3.770034 L5.28169014,10.6544439 L12.3118018,10.6544439 Z M12.5849927,22.0191841 C15.1894123,22.0191841 16.8467703,20.1432734 16.8467703,17.9031083 L16.8467703,17.7209811 C16.8467703,15.4808159 15.1529869,13.8963089 12.4757164,13.8963089 L5.26347742,13.8963089 L5.26347742,22.0191841 L12.5849927,22.0191841 Z" id="Shape"></path>
                    <polygon id="Path" points="42.8363283 7.44900437 31.6172899 33.529626 27.6104905 33.529626 31.21661 25.1153473 23.348713 7.44900437 27.3555124 7.44900437 33.1653715 20.6532297 38.8295289 7.44900437 42.8363283 7.44900437"></polygon>
                </g>
                <g id="Group" transform="translate(55.159301, 1.000000)">
                    <polygon id="Path" points="159.025012 16.0393395 149.062652 0.940990772 141.194755 0.940990772 141.194755 25.8924235 147.751336 25.8924235 147.751336 10.9033511 157.713696 25.8924235 165.581593 25.8924235 165.581593 0.940990772 159.025012 0.940990772"></polygon>
                    <path d="M120.597863,15.9300631 L123.894366,7.27901894 L124.222195,7.27901894 L127.500486,15.9300631 L120.597863,15.9300631 Z M119.614376,0.940990772 L110.307674,25.8924235 L116.864254,25.8924235 L118.721952,20.9749879 L129.339971,20.9749879 L131.197669,25.8924235 L138.082079,25.8924235 L128.6661,0.940990772 L119.614376,0.940990772 L119.614376,0.940990772 Z" id="Shape"></path>
                    <polygon id="Path" points="183.848956 12.5424964 193.70204 0.940990772 185.378825 0.940990772 176.964546 11.0126275 176.964546 0.940990772 170.407965 0.940990772 170.407965 25.8924235 176.964546 25.8924235 176.964546 14.5094706 185.943419 25.8924235 194.357698 25.8924235"></polygon>
                    <polygon id="Path" points="18.6680427 16.0393395 8.72389509 0.940990772 0.837785333 0.940990772 0.837785333 25.8924235 7.41257892 25.8924235 7.41257892 10.9033511 17.3567266 25.8924235 25.2428363 25.8924235 25.2428363 0.940990772 18.6680427 0.940990772"></polygon>
                    <path d="M98.5985915,20.6289461 L92.351627,20.6289461 L92.351627,15.9300631 L98.5985915,15.9300631 C100.674842,15.9300631 101.3305,17.0228266 101.3305,18.3341428 C101.3305,19.645459 100.893395,20.6289461 98.5985915,20.6289461 M92.351627,6.20446819 L97.8154444,6.20446819 C100.110248,6.20446819 100.547353,7.18795532 100.547353,8.49927149 C100.547353,9.81058766 100.110248,10.6847984 97.8154444,10.6847984 L92.351627,10.6847984 L92.351627,6.20446819 L92.351627,6.20446819 Z M103.188198,12.7610491 C105.810831,12.43322 107.777805,10.4662458 107.777805,7.62506071 C107.777805,2.92617776 104.93662,0.959203497 99.2542496,0.959203497 L85.7950461,0.959203497 L85.7950461,25.9106362 L99.8006314,25.9106362 C105.719767,25.9106362 108.560952,24.1622147 108.560952,19.1172899 C108.542739,14.8372997 106.13866,13.1981544 103.188198,12.7610491" id="Shape"></path>
                    <path d="M68.4946576,20.6471588 L63.3586693,20.6471588 L63.3586693,6.20446819 L68.4946576,6.20446819 C71.6636717,6.20446819 74.1770277,7.73433706 74.1770277,13.4167071 C74.1770277,19.0990772 71.6636717,20.6471588 68.4946576,20.6471588 M69.0410393,0.940990772 L56.7838757,0.940990772 L56.7838757,25.8924235 L69.0410393,25.8924235 C77.3642545,25.8924235 81.4074794,22.1770277 81.4074794,13.4167071 C81.4074794,4.4378339 77.2367654,0.940990772 69.0410393,0.940990772" id="Shape"></path>
                    <polygon id="Path" points="31.0509956 25.8924235 50.9757164 25.8924235 50.9757164 20.6471588 37.6257892 20.6471588 37.6257892 15.9300631 48.7901894 15.9300631 48.7901894 10.6847984 37.6257892 10.6847984 37.6257892 6.20446819 50.9757164 6.20446819 50.9757164 0.940990772 31.0509956 0.940990772"></polygon>
                </g>
            </g>
            <g id="Group-29" transform="translate(0.000000, 0.000000)">
                <path d="M16.947101,243.408949 C20.171741,243.408949 22.1144141,242.283949 22.1144141,239.84968 L22.1144141,239.762395 C22.1144141,237.560885 20.447857,236.203126 16.7104301,236.203126 L8.22972539,236.203126 L8.22972539,243.408949 L16.947101,243.408949 Z M15.0044279,230.219286 C18.229068,230.219286 20.2802152,229.191269 20.2802152,226.757 L20.2802152,226.660017 C20.2802152,224.516697 18.5643516,223.294713 15.4777696,223.294713 L8.22972539,223.294713 L8.22972539,230.219286 L15.0044279,230.219286 Z M1.10987791,220.579195 C1.10987791,218.57165 2.72712859,216.981132 4.77827578,216.981132 L16.5723722,216.981132 C20.378828,216.981132 23.356936,218.00915 25.2700252,219.880918 C26.788663,221.384152 27.5381206,223.207429 27.5381206,225.447732 L27.5381206,225.544715 C27.5381206,229.23976 25.5560024,231.295796 23.1794328,232.605064 C27.0154725,234.059806 29.4117647,236.251617 29.4117647,240.654637 L29.4117647,240.741922 C29.4117647,246.725762 24.4613998,249.722531 16.947101,249.722531 L4.77827578,249.722531 C2.72712859,249.722531 1.10987791,248.132012 1.10987791,246.124468 L1.10987791,220.579195 Z" id="Fill-5" fill="#00A74E"></path>
                <path d="M34.4062153,235.593573 L34.4062153,220.067799 C34.4062153,218.031632 36.0153685,216.426193 38.0562456,216.426193 C40.0873109,216.426193 41.6866521,218.031632 41.6866521,220.067799 L41.6866521,235.407577 C41.6866521,240.791672 44.3947392,243.571823 48.8493461,243.571823 C53.294141,243.571823 55.9727923,240.889565 55.9727923,235.642519 L55.9727923,220.067799 C55.9727923,218.031632 57.5819455,216.426193 59.6228227,216.426193 C61.6538879,216.426193 63.2630411,218.031632 63.2630411,220.067799 L63.2630411,235.358631 C63.2630411,245.373048 57.631005,250.277469 48.751227,250.277469 C39.8518251,250.277469 34.4062153,245.324102 34.4062153,235.593573" id="Fill-7" fill="#00A74E"></path>
                <path d="M69.6457818,246.328804 C68.8482534,245.763316 68.2574917,244.729838 68.2574917,243.598862 C68.2574917,241.717152 69.7934722,240.254684 71.6937558,240.254684 C72.6488206,240.254684 73.3085046,240.595926 73.781114,240.91767 C76.3016974,242.75063 79.0487395,243.881606 82.268391,243.881606 C85.2714299,243.881606 87.0830992,242.701881 87.0830992,240.781172 L87.0830992,240.683675 C87.0830992,238.850714 85.9212678,237.914734 80.3877995,236.501014 C73.6826537,234.80455 69.370093,232.971589 69.370093,226.439229 L69.370093,226.341731 C69.370093,220.374859 74.2143393,216.426193 80.9884072,216.426193 C85.0252792,216.426193 88.5501576,217.459671 91.5433504,219.331631 C92.3507248,219.809371 93.1580992,220.7941 93.1580992,222.20782 C93.1580992,224.089529 91.6221186,225.542248 89.731681,225.542248 L87.8904736,225.025509 C85.4486584,223.61179 83.1840717,222.812307 80.909639,222.812307 C78.0838287,222.812307 76.6266164,224.089529 76.6266164,225.688495 L76.6266164,225.785993 C76.6266164,227.940697 78.0542906,228.652432 83.7945255,230.105151 C90.5390554,231.840614 94.3396226,234.239062 94.3396226,239.98169 L94.3396226,240.069438 C94.3396226,246.611548 89.3083018,250.277469 82.1403926,250.277469 C77.7687557,250.277469 73.3577347,248.961248 69.6457818,246.328804" id="Fill-9" fill="#00A74E"></path>
                <path d="M101.105993,220.023439 C101.105993,218.006654 102.653163,216.426193 104.605993,216.426193 C106.558824,216.426193 108.105993,218.006654 108.105993,220.023439 L108.105993,246.115589 C108.105993,248.122677 106.558824,249.722531 104.605993,249.722531 C102.653163,249.722531 101.105993,248.122677 101.105993,246.115589 L101.105993,220.023439 Z" id="Fill-11" fill="#00A74E"></path>
                <path d="M116.537181,220.120399 C116.537181,218.103615 118.145024,216.513458 120.18424,216.513458 L120.929338,216.513458 C122.68424,216.513458 123.713651,217.357017 124.723455,218.627203 L138.762671,236.865529 L138.762671,219.974958 C138.762671,218.01635 140.370514,216.426193 142.36071,216.426193 C144.341102,216.426193 145.948946,218.01635 145.948946,219.974958 L145.948946,246.028324 C145.948946,248.035413 144.341102,249.62557 142.311691,249.62557 L142.066593,249.62557 C140.321495,249.62557 139.272475,248.782011 138.292083,247.52152 L123.713651,228.623861 L123.713651,246.164069 C123.713651,248.132373 122.105808,249.722531 120.125416,249.722531 C118.145024,249.722531 116.537181,248.132373 116.537181,246.164069 L116.537181,220.120399 Z" id="Fill-13" fill="#00A74E"></path>
                <path d="M153.163152,246.123402 L153.163152,220.580261 C153.163152,218.56242 154.773329,216.981132 156.815504,216.981132 L175.185264,216.981132 C176.981986,216.981132 178.435072,218.426604 178.435072,220.201916 C178.435072,221.986928 176.981986,223.383894 175.185264,223.383894 L160.399129,223.383894 L160.399129,230.029186 L173.035089,230.029186 C174.851447,230.029186 176.304533,231.484359 176.304533,233.25967 C176.304533,235.034982 174.851447,236.441649 173.035089,236.441649 L160.399129,236.441649 L160.399129,243.319768 L175.4209,243.319768 C177.207803,243.319768 178.690344,244.76524 178.690344,246.540552 C178.690344,248.325564 177.207803,249.722531 175.4209,249.722531 L156.815504,249.722531 C154.773329,249.722531 153.163152,248.141242 153.163152,246.123402" id="Fill-15" fill="#00A74E"></path>
                <path d="M183.963207,246.328804 C183.155832,245.763316 182.574917,244.729838 182.574917,243.598862 C182.574917,241.717152 184.110897,240.254684 186.011181,240.254684 C186.966246,240.254684 187.62593,240.595926 188.098539,240.91767 C190.619122,242.75063 193.366165,243.881606 196.585816,243.881606 C199.588855,243.881606 201.400524,242.701881 201.400524,240.781172 L201.400524,240.683675 C201.400524,238.850714 200.238693,237.914734 194.705225,236.501014 C188.000079,234.80455 183.687518,232.971589 183.687518,226.439229 L183.687518,226.341731 C183.687518,220.374859 188.531764,216.426193 195.305832,216.426193 C199.342704,216.426193 202.867583,217.459671 205.860775,219.331631 C206.66815,219.809371 207.475524,220.7941 207.475524,222.20782 C207.475524,224.089529 205.939544,225.542248 204.049106,225.542248 L202.207899,225.025509 C199.766083,223.61179 197.501497,222.812307 195.227064,222.812307 C192.401254,222.812307 190.944041,224.089529 190.944041,225.688495 L190.944041,225.785993 C190.944041,227.940697 192.371716,228.652432 198.111951,230.105151 C204.856481,231.840614 208.657048,234.239062 208.657048,239.98169 L208.657048,240.069438 C208.657048,246.611548 203.625727,250.277469 196.457818,250.277469 C192.086181,250.277469 187.67516,248.961248 183.963207,246.328804" id="Fill-17" fill="#00A74E"></path>
                <path d="M213.929911,246.328804 C213.122536,245.763316 212.54162,244.729838 212.54162,243.598862 C212.54162,241.717152 214.077601,240.254684 215.977885,240.254684 C216.923103,240.254684 217.592633,240.595926 218.065243,240.91767 C220.585826,242.75063 223.332868,243.881606 226.55252,243.881606 C229.555559,243.881606 231.367228,242.701881 231.367228,240.781172 L231.367228,240.683675 C231.367228,238.850714 230.205397,237.914734 224.662082,236.501014 C217.956936,234.80455 213.654222,232.971589 213.654222,226.439229 L213.654222,226.341731 C213.654222,220.374859 218.488622,216.426193 225.26269,216.426193 C229.309408,216.426193 232.834286,217.459671 235.827479,219.331631 C236.634854,219.809371 237.442228,220.7941 237.442228,222.20782 C237.442228,224.089529 235.906247,225.542248 234.01581,225.542248 L232.164756,225.025509 C229.732787,223.61179 227.4682,222.812307 225.193768,222.812307 C222.367957,222.812307 220.910745,224.089529 220.910745,225.688495 L220.910745,225.785993 C220.910745,227.940697 222.338419,228.652432 228.078654,230.105151 C234.823184,231.840614 238.623751,234.239062 238.623751,239.98169 L238.623751,240.069438 C238.623751,246.611548 233.592431,250.277469 226.424521,250.277469 C222.043038,250.277469 217.632017,248.961248 213.929911,246.328804" id="Fill-19" fill="#00A74E"></path>
                <path d="M186.881055,167.958419 L136.852102,47.7651175 C135.734517,45.1106374 134.850166,42.446398 134.850166,39.5772172 C134.850166,30.0523177 142.362284,22.7524972 151.837465,22.7524972 C160.651812,22.7524972 166.385511,27.8369979 169.028843,34.6976581 L207.609835,134.982358 L246.608706,33.5948777 C248.824441,28.0614576 254.762221,22.7524972 262.915735,22.7524972 C272.177117,22.7524972 279.689234,29.8376171 279.689234,39.1282978 C279.689234,41.782778 278.804884,44.6617179 277.920534,46.652578 L227.444546,167.958419 C223.916864,176.370779 217.512613,181.465039 208.251232,181.465039 L206.064652,181.465039 C196.80327,181.465039 190.39902,176.370779 186.881055,167.958419" id="Fill-21" fill="#000000"></path>
                <path d="M92.8178969,36.259117 L142.837132,156.452419 C143.954718,159.106899 144.839068,161.771138 144.839068,164.650078 C144.839068,174.165218 137.346386,181.465039 127.85177,181.465039 C119.037422,181.465039 113.303723,176.380538 110.670109,169.519878 L72.0891173,69.2351779 L33.0805278,170.622658 C30.8745114,176.156078 24.9270135,181.465039 16.7734991,181.465039 C7.51211751,181.465039 0,174.389678 0,165.089238 C0,162.434758 0.894068319,159.555818 1.7784185,157.564958 L52.254406,36.259117 C55.7723705,27.846757 62.1766207,22.7524972 71.4380023,22.7524972 L73.6245825,22.7524972 C82.8956822,22.7524972 89.2902143,27.846757 92.8178969,36.259117" id="Fill-23" fill="#000000"></path>
                <path d="M433.630854,132.816349 C416.638641,152.374057 387.016685,154.439944 367.473205,137.445104 C347.919987,120.430775 345.845866,90.7969972 362.83808,71.2392888 C379.849768,51.6815803 409.471724,49.6059491 428.995729,66.6105337 C448.539208,83.6151182 450.623067,113.25864 433.630854,132.816349 M465.434045,24.6886295 C423.513427,-11.776216 359.994683,-7.33261113 323.546629,34.6087825 C315.376734,44.012464 309.378337,54.5270466 305.278783,65.5581009 L265.889956,168.618552 C255.714103,191.713603 260.92375,219.593326 280.944375,237.02668 C300.994213,254.460033 329.291848,255.72685 350.734171,242.42527 L447.234362,189.072777 C457.59523,183.479292 467.157611,176.063539 475.327506,166.669602 C511.765822,124.718464 507.32545,61.153475 465.434045,24.6886295" id="Fill-25" fill="#00A74E"></path>
                <path d="M367.916528,137.274266 C348.371235,120.282319 346.285104,90.5585989 363.276349,71.0222474 C380.28709,51.4663984 409.990086,49.3899299 429.52563,66.3916251 C449.080671,83.3738229 451.157053,113.107292 434.165809,132.643644 C417.184313,152.189744 387.461821,154.266212 367.916528,137.274266 M450.981584,41.7372174 C417.769209,12.8811292 367.487604,16.3906535 338.632708,49.5849035 C309.768064,82.7694049 313.287192,133.072586 346.48007,161.928674 C379.672948,190.784762 429.954554,187.265489 458.80945,154.080988 C487.674094,120.886738 484.164715,70.5933055 450.981584,41.7372174" id="Fill-27" fill="#000000"></path>
            </g>
        </g>
    </g>
</svg>