<?xml version="1.0" encoding="UTF-8"?>
<svg id="Layer_2" data-name="Layer 2" xmlns="http://www.w3.org/2000/svg" xmlns:xlink="http://www.w3.org/1999/xlink" viewBox="0 0 2385.84 342.28">
  <defs>
    <style>
      .cls-1 {
        fill: none;
      }

      .cls-2 {
        clip-path: url(#clippath);
      }

      .cls-3 {
        fill: #fff;
      }
    </style>
    <clipPath id="clippath">
      <rect class="cls-3" x="118.57" y="279.68" width="281.33" height="62.6"/>
    </clipPath>
  </defs>
  <g id="Layer_1-2" data-name="Layer 1">
    <g>
      <path class="cls-3" d="M32.36,84.15c0,14.41,11.85,26.08,26.46,26.08s26.47-11.68,26.47-26.08-11.85-26.08-26.47-26.08-26.46,11.68-26.46,26.08Zm15.4,9.3c11.09,4.44,26.47-1.39,26.47-1.39-12.36,20.52-26.47,1.39-26.47,1.39Z"/>
      <rect class="cls-1" x="110.57" width="294.67" height="166.34"/>
      <path class="cls-3" d="M110.84,130.51c1.74,2.99,3.32,6.31,4.7,9.96V4.71H400.56V161.22H166.98l-1.91,2.24c.28,.78,.47,1.58,.61,2.4h239.58V.07H110.84V130.51Z"/>
      <g>
        <rect class="cls-3" x="118.57" y="279.68" width="281.33" height="62.6"/>
        <g class="cls-2">
          <path class="cls-3" d="M118.89,342.22c.06-36.63,2.58-51.28,9.45-58.12,2.64-2.63,5.98-4.06,9.69-4.2,.36-.06,.74-.09,1.13-.09h37.77c.39,0,.76,.04,1.13,.09,3.71,.14,7.06,1.57,9.69,4.2,1.56,1.55,2.89,3.52,4.03,6.04,1.13-2.52,2.46-4.48,4.02-6.04,2.64-2.63,5.98-4.06,9.69-4.2,.37-.06,.74-.09,1.14-.09h37.76c.39,0,.77,.04,1.14,.09,3.71,.14,7.06,1.57,9.69,4.2,1.56,1.55,2.89,3.52,4.02,6.04,1.14-2.52,2.46-4.48,4.03-6.04,2.63-2.63,5.97-4.06,9.69-4.2,.37-.06,.74-.09,1.13-.09h37.77c.39,0,.76,.04,1.13,.09,3.71,.14,7.06,1.57,9.69,4.2,1.56,1.55,2.89,3.52,4.03,6.04,1.13-2.52,2.46-4.48,4.02-6.04,2.64-2.63,5.98-4.06,9.69-4.2,.36-.06,.74-.09,1.13-.09h37.77c.39,0,.76,.04,1.13,.09,3.71,.14,7.06,1.57,9.69,4.2,6.88,6.84,9.39,21.49,9.45,58.12H118.89Z"/>
        </g>
      </g>
      <path class="cls-3" d="M181.07,253.24c0,.74-.04,1.48-.11,2.22s-.19,1.47-.33,2.2-.33,1.45-.55,2.16c-.22,.71-.47,1.41-.76,2.1-.29,.69-.61,1.35-.97,2.01s-.74,1.29-1.16,1.91-.87,1.21-1.34,1.79c-.48,.57-.98,1.13-1.52,1.65-.53,.53-1.09,1.03-1.67,1.5-.58,.47-1.19,.91-1.82,1.32-.63,.42-1.27,.8-1.94,1.15-.67,.35-1.34,.67-2.04,.95-.7,.29-1.41,.54-2.13,.75-.72,.22-1.45,.4-2.19,.54s-1.48,.26-2.23,.33-1.51,.11-2.26,.11-1.51-.04-2.26-.11-1.49-.18-2.23-.33-1.47-.32-2.19-.54c-.72-.21-1.43-.46-2.13-.75-.7-.28-1.38-.6-2.05-.95-.66-.35-1.31-.73-1.94-1.15-.63-.41-1.23-.85-1.81-1.32-.58-.47-1.14-.97-1.68-1.5-.53-.52-1.04-1.07-1.52-1.65-.48-.58-.93-1.17-1.35-1.79-.42-.62-.8-1.26-1.16-1.91-.35-.66-.68-1.32-.96-2.01-.29-.69-.54-1.39-.76-2.1-.22-.71-.41-1.43-.55-2.16s-.26-1.46-.33-2.2c-.07-.74-.11-1.48-.11-2.22s.04-1.48,.11-2.22c.08-.74,.19-1.47,.33-2.2s.33-1.45,.55-2.16c.22-.71,.47-1.41,.76-2.1,.29-.68,.61-1.35,.96-2.01,.36-.66,.74-1.29,1.16-1.91,.42-.62,.87-1.21,1.35-1.79,.48-.58,.98-1.13,1.52-1.65,.54-.53,1.09-1.03,1.68-1.5,.58-.47,1.19-.91,1.81-1.32,.63-.42,1.28-.8,1.94-1.15,.67-.35,1.35-.67,2.05-.95,.69-.29,1.41-.54,2.13-.75,.72-.21,1.45-.4,2.19-.54s1.48-.26,2.23-.33,1.51-.11,2.26-.11,1.51,.04,2.26,.11,1.49,.18,2.23,.33,1.47,.33,2.19,.54c.72,.21,1.43,.46,2.13,.75s1.38,.6,2.04,.95,1.31,.73,1.94,1.15c.63,.41,1.23,.85,1.82,1.32,.58,.47,1.14,.97,1.67,1.5,.54,.53,1.04,1.07,1.52,1.65,.47,.57,.93,1.17,1.34,1.79s.81,1.26,1.16,1.91,.68,1.33,.97,2.01c.29,.69,.54,1.39,.76,2.1,.22,.71,.4,1.43,.55,2.16s.26,1.46,.33,2.2,.11,1.48,.11,2.22Z"/>
      <path class="cls-3" d="M248.53,253.24c0,.74-.04,1.48-.11,2.22s-.19,1.47-.33,2.2-.33,1.45-.55,2.16c-.22,.71-.47,1.41-.77,2.1-.29,.69-.61,1.35-.96,2.01s-.74,1.29-1.16,1.91c-.42,.62-.87,1.21-1.35,1.79-.47,.57-.98,1.13-1.52,1.65-.53,.53-1.09,1.03-1.67,1.5-.58,.47-1.19,.91-1.82,1.32-.63,.42-1.27,.8-1.94,1.15-.67,.35-1.35,.67-2.04,.95-.7,.29-1.41,.54-2.13,.75-.72,.22-1.45,.4-2.19,.54s-1.48,.26-2.23,.33-1.51,.11-2.26,.11-1.51-.04-2.26-.11-1.49-.18-2.23-.33-1.47-.32-2.19-.54c-.72-.21-1.43-.46-2.13-.75-.7-.28-1.38-.6-2.05-.95-.66-.35-1.31-.73-1.94-1.15-.63-.41-1.23-.85-1.81-1.32-.58-.47-1.15-.97-1.68-1.5-.53-.52-1.04-1.07-1.52-1.65-.48-.58-.93-1.17-1.35-1.79-.42-.62-.81-1.26-1.16-1.91s-.68-1.32-.96-2.01c-.29-.69-.55-1.39-.77-2.1-.22-.71-.4-1.43-.55-2.16s-.26-1.46-.33-2.2c-.07-.74-.11-1.48-.11-2.22s.04-1.48,.11-2.22c.08-.74,.19-1.47,.33-2.2s.33-1.45,.55-2.16c.22-.71,.47-1.41,.77-2.1,.29-.68,.61-1.35,.96-2.01s.74-1.29,1.16-1.91c.42-.62,.87-1.21,1.35-1.79,.48-.58,.98-1.13,1.52-1.65s1.09-1.03,1.68-1.5c.58-.47,1.19-.91,1.81-1.32,.63-.42,1.28-.8,1.94-1.15,.67-.35,1.35-.67,2.05-.95,.69-.29,1.4-.54,2.13-.75s1.45-.4,2.19-.54,1.48-.26,2.23-.33,1.51-.11,2.26-.11,1.51,.04,2.26,.11,1.49,.18,2.23,.33,1.47,.33,2.19,.54,1.43,.46,2.13,.75c.69,.29,1.38,.6,2.04,.95s1.31,.73,1.94,1.15c.63,.41,1.23,.85,1.82,1.32,.58,.47,1.14,.97,1.67,1.5s1.04,1.07,1.52,1.65c.48,.57,.93,1.17,1.35,1.79,.42,.62,.81,1.26,1.16,1.91s.68,1.33,.96,2.01c.29,.69,.55,1.39,.77,2.1,.22,.71,.4,1.43,.55,2.16s.26,1.46,.33,2.2,.11,1.48,.11,2.22Z"/>
      <path class="cls-3" d="M315.99,253.24c0,.74-.04,1.48-.11,2.22s-.19,1.47-.33,2.2-.33,1.45-.55,2.16c-.22,.71-.47,1.41-.76,2.1-.29,.69-.61,1.35-.97,2.01s-.74,1.29-1.16,1.91-.87,1.21-1.34,1.79c-.48,.57-.98,1.13-1.52,1.65-.53,.53-1.09,1.03-1.67,1.5-.58,.47-1.19,.91-1.82,1.32-.63,.42-1.27,.8-1.94,1.15-.67,.35-1.35,.67-2.04,.95-.7,.29-1.41,.54-2.13,.75-.72,.22-1.45,.4-2.19,.54s-1.48,.26-2.23,.33-1.51,.11-2.26,.11-1.51-.04-2.26-.11-1.49-.18-2.23-.33-1.47-.32-2.19-.54c-.72-.21-1.43-.46-2.13-.75-.7-.28-1.38-.6-2.05-.95-.66-.35-1.31-.73-1.94-1.15-.63-.41-1.23-.85-1.81-1.32-.58-.47-1.14-.97-1.68-1.5-.53-.52-1.04-1.07-1.52-1.65-.48-.58-.93-1.17-1.35-1.79-.42-.62-.8-1.26-1.16-1.91-.35-.66-.68-1.32-.96-2.01-.29-.69-.54-1.39-.76-2.1-.22-.71-.41-1.43-.55-2.16s-.26-1.46-.33-2.2c-.07-.74-.11-1.48-.11-2.22s.04-1.48,.11-2.22c.08-.74,.19-1.47,.33-2.2s.33-1.45,.55-2.16c.22-.71,.47-1.41,.76-2.1,.29-.68,.61-1.35,.96-2.01,.36-.66,.74-1.29,1.16-1.91,.42-.62,.87-1.21,1.35-1.79,.48-.58,.98-1.13,1.52-1.65,.54-.53,1.09-1.03,1.68-1.5,.58-.47,1.19-.91,1.81-1.32,.63-.42,1.28-.8,1.94-1.15,.67-.35,1.35-.67,2.05-.95,.69-.29,1.41-.54,2.13-.75,.72-.21,1.45-.4,2.19-.54s1.48-.26,2.23-.33,1.51-.11,2.26-.11,1.51,.04,2.26,.11,1.49,.18,2.23,.33,1.47,.33,2.19,.54c.72,.21,1.43,.46,2.13,.75,.69,.29,1.38,.6,2.04,.95s1.31,.73,1.94,1.15c.63,.41,1.23,.85,1.82,1.32,.58,.47,1.14,.97,1.67,1.5,.54,.53,1.04,1.07,1.52,1.65,.47,.57,.93,1.17,1.34,1.79s.81,1.26,1.16,1.91,.68,1.33,.97,2.01c.29,.69,.54,1.39,.76,2.1,.22,.71,.4,1.43,.55,2.16s.26,1.46,.33,2.2,.11,1.48,.11,2.22Z"/>
      <path class="cls-3" d="M383.45,253.24c0,.74-.04,1.48-.11,2.22s-.19,1.47-.33,2.2-.33,1.45-.55,2.16c-.22,.71-.47,1.41-.77,2.1-.29,.69-.61,1.35-.96,2.01s-.74,1.29-1.16,1.91c-.42,.62-.87,1.21-1.35,1.79-.47,.57-.98,1.13-1.52,1.65-.53,.53-1.09,1.03-1.67,1.5-.58,.47-1.19,.91-1.82,1.32-.63,.42-1.27,.8-1.94,1.15-.67,.35-1.35,.67-2.04,.95-.7,.29-1.41,.54-2.13,.75-.72,.22-1.45,.4-2.19,.54s-1.48,.26-2.23,.33-1.51,.11-2.26,.11-1.51-.04-2.26-.11-1.49-.18-2.23-.33-1.47-.32-2.19-.54c-.72-.21-1.43-.46-2.13-.75-.7-.28-1.38-.6-2.05-.95-.66-.35-1.31-.73-1.94-1.15-.63-.41-1.23-.85-1.81-1.32-.58-.47-1.15-.97-1.68-1.5-.53-.52-1.04-1.07-1.52-1.65-.48-.58-.93-1.17-1.35-1.79-.42-.62-.81-1.26-1.16-1.91s-.68-1.32-.96-2.01c-.29-.69-.55-1.39-.77-2.1-.22-.71-.4-1.43-.55-2.16s-.26-1.46-.33-2.2c-.07-.74-.11-1.48-.11-2.22s.04-1.48,.11-2.22c.08-.74,.19-1.47,.33-2.2s.33-1.45,.55-2.16c.22-.71,.47-1.41,.77-2.1,.29-.68,.61-1.35,.96-2.01s.74-1.29,1.16-1.91c.42-.62,.87-1.21,1.35-1.79,.48-.58,.98-1.13,1.52-1.65s1.09-1.03,1.68-1.5c.58-.47,1.19-.91,1.81-1.32,.63-.42,1.28-.8,1.94-1.15,.67-.35,1.35-.67,2.05-.95,.69-.29,1.4-.54,2.13-.75s1.45-.4,2.19-.54,1.48-.26,2.23-.33,1.51-.11,2.26-.11,1.51,.04,2.26,.11,1.49,.18,2.23,.33,1.47,.33,2.19,.54,1.43,.46,2.13,.75c.69,.29,1.38,.6,2.04,.95s1.31,.73,1.94,1.15c.63,.41,1.23,.85,1.82,1.32,.58,.47,1.14,.97,1.67,1.5s1.04,1.07,1.52,1.65c.48,.57,.93,1.17,1.35,1.79,.42,.62,.81,1.26,1.16,1.91s.68,1.33,.96,2.01c.29,.69,.55,1.39,.77,2.1,.22,.71,.4,1.43,.55,2.16s.26,1.46,.33,2.2,.11,1.48,.11,2.22Z"/>
      <path class="cls-3" d="M209.3,102.6l-2.16-1.79-51.16,59.97c-1.89-1.29-4.26-1.92-6.72-1.56l-33.81,4.85c-3.07-20.08-9.38-34.03-18.8-41.52-5.94-4.72-11.54-5.6-14.54-5.68-.19-.01-.38-.03-.57-.03H36.1c-.2,0-.4,.02-.59,.03-3.31,.08-9.75,1.14-16.34,7.24C4,138.16-2.21,170.11,.7,219.09c.29,4.93,4.44,8.73,9.39,8.73,.18,0,.37,0,.56-.02,5.19-.3,9.15-4.69,8.85-9.8-2.42-40.74,2.27-62.45,7.52-73.23v173.94c0,7.92,6.52,14.33,14.54,14.33s14.55-6.41,14.55-14.33v-104.66h5.45v104.66c0,7.92,6.51,14.33,14.54,14.33s14.55-6.41,14.55-14.33V144.89c2.86,5.79,5.82,15.24,7.27,30.58,.23,2.53,1.52,4.86,3.55,6.43,1.67,1.29,3.72,1.98,5.82,1.98,.45,0,.9-.03,1.35-.1l31.59-4.53-14.26,16.71,2.16,1.79,16.3-19.11,7.56-1.08c5.14-.74,8.7-5.45,7.96-10.52-.24-1.65-.92-3.14-1.9-4.36l51.27-60.1Z"/>
      <path class="cls-3" d="M538.91,164.65c0-11.82,2.66-22.45,7.98-31.9,5.33-9.44,12.6-16.83,21.81-22.17,9.22-5.33,19.46-8,30.71-8,13.21,0,24.73,3.19,34.58,9.56,9.84,6.38,17.03,15.42,21.56,27.13h-18.96c-3.36-7.3-8.2-12.92-14.52-16.85-6.31-3.94-13.86-5.92-22.67-5.92s-16.07,1.97-22.79,5.92c-6.72,3.93-11.99,9.52-15.81,16.77-3.82,7.24-5.73,15.72-5.73,25.46s1.91,18.04,5.73,25.29c3.82,7.24,9.09,12.83,15.81,16.77,6.72,3.95,14.32,5.92,22.79,5.92s16.36-1.94,22.67-5.81c6.32-3.89,11.16-9.48,14.52-16.79h18.96c-4.53,11.6-11.72,20.56-21.56,26.88-9.85,6.31-21.38,9.46-34.58,9.46-11.25,0-21.49-2.63-30.71-7.9-9.21-5.28-16.48-12.61-21.81-22-5.32-9.39-7.98-19.99-7.98-31.81Z"/>
      <path class="cls-3" d="M694.82,96.67V225.32h-15.83V96.67h15.83Z"/>
      <path class="cls-3" d="M715.85,177.34c0-9.73,1.96-18.28,5.9-25.65,3.94-7.36,9.36-13.07,16.25-17.13,6.9-4.05,14.58-6.08,23.04-6.08s15.59,1.8,21.73,5.4c6.14,3.6,10.71,8.12,13.73,13.56v-17.4h16v95.27h-16v-17.73c-3.13,5.56-7.79,10.16-14,13.81-6.2,3.66-13.41,5.48-21.63,5.48s-16.11-2.08-22.96-6.25c-6.83-4.18-12.22-10.03-16.17-17.56-3.93-7.53-5.9-16.1-5.9-25.73Zm80.65,.17c0-7.18-1.45-13.44-4.35-18.77-2.89-5.33-6.8-9.42-11.73-12.25-4.92-2.83-10.33-4.25-16.25-4.25s-11.29,1.39-16.17,4.17c-4.86,2.78-8.74,6.83-11.65,12.17-2.89,5.33-4.33,11.59-4.33,18.77s1.44,13.66,4.33,19.04c2.9,5.39,6.78,9.51,11.65,12.35,4.88,2.83,10.26,4.25,16.17,4.25s11.33-1.42,16.25-4.25c4.93-2.84,8.84-6.96,11.73-12.35,2.9-5.39,4.35-11.68,4.35-18.88Z"/>
      <path class="cls-3" d="M872.97,226.88c-7.29,0-13.84-1.24-19.65-3.73-5.79-2.5-10.37-5.98-13.73-10.44-3.36-4.46-5.22-9.58-5.56-15.38h16.35c.46,4.75,2.69,8.64,6.69,11.65,4,3.02,9.24,4.52,15.73,4.52,6.03,0,10.78-1.33,14.25-4,3.47-2.67,5.21-6.03,5.21-10.08s-1.85-7.28-5.56-9.31c-3.71-2.03-9.45-4.03-17.21-6-7.07-1.84-12.83-3.72-17.29-5.63-4.46-1.92-8.29-4.76-11.48-8.52-3.18-3.78-4.77-8.73-4.77-14.88,0-4.86,1.44-9.32,4.33-13.38,2.9-4.07,7.02-7.29,12.35-9.67s11.42-3.56,18.25-3.56c10.54,0,19.05,2.67,25.54,8,6.5,5.33,9.98,12.64,10.44,21.92h-15.81c-.35-4.98-2.35-8.98-6-12-3.66-3.01-8.55-4.52-14.69-4.52-5.68,0-10.2,1.22-13.56,3.65-3.36,2.43-5.04,5.62-5.04,9.56,0,3.13,1.01,5.7,3.04,7.73,2.03,2.03,4.57,3.66,7.65,4.88,3.08,1.22,7.34,2.58,12.79,4.08,6.83,1.86,12.39,3.69,16.67,5.48,4.29,1.79,7.97,4.49,11.04,8.08,3.08,3.6,4.68,8.29,4.79,14.08,0,5.21-1.45,9.91-4.35,14.08-2.89,4.17-6.97,7.44-12.25,9.81-5.27,2.38-11.32,3.56-18.17,3.56Z"/>
      <path class="cls-3" d="M963.7,226.88c-7.29,0-13.84-1.24-19.65-3.73-5.79-2.5-10.37-5.98-13.73-10.44-3.36-4.46-5.22-9.58-5.56-15.38h16.35c.46,4.75,2.69,8.64,6.69,11.65,4,3.02,9.24,4.52,15.73,4.52,6.03,0,10.78-1.33,14.25-4,3.47-2.67,5.21-6.03,5.21-10.08s-1.85-7.28-5.56-9.31c-3.71-2.03-9.45-4.03-17.21-6-7.07-1.84-12.83-3.72-17.29-5.63-4.46-1.92-8.29-4.76-11.48-8.52-3.18-3.78-4.77-8.73-4.77-14.88,0-4.86,1.44-9.32,4.33-13.38,2.9-4.07,7.02-7.29,12.35-9.67s11.42-3.56,18.25-3.56c10.54,0,19.05,2.67,25.54,8,6.5,5.33,9.98,12.64,10.44,21.92h-15.81c-.35-4.98-2.35-8.98-6-12-3.66-3.01-8.55-4.52-14.69-4.52-5.68,0-10.2,1.22-13.56,3.65-3.36,2.43-5.04,5.62-5.04,9.56,0,3.13,1.01,5.7,3.04,7.73,2.03,2.03,4.57,3.66,7.65,4.88,3.08,1.22,7.34,2.58,12.79,4.08,6.83,1.86,12.39,3.69,16.67,5.48,4.29,1.79,7.97,4.49,11.04,8.08,3.08,3.6,4.68,8.29,4.79,14.08,0,5.21-1.45,9.91-4.35,14.08-2.89,4.17-6.97,7.44-12.25,9.81-5.27,2.38-11.32,3.56-18.17,3.56Z"/>
      <path class="cls-3" d="M1036.54,145.52c2.78-5.44,6.74-9.67,11.9-12.69,5.17-3.01,11.46-4.52,18.88-4.52v16.33h-4.19c-17.72,0-26.58,9.62-26.58,28.85v51.81h-15.83v-95.27h15.83v15.48Z"/>
      <path class="cls-3" d="M1127.1,226.88c-8.93,0-17.02-2.03-24.27-6.08-7.24-4.05-12.91-9.82-17.02-17.29-4.11-7.47-6.17-16.14-6.17-26s2.11-18.32,6.33-25.79c4.23-7.48,10-13.23,17.29-17.23,7.3-4,15.48-6,24.52-6s17.21,2,24.5,6c7.3,4,13.07,9.71,17.29,17.13,4.23,7.42,6.35,16.05,6.35,25.9s-2.18,18.53-6.52,26c-4.33,7.47-10.21,13.24-17.63,17.29-7.42,4.06-15.65,6.08-24.69,6.08Zm0-13.9c5.68,0,11.01-1.33,15.98-4,4.98-2.67,9.01-6.67,12.08-12,3.07-5.33,4.6-11.82,4.6-19.48s-1.51-14.13-4.52-19.46c-3.02-5.33-6.95-9.3-11.81-11.9-4.86-2.61-10.14-3.92-15.81-3.92s-11.1,1.31-15.92,3.92c-4.81,2.6-8.66,6.56-11.56,11.9-2.89,5.33-4.33,11.82-4.33,19.46s1.42,14.31,4.25,19.65c2.84,5.33,6.65,9.31,11.4,11.92,4.75,2.61,9.96,3.92,15.65,3.92Z"/>
      <path class="cls-3" d="M1238.34,226.88c-8.93,0-17.02-2.03-24.27-6.08-7.24-4.05-12.91-9.82-17.02-17.29-4.11-7.47-6.17-16.14-6.17-26s2.11-18.32,6.33-25.79c4.23-7.48,10-13.23,17.29-17.23,7.3-4,15.48-6,24.52-6s17.21,2,24.5,6c7.3,4,13.07,9.71,17.29,17.13,4.23,7.42,6.35,16.05,6.35,25.9s-2.18,18.53-6.52,26c-4.33,7.47-10.21,13.24-17.63,17.29-7.42,4.06-15.65,6.08-24.69,6.08Zm0-13.9c5.68,0,11.01-1.33,15.98-4,4.98-2.67,9.01-6.67,12.08-12,3.07-5.33,4.6-11.82,4.6-19.48s-1.51-14.13-4.52-19.46c-3.02-5.33-6.95-9.3-11.81-11.9-4.86-2.61-10.14-3.92-15.81-3.92s-11.1,1.31-15.92,3.92c-4.81,2.6-8.66,6.56-11.56,11.9-2.89,5.33-4.33,11.82-4.33,19.46s1.42,14.31,4.25,19.65c2.84,5.33,6.65,9.31,11.4,11.92,4.75,2.61,9.96,3.92,15.65,3.92Z"/>
      <path class="cls-3" d="M1422.58,128.32c7.42,0,14.02,1.54,19.81,4.6,5.8,3.07,10.39,7.68,13.75,13.83,3.36,6.14,5.04,13.61,5.04,22.42v56.15h-15.65v-53.9c0-9.5-2.35-16.77-7.04-21.81-4.7-5.04-11.04-7.56-19.04-7.56s-14.77,2.64-19.65,7.92c-4.86,5.28-7.29,12.9-7.29,22.85v52.5h-15.65v-53.9c0-9.5-2.35-16.77-7.04-21.81-4.7-5.04-11.04-7.56-19.04-7.56s-14.77,2.64-19.65,7.92c-4.86,5.28-7.29,12.9-7.29,22.85v52.5h-15.83v-95.27h15.83v13.75c3.13-4.98,7.32-8.81,12.58-11.48,5.28-2.67,11.1-4,17.48-4,8,0,15.07,1.8,21.21,5.4,6.15,3.58,10.73,8.85,13.73,15.81,2.67-6.72,7.07-11.94,13.21-15.65,6.15-3.71,12.99-5.56,20.52-5.56Z"/>
      <path class="cls-3" d="M1549.29,104.15v121.17h-15.83V104.15h15.83Z"/>
      <path class="cls-3" d="M1622.63,128.32c11.59,0,20.98,3.51,28.17,10.52,7.18,7.02,10.77,17.13,10.77,30.33v56.15h-15.65v-53.9c0-9.5-2.38-16.77-7.13-21.81s-11.24-7.56-19.46-7.56-14.99,2.61-19.92,7.83c-4.92,5.21-7.38,12.8-7.38,22.77v52.67h-15.83v-95.27h15.83v13.56c3.13-4.86,7.38-8.63,12.77-11.29,5.39-2.67,11.32-4,17.81-4Z"/>
      <path class="cls-3" d="M1721.18,226.88c-7.29,0-13.84-1.24-19.65-3.73-5.79-2.5-10.37-5.98-13.73-10.44-3.36-4.46-5.22-9.58-5.56-15.38h16.35c.46,4.75,2.69,8.64,6.69,11.65,4,3.02,9.24,4.52,15.73,4.52,6.03,0,10.78-1.33,14.25-4,3.47-2.67,5.21-6.03,5.21-10.08s-1.85-7.28-5.56-9.31c-3.71-2.03-9.45-4.03-17.21-6-7.07-1.84-12.83-3.72-17.29-5.63-4.46-1.92-8.29-4.76-11.48-8.52-3.18-3.78-4.77-8.73-4.77-14.88,0-4.86,1.44-9.32,4.33-13.38,2.9-4.07,7.02-7.29,12.35-9.67s11.42-3.56,18.25-3.56c10.54,0,19.05,2.67,25.54,8,6.5,5.33,9.98,12.64,10.44,21.92h-15.81c-.35-4.98-2.35-8.98-6-12-3.66-3.01-8.55-4.52-14.69-4.52-5.68,0-10.2,1.22-13.56,3.65-3.36,2.43-5.04,5.62-5.04,9.56,0,3.13,1.01,5.7,3.04,7.73,2.03,2.03,4.57,3.66,7.65,4.88,3.08,1.22,7.34,2.58,12.79,4.08,6.83,1.86,12.39,3.69,16.67,5.48,4.29,1.79,7.97,4.49,11.04,8.08,3.08,3.6,4.68,8.29,4.79,14.08,0,5.21-1.45,9.91-4.35,14.08-2.89,4.17-6.97,7.44-12.25,9.81-5.27,2.38-11.32,3.56-18.17,3.56Z"/>
      <path class="cls-3" d="M1786.37,114.59c-3.02,0-5.57-1.04-7.67-3.13-2.08-2.09-3.13-4.65-3.13-7.65s1.04-5.56,3.13-7.65c2.09-2.09,4.65-3.15,7.67-3.15s5.34,1.05,7.38,3.15c2.03,2.08,3.04,4.64,3.04,7.65s-1.02,5.55-3.04,7.65c-2.03,2.08-4.49,3.13-7.38,3.13Zm7.65,15.46v95.27h-15.83v-95.27h15.83Z"/>
      <path class="cls-3" d="M1860.23,128.48c8.23,0,15.45,1.8,21.65,5.4,6.19,3.6,10.8,8.12,13.81,13.56v-17.4h16v97.35c0,8.69-1.85,16.43-5.56,23.21-3.71,6.78-9.02,12.07-15.92,15.9-6.89,3.83-14.91,5.75-24.06,5.75-12.52,0-22.95-2.96-31.29-8.88-8.35-5.91-13.27-13.95-14.77-24.15h15.65c1.73,5.79,5.32,10.45,10.77,13.98,5.44,3.54,11.99,5.31,19.65,5.31,8.69,0,15.79-2.73,21.29-8.19,5.5-5.45,8.25-13.09,8.25-22.94v-19.98c-3.13,5.56-7.76,10.19-13.9,13.9-6.14,3.71-13.33,5.56-21.56,5.56s-16.14-2.08-23.04-6.25c-6.89-4.18-12.31-10.03-16.25-17.56-3.93-7.53-5.9-16.1-5.9-25.73s1.96-18.28,5.9-25.65c3.94-7.36,9.36-13.07,16.25-17.13,6.9-4.05,14.58-6.08,23.04-6.08Zm35.46,49.02c0-7.18-1.45-13.44-4.35-18.77-2.89-5.33-6.8-9.42-11.73-12.25-4.92-2.83-10.33-4.25-16.25-4.25s-11.29,1.39-16.17,4.17c-4.86,2.78-8.74,6.83-11.65,12.17-2.89,5.33-4.33,11.59-4.33,18.77s1.44,13.66,4.33,19.04c2.9,5.39,6.78,9.51,11.65,12.35,4.88,2.83,10.26,4.25,16.17,4.25s11.33-1.42,16.25-4.25c4.93-2.84,8.84-6.96,11.73-12.35,2.9-5.39,4.35-11.68,4.35-18.88Z"/>
      <path class="cls-3" d="M1985.73,128.32c7.18,0,13.67,1.54,19.46,4.6,5.8,3.07,10.35,7.68,13.65,13.83,3.3,6.14,4.96,13.61,4.96,22.42v56.15h-15.65v-53.9c0-9.5-2.38-16.77-7.13-21.81s-11.24-7.56-19.46-7.56-14.99,2.61-19.92,7.83c-4.92,5.21-7.38,12.8-7.38,22.77v52.67h-15.83V96.67h15.83v46.94c3.13-4.86,7.44-8.63,12.94-11.29,5.51-2.67,11.69-4,18.52-4Z"/>
      <path class="cls-3" d="M2068.99,143.09v56.15c0,4.64,.98,7.92,2.94,9.83,1.97,1.92,5.4,2.88,10.27,2.88h11.65v13.38h-14.25c-8.81,0-15.42-2.03-19.83-6.08-4.41-4.05-6.6-10.72-6.6-20v-56.15h-12.33v-13.04h12.33v-23.98h15.83v23.98h24.85v13.04h-24.85Z"/>
      <path class="cls-3" d="M2146.68,226.88c-7.29,0-13.84-1.24-19.65-3.73-5.79-2.5-10.37-5.98-13.73-10.44-3.36-4.46-5.22-9.58-5.56-15.38h16.35c.46,4.75,2.69,8.64,6.69,11.65,4,3.02,9.24,4.52,15.73,4.52,6.03,0,10.78-1.33,14.25-4,3.47-2.67,5.21-6.03,5.21-10.08s-1.85-7.28-5.56-9.31c-3.71-2.03-9.45-4.03-17.21-6-7.07-1.84-12.83-3.72-17.29-5.63-4.46-1.92-8.29-4.76-11.48-8.52-3.18-3.78-4.77-8.73-4.77-14.88,0-4.86,1.44-9.32,4.33-13.38,2.9-4.07,7.02-7.29,12.35-9.67s11.42-3.56,18.25-3.56c10.54,0,19.05,2.67,25.54,8,6.5,5.33,9.98,12.64,10.44,21.92h-15.81c-.35-4.98-2.35-8.98-6-12-3.66-3.01-8.55-4.52-14.69-4.52-5.68,0-10.2,1.22-13.56,3.65-3.36,2.43-5.04,5.62-5.04,9.56,0,3.13,1.01,5.7,3.04,7.73,2.03,2.03,4.57,3.66,7.65,4.88,3.08,1.22,7.34,2.58,12.79,4.08,6.83,1.86,12.39,3.69,16.67,5.48,4.29,1.79,7.97,4.49,11.04,8.08,3.08,3.6,4.68,8.29,4.79,14.08,0,5.21-1.45,9.91-4.35,14.08-2.89,4.17-6.97,7.44-12.25,9.81-5.27,2.38-11.32,3.56-18.17,3.56Z"/>
      <path class="cls-3" d="M2321.71,198.38h-52.83l-9.75,26.94h-16.69l43.81-120.46h18.25l43.65,120.46h-16.71l-9.73-26.94Zm-4.52-12.88l-21.9-61.19-21.9,61.19h43.79Z"/>
      <path class="cls-3" d="M2375.42,114.59c-3.02,0-5.57-1.04-7.67-3.13-2.08-2.09-3.13-4.65-3.13-7.65s1.04-5.56,3.13-7.65c2.09-2.09,4.65-3.15,7.67-3.15s5.34,1.05,7.38,3.15c2.03,2.08,3.04,4.64,3.04,7.65s-1.02,5.55-3.04,7.65c-2.03,2.08-4.49,3.13-7.38,3.13Zm7.65,15.46v95.27h-15.83v-95.27h15.83Z"/>
    </g>
  </g>
</svg>