<?xml version="1.0" encoding="UTF-8"?>
<svg id="Layer_2" data-name="Layer 2" xmlns="http://www.w3.org/2000/svg" viewBox="0 0 377.12 64.32">
  <defs>
    <style>
      .cls-1 {
        fill: #fea831;
      }

      .cls-2 {
        fill: #1e4a9b;
      }

      .cls-3 {
        fill: none;
        stroke: #fea831;
        stroke-miterlimit: 10;
        stroke-width: 6.25px;
      }
    </style>
  </defs>
  <g id="Layer_1-2" data-name="Layer 1">
    <g>
      <g>
        <path class="cls-1" d="M42.53,41.49c0,3.24-.83,6.15-2.5,8.73-1.67,2.58-4.11,4.6-7.32,6.06-3.21,1.46-7.02,2.19-11.43,2.19-5.28,0-9.64-1-13.07-2.99-2.43-1.44-4.41-3.35-5.93-5.75-1.52-2.4-2.28-4.73-2.28-6.99,0-1.31,.46-2.44,1.37-3.38,.91-.94,2.07-1.41,3.49-1.41,1.14,0,2.11,.37,2.9,1.1,.79,.73,1.47,1.81,2.03,3.25,.68,1.7,1.42,3.13,2.21,4.27,.79,1.14,1.9,2.09,3.34,2.83,1.44,.74,3.32,1.11,5.66,1.11,3.21,0,5.82-.75,7.83-2.25,2.01-1.5,3.01-3.36,3.01-5.6,0-1.78-.54-3.22-1.62-4.33-1.08-1.11-2.48-1.95-4.2-2.54s-4.01-1.2-6.88-1.86c-3.85-.9-7.06-1.95-9.66-3.16-2.59-1.21-4.65-2.85-6.17-4.93-1.52-2.08-2.28-4.67-2.28-7.76s.8-5.56,2.41-7.85c1.61-2.29,3.93-4.05,6.97-5.27,3.04-1.23,6.62-1.84,10.73-1.84,3.29,0,6.13,.41,8.52,1.22,2.4,.82,4.39,1.9,5.97,3.25,1.58,1.35,2.74,2.77,3.47,4.25,.73,1.48,1.1,2.93,1.1,4.34,0,1.29-.46,2.45-1.37,3.49-.91,1.03-2.05,1.55-3.41,1.55-1.24,0-2.18-.31-2.83-.93-.65-.62-1.35-1.64-2.1-3.05-.97-2.02-2.14-3.6-3.5-4.73-1.36-1.13-3.55-1.7-6.57-1.7-2.8,0-5.06,.61-6.77,1.84-1.72,1.23-2.57,2.71-2.57,4.44,0,1.07,.29,2,.88,2.77,.58,.78,1.39,1.45,2.41,2.01,1.02,.56,2.06,1,3.1,1.31,1.05,.32,2.77,.78,5.18,1.39,3.02,.71,5.75,1.48,8.2,2.34,2.45,.85,4.53,1.89,6.24,3.1,1.72,1.22,3.05,2.76,4.02,4.62s1.44,4.14,1.44,6.85Z"/>
        <path class="cls-1" d="M69.8,49.49L61.22,15.39V52.33c0,2.04-.46,3.58-1.37,4.6-.91,1.02-2.12,1.53-3.63,1.53s-2.65-.5-3.58-1.51c-.93-1.01-1.39-2.55-1.39-4.62V9.99c0-2.34,.61-3.91,1.83-4.73,1.22-.82,2.86-1.22,4.93-1.22h3.36c2.02,0,3.49,.18,4.4,.55,.91,.36,1.59,1.02,2.03,1.97s.94,2.5,1.5,4.64l7.78,29.32,7.78-29.32c.56-2.14,1.06-3.69,1.5-4.64,.44-.95,1.11-1.61,2.03-1.97,.91-.37,2.38-.55,4.4-.55h3.36c2.07,0,3.71,.41,4.93,1.22,1.22,.82,1.83,2.39,1.83,4.73V52.33c0,2.04-.46,3.58-1.37,4.6-.91,1.02-2.14,1.53-3.67,1.53-1.44,0-2.62-.51-3.54-1.53-.93-1.02-1.39-2.56-1.39-4.6V15.39l-8.58,34.1c-.56,2.21-1.02,3.84-1.37,4.87-.35,1.03-1,1.98-1.95,2.83-.95,.85-2.26,1.28-3.94,1.28-1.27,0-2.34-.27-3.21-.82-.88-.55-1.56-1.25-2.04-2.1-.49-.85-.87-1.79-1.15-2.83-.28-1.03-.57-2.11-.86-3.23Z"/>
        <path class="cls-1" d="M154.68,41.49c0,3.24-.83,6.15-2.5,8.73-1.67,2.58-4.11,4.6-7.32,6.06-3.21,1.46-7.02,2.19-11.43,2.19-5.28,0-9.64-1-13.07-2.99-2.43-1.44-4.41-3.35-5.93-5.75-1.52-2.4-2.28-4.73-2.28-6.99,0-1.31,.46-2.44,1.37-3.38,.91-.94,2.07-1.41,3.49-1.41,1.14,0,2.11,.37,2.9,1.1,.79,.73,1.47,1.81,2.03,3.25,.68,1.7,1.42,3.13,2.21,4.27,.79,1.14,1.9,2.09,3.34,2.83,1.44,.74,3.32,1.11,5.66,1.11,3.21,0,5.82-.75,7.83-2.25,2.01-1.5,3.01-3.36,3.01-5.6,0-1.78-.54-3.22-1.62-4.33-1.08-1.11-2.48-1.95-4.2-2.54s-4.01-1.2-6.88-1.86c-3.85-.9-7.06-1.95-9.66-3.16-2.59-1.21-4.65-2.85-6.17-4.93-1.52-2.08-2.28-4.67-2.28-7.76s.8-5.56,2.41-7.85c1.61-2.29,3.93-4.05,6.97-5.27,3.04-1.23,6.62-1.84,10.73-1.84,3.29,0,6.13,.41,8.52,1.22,2.4,.82,4.39,1.9,5.97,3.25,1.58,1.35,2.74,2.77,3.47,4.25,.73,1.48,1.1,2.93,1.1,4.34,0,1.29-.46,2.45-1.37,3.49-.91,1.03-2.05,1.55-3.41,1.55-1.24,0-2.18-.31-2.83-.93-.65-.62-1.35-1.64-2.1-3.05-.97-2.02-2.14-3.6-3.5-4.73-1.36-1.13-3.55-1.7-6.57-1.7-2.8,0-5.06,.61-6.77,1.84-1.72,1.23-2.57,2.71-2.57,4.44,0,1.07,.29,2,.88,2.77,.58,.78,1.39,1.45,2.41,2.01,1.02,.56,2.06,1,3.1,1.31,1.05,.32,2.77,.78,5.18,1.39,3.02,.71,5.75,1.48,8.2,2.34,2.45,.85,4.53,1.89,6.24,3.1,1.72,1.22,3.05,2.76,4.02,4.62s1.44,4.14,1.44,6.85Z"/>
        <path class="cls-1" d="M166.95,58.47c-1.51,0-2.81-.49-3.91-1.46s-1.64-2.34-1.64-4.09c0-1.48,.52-2.76,1.57-3.83,1.05-1.07,2.34-1.61,3.87-1.61s2.84,.53,3.92,1.59c1.08,1.06,1.62,2.34,1.62,3.85,0,1.73-.54,3.08-1.62,4.07-1.08,.99-2.35,1.48-3.81,1.48Z"/>
      </g>
      <g>
        <path class="cls-2" d="M207.79,36.26l-1.75-4.6h-14.9l-1.75,4.7c-.68,1.83-1.27,3.07-1.75,3.71-.48,.64-1.28,.96-2.38,.96-.93,0-1.76-.34-2.48-1.03-.72-.68-1.08-1.46-1.08-2.33,0-.5,.08-1.02,.25-1.55,.17-.53,.44-1.28,.83-2.23l9.38-23.81c.27-.68,.59-1.5,.96-2.46,.37-.96,.78-1.75,1.2-2.39,.43-.63,.98-1.15,1.68-1.54,.69-.39,1.55-.59,2.56-.59s1.9,.2,2.59,.59c.69,.39,1.25,.9,1.68,1.51s.78,1.28,1.08,1.99c.29,.71,.66,1.65,1.11,2.84l9.58,23.66c.75,1.8,1.13,3.11,1.13,3.93s-.35,1.63-1.06,2.34c-.71,.71-1.56,1.06-2.56,1.06-.58,0-1.08-.1-1.5-.31-.42-.21-.77-.49-1.05-.85-.28-.36-.59-.91-.91-1.65-.32-.74-.6-1.4-.84-1.96Zm-14.7-10.18h10.95l-5.53-15.13-5.43,15.13Z"/>
        <path class="cls-2" d="M228.6,34.51h13.05c1.3,0,2.29,.27,2.98,.8,.68,.53,1.03,1.26,1.03,2.18,0,.82-.27,1.51-.81,2.08-.54,.57-1.36,.85-2.46,.85h-18.41c-1.25,0-2.23-.35-2.93-1.04-.7-.69-1.05-1.5-1.05-2.44,0-.6,.22-1.4,.68-2.39,.45-.99,.94-1.77,1.48-2.34,2.22-2.3,4.22-4.27,6-5.91,1.78-1.64,3.06-2.72,3.83-3.24,1.37-.97,2.5-1.94,3.41-2.91,.91-.98,1.6-1.98,2.08-3,.48-1.03,.71-2.03,.71-3.01,0-1.07-.25-2.02-.76-2.86s-1.2-1.5-2.08-1.96c-.87-.47-1.83-.7-2.86-.7-2.18,0-3.9,.96-5.15,2.88-.17,.25-.45,.93-.84,2.05-.39,1.12-.83,1.98-1.33,2.58-.49,.6-1.21,.9-2.16,.9-.83,0-1.53-.27-2.08-.83s-.83-1.3-.83-2.25c0-1.15,.26-2.35,.78-3.6s1.29-2.38,2.31-3.4c1.03-1.02,2.33-1.84,3.9-2.46,1.58-.63,3.42-.94,5.54-.94,2.55,0,4.73,.4,6.53,1.2,1.17,.53,2.19,1.27,3.08,2.2,.88,.93,1.57,2.01,2.06,3.24s.74,2.5,.74,3.81c0,2.07-.51,3.95-1.54,5.64-1.03,1.69-2.07,3.02-3.14,3.98-1.07,.96-2.86,2.46-5.36,4.51-2.51,2.05-4.23,3.64-5.16,4.78-.4,.45-.81,.99-1.23,1.63Z"/>
        <path class="cls-2" d="M250.63,31.86l18.83-22.53h-16.18c-1.13,0-1.99-.25-2.56-.75-.57-.5-.86-1.16-.86-1.98s.29-1.54,.86-2.06c.58-.53,1.43-.79,2.56-.79h20.86c2.7,0,4.05,1.26,4.05,3.78,0,1.2-.23,2.16-.68,2.88-.45,.72-1.36,1.88-2.73,3.48l-17.61,20.96h19.41c1.15,0,2.01,.24,2.58,.71s.85,1.14,.85,1.99-.28,1.58-.85,2.1c-.57,.52-1.43,.78-2.58,.78h-23.81c-1.62,0-2.83-.36-3.65-1.09-.82-.73-1.23-1.7-1.23-2.91,0-.42,.07-.8,.2-1.15s.31-.68,.54-.99c.23-.31,.54-.7,.94-1.17,.4-.48,.75-.89,1.05-1.24Z"/>
      </g>
      <g>
        <path d="M181.24,48.39h.22v-1.22c0-.33,0-.58,.03-.77,.02-.19,.07-.35,.14-.48,.08-.14,.19-.25,.34-.34,.15-.09,.31-.13,.5-.13,.26,0,.49,.1,.7,.29,.14,.13,.23,.29,.26,.47,.04,.19,.06,.45,.06,.79v1.38h.74c.29,0,.51,.07,.66,.2,.15,.14,.23,.31,.23,.52,0,.27-.11,.46-.32,.57-.22,.11-.52,.16-.92,.16h-.38v3.73c0,.32,.01,.56,.03,.73,.02,.17,.08,.31,.18,.42,.1,.11,.25,.16,.47,.16,.12,0,.28-.02,.48-.06,.2-.04,.36-.06,.48-.06,.16,0,.31,.07,.44,.2,.13,.13,.2,.29,.2,.49,0,.33-.18,.58-.53,.75-.36,.17-.87,.26-1.54,.26-.63,0-1.11-.11-1.44-.32-.33-.21-.54-.51-.64-.88-.1-.38-.15-.88-.15-1.51v-3.89h-.27c-.29,0-.51-.07-.67-.21-.15-.14-.23-.31-.23-.53s.08-.39,.24-.52c.16-.14,.39-.2,.7-.2Z"/>
        <path d="M194.91,52.83h-3.96c0,.46,.1,.87,.28,1.22s.42,.62,.72,.79c.3,.18,.63,.27,.99,.27,.24,0,.46-.03,.66-.08,.2-.06,.39-.15,.58-.27,.19-.12,.36-.25,.52-.39,.16-.14,.36-.33,.62-.56,.1-.09,.25-.13,.45-.13,.21,0,.38,.06,.5,.17,.13,.11,.19,.27,.19,.48,0,.18-.07,.4-.22,.64-.14,.24-.36,.48-.65,.7-.29,.23-.65,.41-1.09,.56-.44,.15-.94,.22-1.51,.22-1.3,0-2.31-.37-3.04-1.11-.72-.74-1.08-1.75-1.08-3.02,0-.6,.09-1.15,.27-1.67s.44-.95,.78-1.32,.76-.65,1.26-.84c.5-.2,1.05-.29,1.66-.29,.79,0,1.47,.17,2.04,.5,.57,.33,.99,.77,1.27,1.3s.42,1.07,.42,1.62c0,.51-.15,.84-.44,.99-.29,.15-.7,.23-1.23,.23Zm-3.96-1.15h3.68c-.05-.69-.24-1.21-.56-1.56-.32-.34-.75-.52-1.28-.52s-.92,.17-1.24,.52c-.32,.35-.52,.87-.59,1.55Z"/>
        <path d="M208.29,53.95c0,.25-.08,.52-.23,.81-.15,.29-.38,.56-.69,.82-.31,.26-.7,.47-1.17,.63s-1,.24-1.59,.24c-1.25,0-2.23-.37-2.93-1.1-.7-.73-1.05-1.71-1.05-2.94,0-.83,.16-1.57,.48-2.21,.32-.64,.79-1.13,1.4-1.48s1.34-.52,2.18-.52c.52,0,1.01,.08,1.44,.23,.44,.15,.81,.35,1.11,.59,.3,.24,.54,.5,.7,.78s.24,.53,.24,.77-.09,.45-.27,.62c-.18,.17-.4,.25-.66,.25-.17,0-.31-.04-.42-.13-.11-.09-.24-.23-.37-.42-.25-.38-.51-.66-.78-.85-.27-.19-.61-.28-1.03-.28-.6,0-1.08,.23-1.45,.7s-.55,1.11-.55,1.92c0,.38,.05,.73,.14,1.05,.09,.32,.23,.59,.41,.82,.18,.23,.39,.4,.65,.51,.25,.12,.53,.17,.83,.17,.41,0,.75-.09,1.04-.28,.29-.19,.55-.47,.77-.86,.12-.23,.26-.41,.4-.53,.14-.13,.32-.19,.53-.19,.25,0,.45,.09,.62,.28s.25,.39,.25,.6Z"/>
        <path d="M214.4,46.43v3.01c.26-.3,.51-.53,.75-.71,.24-.17,.52-.3,.81-.39,.3-.09,.62-.13,.96-.13,.51,0,.97,.11,1.37,.33,.4,.22,.71,.53,.94,.95,.14,.24,.24,.51,.29,.81,.05,.3,.07,.64,.07,1.04v3.88c0,.41-.09,.71-.28,.92-.19,.21-.43,.31-.74,.31-.67,0-1-.41-1-1.23v-3.42c0-.65-.1-1.15-.29-1.5s-.56-.52-1.1-.52c-.36,0-.69,.1-.98,.31-.29,.21-.51,.49-.65,.84-.11,.3-.16,.84-.16,1.61v2.68c0,.4-.09,.71-.27,.92-.18,.21-.43,.32-.75,.32-.67,0-1-.41-1-1.23v-8.79c0-.41,.09-.72,.26-.92,.18-.21,.42-.31,.74-.31s.57,.1,.75,.31c.18,.21,.27,.51,.27,.92Z"/>
        <path d="M225.68,56.46c-.31,0-.57-.1-.79-.3s-.33-.48-.33-.83c0-.3,.11-.56,.32-.78,.21-.22,.48-.33,.79-.33s.58,.11,.8,.32,.33,.48,.33,.78c0,.35-.11,.63-.33,.83s-.48,.3-.78,.3Z"/>
        <path d="M239.1,53.95c0,.25-.08,.52-.23,.81-.15,.29-.38,.56-.69,.82-.31,.26-.7,.47-1.17,.63s-1,.24-1.59,.24c-1.25,0-2.23-.37-2.93-1.1-.7-.73-1.05-1.71-1.05-2.94,0-.83,.16-1.57,.48-2.21,.32-.64,.79-1.13,1.4-1.48s1.34-.52,2.18-.52c.52,0,1.01,.08,1.44,.23,.44,.15,.81,.35,1.11,.59,.3,.24,.54,.5,.7,.78s.24,.53,.24,.77-.09,.45-.27,.62c-.18,.17-.4,.25-.66,.25-.17,0-.31-.04-.42-.13-.11-.09-.24-.23-.37-.42-.25-.38-.51-.66-.78-.85-.27-.19-.61-.28-1.03-.28-.6,0-1.08,.23-1.45,.7s-.55,1.11-.55,1.92c0,.38,.05,.73,.14,1.05,.09,.32,.23,.59,.41,.82,.18,.23,.39,.4,.65,.51,.25,.12,.53,.17,.83,.17,.41,0,.75-.09,1.04-.28,.29-.19,.55-.47,.77-.86,.12-.23,.26-.41,.4-.53,.14-.13,.32-.19,.53-.19,.25,0,.45,.09,.62,.28s.25,.39,.25,.6Z"/>
        <path d="M251.2,52.34c0,.6-.09,1.16-.28,1.67-.19,.51-.46,.95-.82,1.31-.36,.37-.78,.65-1.28,.84-.49,.2-1.05,.29-1.67,.29s-1.17-.1-1.66-.3c-.49-.2-.91-.48-1.27-.85s-.63-.8-.82-1.31-.28-1.06-.28-1.67,.09-1.18,.28-1.69c.19-.51,.46-.95,.81-1.31,.35-.36,.78-.64,1.28-.84,.5-.2,1.05-.29,1.66-.29s1.17,.1,1.67,.3c.5,.2,.93,.48,1.28,.85,.36,.37,.63,.8,.81,1.31s.28,1.06,.28,1.67Zm-2.03,0c0-.83-.18-1.47-.55-1.93-.36-.46-.85-.69-1.47-.69-.4,0-.75,.1-1.05,.31-.3,.21-.53,.51-.7,.91s-.24,.87-.24,1.4,.08,.99,.24,1.39c.16,.4,.39,.7,.69,.91,.3,.21,.65,.32,1.06,.32,.61,0,1.1-.23,1.47-.69,.36-.46,.55-1.1,.55-1.92Z"/>
        <path d="M256.12,56.46c-.31,0-.57-.1-.79-.3s-.33-.48-.33-.83c0-.3,.11-.56,.32-.78,.21-.22,.48-.33,.79-.33s.58,.11,.8,.32,.33,.48,.33,.78c0,.35-.11,.63-.33,.83s-.48,.3-.78,.3Z"/>
        <path d="M267.78,50.54l-3.71,4.15h3.97c.32,0,.56,.08,.73,.23,.16,.15,.24,.34,.24,.58s-.08,.41-.24,.56c-.16,.14-.4,.22-.73,.22h-5.49c-.39,0-.67-.08-.87-.25s-.29-.4-.29-.69c0-.17,.07-.35,.2-.52,.13-.18,.41-.5,.83-.97,.45-.49,.85-.94,1.21-1.34,.36-.4,.7-.78,1.01-1.12s.57-.64,.78-.89c.21-.24,.37-.45,.49-.62h-3.01c-.42,0-.73-.04-.94-.11s-.32-.27-.32-.59c0-.23,.08-.42,.24-.56,.16-.14,.39-.21,.69-.21h4.65c.43,0,.76,.06,.99,.19s.35,.35,.35,.68c0,.11-.02,.22-.07,.34-.04,.12-.09,.21-.15,.29s-.13,.16-.22,.27c-.09,.11-.21,.23-.35,.38Z"/>
        <path d="M278.05,55.31c-.49,.38-.96,.67-1.42,.86-.46,.19-.97,.29-1.54,.29-.52,0-.98-.1-1.37-.31-.39-.2-.7-.48-.91-.84-.21-.35-.32-.73-.32-1.14,0-.55,.18-1.03,.53-1.42,.35-.39,.83-.65,1.45-.79,.13-.03,.45-.1,.96-.2,.51-.1,.95-.2,1.31-.29,.36-.09,.76-.19,1.18-.32-.02-.53-.13-.93-.32-1.18-.19-.25-.59-.37-1.18-.37-.51,0-.9,.07-1.16,.22-.26,.14-.48,.36-.67,.65-.19,.29-.32,.48-.39,.57-.08,.09-.24,.14-.49,.14-.23,0-.42-.07-.59-.22s-.25-.33-.25-.56c0-.36,.13-.7,.38-1.04,.25-.34,.65-.61,1.18-.83,.53-.22,1.2-.33,2-.33,.89,0,1.59,.1,2.1,.32,.51,.21,.87,.54,1.08,1,.21,.46,.32,1.06,.32,1.81,0,.48,0,.88,0,1.21,0,.33,0,.7-.01,1.11,0,.38,.06,.78,.19,1.19,.13,.41,.19,.68,.19,.8,0,.21-.1,.4-.29,.57-.2,.17-.42,.26-.66,.26-.21,0-.41-.1-.62-.29-.2-.2-.42-.48-.65-.85Zm-.13-2.93c-.3,.11-.73,.22-1.3,.35-.57,.12-.96,.21-1.18,.27-.22,.06-.43,.17-.62,.33-.2,.17-.3,.4-.3,.69s.12,.57,.35,.78c.23,.22,.54,.32,.91,.32,.4,0,.77-.09,1.11-.26,.34-.18,.59-.4,.75-.68,.18-.31,.27-.81,.27-1.51v-.29Z"/>
      </g>
      <g>
        <rect class="cls-3" x="289.23" y="3.12" width="84.76" height="48.32" rx="9.09" ry="9.09"/>
        <polygon class="cls-1" points="357.23 50.06 357.23 64.32 343.38 50.47 357.23 50.06"/>
        <path class="cls-1" d="M354.78,36.32c2.15-.79,3.69-2.86,3.69-5.29,0-3.11-2.52-5.64-5.64-5.64s-5.64,2.52-5.64,5.64c0,2.16,1.22,4.04,3.01,4.98-1.54,.21-2.98,.72-4.26,1.48-1.68-2.66-4.25-4.71-7.29-5.73,2.01-1.4,3.33-3.73,3.33-6.37,0-4.29-3.48-7.77-7.77-7.77s-7.77,3.48-7.77,7.77c0,2.64,1.32,4.96,3.33,6.37-5.48,1.85-9.43,7.03-9.43,13.14,0,2.36,.59,4.59,1.63,6.53h40.45c.49-1.27,.76-2.65,.76-4.1,0-5.27-3.56-9.69-8.41-11.02Z"/>
      </g>
    </g>
  </g>
</svg>