<?xml version="1.0" encoding="UTF-8"?>
<svg id="Layer_2" data-name="Layer 2" xmlns="http://www.w3.org/2000/svg" viewBox="0 0 316.92 329.41">
  <defs>
    <style>
      .cls-1 {
        fill: #fea831;
      }

      .cls-2 {
        fill: #7764a6;
      }
    </style>
  </defs>
  <g id="Layer_1-2" data-name="Layer 1">
    <g>
      <path class="cls-1" d="M264.77,16.1c24.9,16.29,40,47.49,47.06,78.1,7.06,30.42,6.08,60.24,1.37,89.09-4.51,29.04-12.55,57.1-28.82,81.44-16.28,24.33-40.39,44.94-69.02,55.73-28.82,10.99-61.77,12.17-89.99,1.77-28.04-10.6-51.37-32.77-72.74-57.11C31.25,240.99,11.64,214.89,4,184.87-3.85,154.84,.08,120.89,13.8,91.65,27.53,62.41,51.05,37.88,78.9,22.97,106.54,8.05,138.7,2.76,172.03,.79,205.36-1.36,239.87,0,264.77,16.1Z"/>
      <g>
        <path class="cls-2" d="M32.76,71.86v2.38h-9.69v7.52h7.88v2.38h-7.88v10.04h-2.92v-22.31h12.6Z"/>
        <path class="cls-2" d="M39.97,79.48c.51-1,1.24-1.78,2.19-2.33,.96-.55,2.11-.83,3.48-.83v3h-.77c-3.27,0-4.9,1.77-4.9,5.31v9.54h-2.92v-17.54h2.92v2.85Z"/>
        <path class="cls-2" d="M57.4,94.46c-1.64,0-3.13-.38-4.46-1.13s-2.39-1.81-3.15-3.19c-.75-1.38-1.13-2.96-1.13-4.77s.39-3.38,1.17-4.75c.78-1.39,1.84-2.45,3.19-3.19,1.34-.73,2.85-1.1,4.52-1.1s3.15,.37,4.5,1.1c1.34,.74,2.41,1.79,3.19,3.17,.78,1.36,1.17,2.95,1.17,4.77s-.41,3.4-1.21,4.77c-.79,1.38-1.88,2.44-3.25,3.19-1.36,.75-2.88,1.13-4.54,1.13Zm0-2.56c1.05,0,2.04-.24,2.96-.73,.92-.5,1.65-1.23,2.21-2.21,.57-.98,.85-2.18,.85-3.58s-.28-2.61-.83-3.58c-.56-.98-1.29-1.71-2.19-2.19-.89-.48-1.85-.73-2.9-.73s-2.05,.24-2.94,.73c-.88,.47-1.58,1.2-2.13,2.19-.53,.97-.79,2.17-.79,3.58s.26,2.64,.77,3.63c.53,.97,1.23,1.7,2.1,2.19,.88,.47,1.83,.71,2.88,.71Z"/>
        <path class="cls-2" d="M92.09,76.32c1.38,0,2.59,.29,3.65,.85,1.07,.56,1.91,1.41,2.52,2.54,.63,1.13,.94,2.5,.94,4.13v10.33h-2.88v-9.92c0-1.75-.43-3.09-1.29-4.02-.86-.93-2.03-1.4-3.5-1.4s-2.72,.49-3.63,1.46c-.89,.97-1.33,2.38-1.33,4.21v9.67h-2.88v-9.92c0-1.75-.44-3.09-1.31-4.02-.86-.93-2.03-1.4-3.5-1.4s-2.72,.49-3.63,1.46c-.89,.97-1.33,2.38-1.33,4.21v9.67h-2.92v-17.54h2.92v2.54c.58-.92,1.35-1.61,2.31-2.1,.97-.5,2.05-.75,3.23-.75,1.47,0,2.77,.33,3.9,1,1.14,.66,1.98,1.62,2.54,2.9,.48-1.23,1.29-2.19,2.42-2.88,1.14-.68,2.4-1.02,3.77-1.02Z"/>
        <path class="cls-2" d="M125.27,71.86v16.48c0,1.85-.56,3.32-1.69,4.42-1.13,1.1-2.62,1.65-4.48,1.65s-3.39-.56-4.52-1.69c-1.13-1.13-1.69-2.65-1.69-4.58h2.92c.01,1.08,.29,1.97,.83,2.65,.55,.68,1.38,1.02,2.46,1.02s1.89-.32,2.42-.96c.54-.65,.81-1.48,.81-2.5v-16.48h2.94Z"/>
        <path class="cls-2" d="M147.34,76.63v17.54h-2.92v-2.58c-.56,.89-1.33,1.58-2.33,2.08-.99,.5-2.08,.75-3.27,.75-1.36,0-2.59-.28-3.69-.83-1.08-.57-1.94-1.42-2.56-2.54-.63-1.14-.94-2.52-.94-4.15v-10.27h2.88v9.9c0,1.72,.44,3.05,1.31,3.98,.88,.93,2.07,1.4,3.58,1.4s2.78-.48,3.67-1.44c.9-.96,1.35-2.35,1.35-4.19v-9.65h2.92Z"/>
        <path class="cls-2" d="M159.23,94.46c-1.35,0-2.56-.23-3.63-.69-1.06-.46-1.9-1.09-2.52-1.92-.61-.82-.95-1.76-1.02-2.83h3.02c.08,.88,.49,1.59,1.23,2.15,.73,.56,1.7,.83,2.9,.83,1.11,0,1.98-.24,2.63-.73,.64-.5,.96-1.13,.96-1.88s-.35-1.33-1.04-1.71c-.68-.38-1.73-.74-3.15-1.1-1.31-.34-2.37-.69-3.19-1.04-.82-.34-1.53-.86-2.13-1.56-.58-.69-.88-1.61-.88-2.75,0-.89,.26-1.71,.79-2.46,.54-.75,1.3-1.34,2.27-1.77,.98-.44,2.11-.67,3.38-.67,1.94,0,3.51,.49,4.71,1.48,1.19,.99,1.83,2.33,1.92,4.04h-2.92c-.07-.92-.44-1.65-1.1-2.21-.67-.55-1.57-.83-2.71-.83-1.04,0-1.88,.22-2.5,.67-.61,.45-.92,1.03-.92,1.75,0,.58,.19,1.06,.56,1.44s.84,.68,1.4,.9c.57,.22,1.35,.47,2.35,.75,1.26,.33,2.29,.67,3.08,1s1.46,.83,2.02,1.5c.57,.66,.86,1.52,.88,2.58,0,.96-.27,1.83-.79,2.6-.53,.77-1.28,1.37-2.25,1.81-.97,.43-2.09,.65-3.35,.65Z"/>
        <path class="cls-2" d="M174.06,79.02v10.35c0,.85,.18,1.45,.54,1.81,.36,.35,.99,.52,1.9,.52h2.13v2.46h-2.63c-1.61,0-2.83-.38-3.65-1.13-.81-.75-1.21-1.97-1.21-3.67v-10.35h-2.27v-2.4h2.27v-4.42h2.92v4.42h4.56v2.4h-4.56Z"/>
      </g>
      <g>
        <path class="cls-2" d="M25.59,215.4c12.86-10.33,22.93-18.81,30.21-25.44,7.29-6.64,13.44-13.57,18.46-20.81,5.01-7.23,7.52-14.34,7.52-21.33,0-6.58-1.6-11.77-4.79-15.56-3.18-3.8-8.31-5.71-15.4-5.71s-12.24,2.16-16.04,6.46c-3.79,4.31-5.84,10.05-6.15,17.23h-13.35c.4-11.33,3.84-20.08,10.31-26.25,6.48-6.18,14.84-9.27,25.06-9.27s18.71,2.89,24.83,8.67c6.13,5.77,9.19,13.71,9.19,23.83,0,8.41-2.51,16.58-7.52,24.52-5.02,7.95-10.71,14.93-17.08,20.96-6.38,6.03-14.52,13.04-24.44,21.04h52.23v11.54H25.59v-9.88Z"/>
        <path class="cls-2" d="M184.59,128.67h-53.31v34.63c2.33-3.23,5.78-5.89,10.33-7.96,4.55-2.08,9.46-3.13,14.73-3.13,8.4,0,15.23,1.75,20.5,5.25,5.26,3.49,9.03,7.99,11.31,13.52,2.28,5.52,3.42,11.36,3.42,17.54,0,7.28-1.37,13.81-4.1,19.58-2.74,5.77-6.92,10.32-12.54,13.67-5.61,3.35-12.57,5.02-20.88,5.02-10.63,0-19.23-2.73-25.81-8.21-6.58-5.47-10.58-12.76-12-21.88h13.52c1.32,5.78,4.1,10.29,8.35,13.52,4.25,3.24,9.61,4.85,16.1,4.85,8,0,14.02-2.4,18.06-7.21,4.05-4.8,6.08-11.16,6.08-19.06s-2.03-14-6.08-18.29c-4.04-4.3-10.02-6.46-17.92-6.46-5.36,0-10.04,1.29-14.04,3.88s-6.92,6.1-8.75,10.54h-13.04v-61.96h66.06v12.15Z"/>
        <path class="cls-2" d="M207.04,184.71c0-8.59,1.72-16.11,5.17-22.54,3.44-6.43,8.23-11.42,14.35-14.96,6.13-3.55,13.14-5.33,21.04-5.33,10.22,0,18.65,2.49,25.27,7.46,6.64,4.96,11.02,11.84,13.15,20.65h-14.88c-1.42-5.05-4.18-9.05-8.29-11.98-4.1-2.94-9.18-4.42-15.25-4.42-7.91,0-14.29,2.71-19.15,8.13-4.86,5.42-7.29,13.08-7.29,23s2.43,17.78,7.29,23.25c4.86,5.46,11.24,8.19,19.15,8.19,6.07,0,11.13-1.42,15.17-4.25,4.05-2.83,6.84-6.88,8.38-12.15h14.88c-2.22,8.5-6.68,15.31-13.35,20.44-6.68,5.11-15.04,7.67-25.06,7.67-7.91,0-14.92-1.77-21.04-5.31-6.13-3.55-10.91-8.57-14.35-15.04-3.45-6.48-5.17-14.08-5.17-22.79Z"/>
      </g>
      <g>
        <path class="cls-2" d="M46.76,249.47c1.96,0,3.64,.35,5.04,1.06,1.42,.71,2.49,1.72,3.23,3.02,.73,1.31,1.1,2.85,1.1,4.63s-.37,3.3-1.1,4.6c-.74,1.31-1.81,2.31-3.23,3.02-1.41,.71-3.08,1.06-5.04,1.06h-6.88v11.17h-3.35v-28.56h10.23Zm-.1,14.52c3.97,0,5.96-1.94,5.96-5.81s-1.99-5.85-5.96-5.85h-6.77v11.67h6.77Z"/>
        <path class="cls-2" d="M78.78,267.99h-14.79c.08,2.63,.71,4.55,1.88,5.77,1.17,1.22,2.76,1.83,4.79,1.83,1.54,0,2.78-.27,3.71-.81,.94-.55,1.68-1.42,2.21-2.58h.42l2.06,1.23c-.63,1.56-1.63,2.79-3,3.69-1.36,.89-3.16,1.33-5.4,1.33-2.08,0-3.88-.41-5.38-1.23-1.49-.82-2.64-2.06-3.46-3.73-.81-1.67-1.21-3.74-1.21-6.23s.42-4.51,1.27-6.19c.86-1.68,2.03-2.93,3.5-3.75,1.48-.83,3.18-1.25,5.08-1.25,2.76,0,4.92,.78,6.46,2.33,1.55,1.56,2.34,3.87,2.35,6.94,0,1.2-.03,2-.08,2.42l-.42,.23Zm-2.65-2.65c-.06-2.29-.57-3.96-1.54-5-.96-1.04-2.33-1.56-4.13-1.56-1.89,0-3.38,.53-4.46,1.58-1.07,1.04-1.72,2.7-1.96,4.98h12.08Z"/>
        <path class="cls-2" d="M84.98,278.03v-21.54h3.02v3.38l.42,.1c1-2.44,2.89-3.67,5.67-3.67,1.47,0,2.57,.27,3.29,.79l-.81,2.69-.4,.08c-.81-.4-1.69-.6-2.65-.6-1.72,0-3.05,.65-3.98,1.94-.92,1.29-1.38,3.39-1.38,6.27v10.56h-3.19Z"/>
        <path class="cls-2" d="M120.15,278.45c-1.79,0-3.41-.24-4.83-.73-1.43-.5-2.62-1.15-3.56-1.94-.95-.79-1.66-1.66-2.13-2.6l1.83-2.23h.48c1.78,2.97,4.51,4.46,8.21,4.46,2.15,0,3.75-.44,4.79-1.33,1.05-.9,1.58-2.15,1.58-3.75,0-.94-.18-1.74-.52-2.4-.35-.65-.92-1.21-1.71-1.67s-1.88-.86-3.25-1.21l-3.33-.81c-2.49-.59-4.32-1.55-5.5-2.85-1.18-1.3-1.77-2.96-1.77-4.98,0-1.42,.36-2.68,1.08-3.79,.73-1.11,1.8-1.98,3.21-2.6,1.42-.63,3.09-.94,5.04-.94,2.15,0,3.96,.31,5.44,.92,1.48,.6,2.67,1.5,3.56,2.71l-1.65,2.21h-.5c-.82-1-1.79-1.73-2.92-2.21-1.11-.47-2.43-.71-3.94-.71-1.97,0-3.47,.39-4.48,1.17-1.02,.77-1.52,1.82-1.52,3.17s.36,2.32,1.1,3.08c.75,.77,2.01,1.35,3.77,1.77l3.42,.81c2.78,.66,4.78,1.66,6.02,3,1.25,1.35,1.88,3.07,1.88,5.17,0,1.61-.36,3.04-1.08,4.29-.72,1.24-1.82,2.22-3.29,2.94-1.47,.71-3.29,1.06-5.44,1.06Z"/>
        <path class="cls-2" d="M139.56,278.03h-3.1v-28.56h4.98l8.67,24.19h.4l8.67-24.19h4.79v28.56h-3.19v-23.29l-.48-.08-8.44,23.38h-3.33l-8.46-23.38-.5,.08v23.29Z"/>
        <path class="cls-2" d="M180.78,278.45c-1.79,0-3.41-.24-4.83-.73-1.43-.5-2.62-1.15-3.56-1.94-.95-.79-1.66-1.66-2.13-2.6l1.83-2.23h.48c1.78,2.97,4.51,4.46,8.21,4.46,2.15,0,3.75-.44,4.79-1.33,1.05-.9,1.58-2.15,1.58-3.75,0-.94-.18-1.74-.52-2.4-.35-.65-.92-1.21-1.71-1.67s-1.88-.86-3.25-1.21l-3.33-.81c-2.49-.59-4.32-1.55-5.5-2.85-1.18-1.3-1.77-2.96-1.77-4.98,0-1.42,.36-2.68,1.08-3.79,.73-1.11,1.8-1.98,3.21-2.6,1.42-.63,3.09-.94,5.04-.94,2.15,0,3.96,.31,5.44,.92,1.48,.6,2.67,1.5,3.56,2.71l-1.65,2.21h-.5c-.82-1-1.79-1.73-2.92-2.21-1.11-.47-2.43-.71-3.94-.71-1.97,0-3.47,.39-4.48,1.17-1.02,.77-1.52,1.82-1.52,3.17s.36,2.32,1.1,3.08c.75,.77,2.01,1.35,3.77,1.77l3.42,.81c2.78,.66,4.78,1.66,6.02,3,1.25,1.35,1.88,3.07,1.88,5.17,0,1.61-.36,3.04-1.08,4.29-.72,1.24-1.82,2.22-3.29,2.94-1.47,.71-3.29,1.06-5.44,1.06Z"/>
      </g>
    </g>
  </g>
</svg>