<?xml version="1.0" encoding="UTF-8"?>
<svg id="Layer_2" data-name="Layer 2" xmlns="http://www.w3.org/2000/svg" viewBox="0 0 173.5 136.11">
  <defs>
    <style>
      .cls-1 {
        fill: #fff;
      }

      .cls-2 {
        fill: #204b9b;
      }

      .cls-3 {
        fill: #204a9b;
      }

      .cls-4 {
        fill: #1f489c;
      }

      .cls-5 {
        fill: #5163ab;
      }
    </style>
  </defs>
  <g id="Layer_1-2" data-name="Layer 1">
    <g>
      <g>
        <path class="cls-4" d="M111.16,0H5.7c-1.87,0-3.39,1.51-3.39,3.39V69.34c.23-.03,.46-.05,.69-.05H15.59c2.16,0,3.94,1.63,4.18,3.73H111.16c1.87,0,3.39-1.51,3.39-3.39V3.39c0-1.87-1.51-3.39-3.39-3.39Zm-5.23,53.39c0,4.81-3.9,8.71-8.71,8.71H19.77c-4.81,0-8.71-3.9-8.71-8.71V15.27c0-4.81,3.9-8.71,8.71-8.71H97.22c4.81,0,8.71,3.9,8.71,8.71V53.39Z"/>
        <rect class="cls-4" x="22.97" y="20.18" width="49.11" height="1.8"/>
        <rect class="cls-4" x="22.97" y="28.41" width="49.11" height="1.8"/>
        <rect class="cls-4" x="22.97" y="36.64" width="49.11" height="1.8"/>
        <path class="cls-4" d="M89.9,29.82l-14.14-9.26c-.24-.16-.54-.17-.79-.03-.25,.14-.4,.39-.4,.68v16.2c0,.29,.16,.55,.42,.69,.26,.13,.57,.11,.8-.06l3.98-2.88,3.93,5.77c.15,.22,.39,.34,.64,.34,.13,0,.26-.03,.38-.1l3.6-2.06c.18-.1,.31-.27,.36-.47,.05-.2,.02-.41-.08-.59l-3.34-5.57,4.43-1.27c.29-.08,.5-.33,.55-.63,.05-.3-.09-.6-.34-.76Zm-6.03,1.45c-.23,.07-.42,.24-.5,.46-.09,.22-.07,.47,.06,.68l3.45,5.75-2.3,1.31-3.97-5.84c-.12-.17-.3-.29-.5-.33-.05,0-.09-.01-.13-.01-.16,0-.32,.05-.45,.15l-3.41,2.46v-13.26l11.54,7.55-3.78,1.08Z"/>
        <path class="cls-4" d="M17.74,73.51v9.06c0,1.19-.96,2.15-2.15,2.15H3c-1.66,0-3-1.34-3-3v-7.36c0-.54,.14-1.05,.39-1.48,.25-.43,.6-.8,1.02-1.07,.4-.25,.87-.41,1.37-.44,.07,0,.14-.01,.22-.01H15.59c1.02,0,1.88,.71,2.1,1.67,.04,.15,.05,.32,.05,.48Z"/>
        <path class="cls-4" d="M30.34,89.09c0,.08,0,.17,0,.26,0,1.39,.18,2.74,.51,4.03v.34h-1.29v-4.63h-5.75c-1.8,0-3.25-1.46-3.25-3.25v-9.99h17.24c-4.35,2.74-7.29,7.52-7.46,12.98,0,.08,0,.17,0,.26Z"/>
        <path class="cls-4" d="M135.76,73.15v.26c-8.71,0-15.8,7.01-15.94,15.68h-2.06v-10.03h-22.63v10.03H62.22c-.09-5.57-3.05-10.46-7.47-13.24h56.41c2.12,0,4-1.07,5.12-2.7h19.48Z"/>
        <g>
          <g>
            <circle class="cls-4" cx="46.28" cy="89.35" r="2.57"/>
            <path class="cls-4" d="M60.16,89.1c-.12-6.43-4.61-11.79-10.62-13.24-1.05-.25-2.14-.39-3.26-.39s-2.21,.13-3.26,.39c-6.01,1.45-10.5,6.81-10.62,13.24,0,.08,0,.17,0,.26,0,7.67,6.22,13.88,13.88,13.88s13.89-6.22,13.89-13.88c0-.09,0-.17,0-.26Zm-13.88,7.71c-4.12,0-7.46-3.34-7.46-7.46s3.34-7.46,7.46-7.46,7.46,3.34,7.46,7.46-3.34,7.46-7.46,7.46Z"/>
          </g>
          <circle class="cls-1" cx="46.28" cy="89.35" r="2.57"/>
          <circle class="cls-5" cx="46.28" cy="89.35" r="2.57"/>
        </g>
        <g>
          <g>
            <circle class="cls-4" cx="135.76" cy="89.35" r="2.57"/>
            <path class="cls-4" d="M135.76,75.47c-7.58,0-13.75,6.08-13.88,13.63,0,.08,0,.17,0,.26,0,7.67,6.22,13.88,13.88,13.88s13.89-6.22,13.89-13.88-6.22-13.89-13.89-13.89Zm0,21.34c-4.12,0-7.46-3.34-7.46-7.46s3.34-7.46,7.46-7.46,7.46,3.34,7.46,7.46-3.34,7.46-7.46,7.46Z"/>
          </g>
          <circle class="cls-1" cx="135.76" cy="89.35" r="2.57"/>
          <circle class="cls-5" cx="135.76" cy="89.35" r="2.57"/>
        </g>
        <path class="cls-4" d="M168.74,52.73c-.05-.1-.1-.19-.15-.28-4.43-7.45-8.43-15.79-13.14-22.07-.55-.73-1.19-1.37-1.91-1.92-1.78-1.38-3.02-2.49-7.9-3.25-.57-.09-1.14-.13-1.71-.13h-22.64c-2.09,0-3.78,1.69-3.78,3.78v41.47l21.55,.24c.78,0,1.55,.19,2.25,.53,5.34,2.66,9.37,8.48,9.37,8.48h20.31v-18.51c-.25-3.05-.21-4.03-2.25-8.34Zm-3.41,6.83c0,.43-.03,.87-.12,1.29-.91,4.4-5.34,2.78-6.31,2.54-1.03-.26-22.63-6.17-27.51-7.71-4.88-1.54-5.91-5.14-5.91-7.2V30.98h21.6c6.17,0,7.46,1.8,8.74,3.6,.87,1.22,9.51,14.14,9.51,17.23v7.74Z"/>
        <path class="cls-4" d="M152.99,87.29s-.26-3.34-1.54-5.66h14.4v4.37l-12.86,1.29Z"/>
        <path class="cls-4" d="M154.28,89.09l11.57-1.03s.26,.26,0,1.29l-11.57-.26Z"/>
        <path class="cls-4" d="M167.9,89.35s-.26-6.17-.26-6.69-.26-1.29,1.54-1.29h3.86s1.03,3.86,0,7.97h-5.14Z"/>
        <rect class="cls-4" x="96.94" y="80.87" width="19.03" height="11.83" rx=".49" ry=".49"/>
      </g>
      <g>
        <path class="cls-3" d="M8.37,121.68H4.08l-.69,2.03H.46l4.16-11.5h3.24l4.16,11.5h-2.97l-.69-2.03Zm-.72-2.16l-1.43-4.21-1.41,4.21h2.84Z"/>
        <path class="cls-3" d="M13.42,121.06c1.07-.88,1.91-1.61,2.53-2.18,.62-.57,1.14-1.16,1.57-1.79,.43-.62,.64-1.23,.64-1.82,0-.45-.1-.8-.31-1.05-.21-.25-.52-.38-.93-.38s-.74,.16-.98,.47c-.24,.31-.35,.75-.35,1.32h-2.7c.02-.93,.22-1.7,.6-2.33s.87-1.08,1.49-1.38c.62-.29,1.3-.44,2.06-.44,1.3,0,2.28,.33,2.94,1,.66,.67,.99,1.54,.99,2.61,0,1.17-.4,2.25-1.2,3.25-.8,1-1.81,1.97-3.05,2.93h4.42v2.28H12.91v-2.08c.37-.3,.54-.43,.51-.41Z"/>
        <path class="cls-3" d="M25.63,121.42h4.95v2.29h-8.13v-2.13l4.92-7.08h-4.92v-2.29h8.13v2.13l-4.95,7.08Z"/>
        <path class="cls-3" d="M44.16,112.21v2.25h-3.05v9.26h-2.8v-9.26h-3.05v-2.25h8.9Z"/>
        <path class="cls-3" d="M48.37,114.45v2.33h3.75v2.16h-3.75v2.52h4.24v2.24h-7.05v-11.5h7.05v2.25h-4.24Z"/>
        <path class="cls-3" d="M54.7,114.9c.49-.89,1.18-1.58,2.06-2.08s1.88-.75,2.99-.75c1.37,0,2.53,.36,3.51,1.08,.97,.72,1.62,1.7,1.95,2.95h-3.08c-.23-.48-.55-.85-.98-1.1-.42-.25-.9-.38-1.43-.38-.86,0-1.56,.3-2.1,.9-.54,.6-.8,1.4-.8,2.41s.27,1.81,.8,2.41,1.23,.9,2.1,.9c.53,0,1.01-.13,1.43-.38,.42-.25,.75-.62,.98-1.1h3.08c-.33,1.25-.98,2.23-1.95,2.94-.97,.72-2.14,1.07-3.51,1.07-1.11,0-2.11-.25-2.99-.75s-1.57-1.19-2.06-2.07-.74-1.9-.74-3.03,.25-2.15,.74-3.04Z"/>
        <path class="cls-3" d="M76.89,112.21v11.5h-2.8v-4.74h-4.36v4.74h-2.8v-11.5h2.8v4.51h4.36v-4.51h2.8Z"/>
        <path class="cls-3" d="M84.28,123.42c-.67-.27-1.2-.68-1.6-1.21-.4-.54-.61-1.18-.63-1.93h2.98c.04,.43,.19,.75,.44,.98,.25,.22,.58,.34,.98,.34s.74-.1,.98-.29c.24-.19,.36-.46,.36-.79,0-.28-.1-.52-.29-.7s-.43-.34-.7-.46c-.28-.12-.68-.26-1.19-.41-.74-.23-1.35-.46-1.82-.69-.47-.23-.87-.57-1.21-1.02-.34-.45-.51-1.03-.51-1.75,0-1.07,.39-1.91,1.16-2.52,.78-.61,1.79-.91,3.03-.91s2.29,.3,3.06,.91c.78,.61,1.19,1.45,1.25,2.53h-3.03c-.02-.37-.16-.66-.41-.88-.25-.21-.57-.32-.97-.32-.34,0-.61,.09-.82,.27s-.31,.44-.31,.78c0,.37,.17,.66,.52,.87,.35,.21,.9,.43,1.64,.67,.74,.25,1.35,.49,1.81,.72,.46,.23,.87,.56,1.2,1,.34,.44,.51,1,.51,1.69s-.17,1.25-.5,1.79c-.33,.54-.82,.96-1.45,1.28-.63,.32-1.38,.48-2.24,.48s-1.59-.14-2.26-.41Z"/>
        <path class="cls-3" d="M94.92,123.07c-.9-.5-1.62-1.2-2.15-2.11-.53-.9-.8-1.91-.8-3.04s.27-2.14,.8-3.03c.53-.9,1.25-1.59,2.15-2.1,.9-.5,1.89-.75,2.97-.75s2.07,.25,2.97,.75c.9,.5,1.61,1.2,2.13,2.1,.52,.9,.78,1.91,.78,3.03s-.26,2.14-.79,3.04c-.52,.9-1.23,1.6-2.13,2.11-.9,.5-1.88,.75-2.97,.75s-2.07-.25-2.97-.75Zm5.18-2.72c.55-.61,.83-1.42,.83-2.43s-.28-1.83-.83-2.43-1.29-.91-2.2-.91-1.67,.3-2.22,.9c-.55,.6-.83,1.41-.83,2.44s.28,1.83,.83,2.43c.55,.61,1.29,.91,2.22,.91s1.65-.31,2.2-.92Z"/>
        <path class="cls-3" d="M108.14,121.55h3.67v2.16h-6.47v-11.5h2.8v9.34Z"/>
        <path class="cls-3" d="M115.9,112.21v6.88c0,.69,.17,1.22,.51,1.59,.34,.37,.84,.56,1.49,.56s1.16-.19,1.51-.56,.52-.9,.52-1.59v-6.88h2.8v6.87c0,1.03-.22,1.9-.66,2.61-.44,.71-1.02,1.25-1.76,1.61s-1.56,.54-2.47,.54-1.72-.18-2.43-.53c-.72-.35-1.28-.89-1.7-1.61-.42-.72-.62-1.59-.62-2.61v-6.87h2.8Z"/>
        <path class="cls-3" d="M132.98,112.21v2.25h-3.05v9.26h-2.8v-9.26h-3.05v-2.25h8.9Z"/>
        <path class="cls-3" d="M137.19,112.21v11.5h-2.8v-11.5h2.8Z"/>
        <path class="cls-3" d="M141.69,123.07c-.9-.5-1.62-1.2-2.15-2.11s-.79-1.91-.79-3.04,.26-2.14,.79-3.03c.53-.9,1.25-1.59,2.15-2.1,.9-.5,1.89-.75,2.97-.75s2.07,.25,2.97,.75c.9,.5,1.61,1.2,2.13,2.1,.52,.9,.78,1.91,.78,3.03s-.26,2.14-.79,3.04-1.23,1.6-2.13,2.11c-.9,.5-1.88,.75-2.97,.75s-2.07-.25-2.97-.75Zm5.18-2.72c.55-.61,.83-1.42,.83-2.43s-.28-1.83-.83-2.43-1.29-.91-2.2-.91-1.67,.3-2.22,.9c-.55,.6-.83,1.41-.83,2.44s.28,1.83,.83,2.43,1.29,.91,2.22,.91,1.65-.31,2.2-.92Z"/>
        <path class="cls-3" d="M162.4,123.71h-2.8l-4.69-7.1v7.1h-2.8v-11.5h2.8l4.69,7.13v-7.13h2.8v11.5Z"/>
        <path class="cls-3" d="M166.33,123.42c-.67-.27-1.2-.68-1.6-1.21-.4-.54-.61-1.18-.63-1.93h2.98c.04,.43,.19,.75,.44,.98,.25,.22,.58,.34,.98,.34s.74-.1,.98-.29c.24-.19,.36-.46,.36-.79,0-.28-.1-.52-.29-.7s-.43-.34-.7-.46c-.28-.12-.67-.26-1.19-.41-.74-.23-1.35-.46-1.82-.69s-.87-.57-1.21-1.02c-.34-.45-.51-1.03-.51-1.75,0-1.07,.39-1.91,1.16-2.52,.78-.61,1.79-.91,3.03-.91s2.29,.3,3.06,.91c.78,.61,1.19,1.45,1.25,2.53h-3.03c-.02-.37-.16-.66-.41-.88s-.57-.32-.97-.32c-.34,0-.61,.09-.82,.27-.21,.18-.31,.44-.31,.78,0,.37,.17,.66,.52,.87,.35,.21,.9,.43,1.64,.67,.74,.25,1.35,.49,1.81,.72s.87,.56,1.2,1c.34,.44,.51,1,.51,1.69s-.17,1.25-.5,1.79c-.33,.54-.82,.96-1.45,1.28-.63,.32-1.38,.48-2.25,.48s-1.59-.14-2.26-.41Z"/>
      </g>
      <g>
        <path class="cls-2" d="M25.32,130.23v5.82h-1.17v-5.82h1.17Z"/>
        <path class="cls-2" d="M33.53,136.05h-1.17l-2.64-4v4h-1.17v-5.83h1.17l2.64,4v-4h1.17v5.83Z"/>
        <path class="cls-2" d="M41.75,136.05h-1.17l-2.64-4v4h-1.17v-5.83h1.17l2.64,4v-4h1.17v5.83Z"/>
        <path class="cls-2" d="M46.19,135.73c-.46-.26-.82-.61-1.08-1.06-.27-.45-.4-.97-.4-1.54s.13-1.08,.4-1.53c.27-.45,.63-.81,1.08-1.06,.46-.26,.96-.38,1.5-.38s1.05,.13,1.51,.38c.45,.26,.81,.61,1.08,1.06,.26,.45,.4,.96,.4,1.53s-.13,1.09-.4,1.54c-.26,.45-.62,.81-1.08,1.06s-.96,.38-1.5,.38-1.05-.13-1.5-.38Zm2.43-.9c.27-.16,.48-.39,.63-.68,.15-.29,.23-.64,.23-1.03s-.07-.73-.23-1.02c-.15-.29-.36-.52-.63-.67-.27-.16-.58-.23-.93-.23s-.66,.08-.93,.23c-.27,.16-.48,.38-.63,.67-.15,.29-.23,.63-.23,1.02s.07,.73,.23,1.03c.15,.29,.36,.52,.63,.68,.27,.16,.58,.24,.93,.24s.66-.08,.93-.24Z"/>
        <path class="cls-2" d="M58.85,130.23l-2.14,5.82h-1.42l-2.14-5.82h1.25l1.6,4.63,1.59-4.63h1.24Z"/>
        <path class="cls-2" d="M65.2,134.94h-2.32l-.38,1.11h-1.23l2.09-5.83h1.36l2.09,5.83h-1.23l-.38-1.11Zm-.32-.93l-.84-2.44-.84,2.44h1.69Z"/>
        <path class="cls-2" d="M73.65,130.23v.94h-1.55v4.88h-1.17v-4.88h-1.55v-.94h4.27Z"/>
        <path class="cls-2" d="M77.76,130.23v5.82h-1.17v-5.82h1.17Z"/>
        <path class="cls-2" d="M82.2,135.73c-.46-.26-.82-.61-1.08-1.06-.27-.45-.4-.97-.4-1.54s.13-1.08,.4-1.53c.27-.45,.63-.81,1.08-1.06,.46-.26,.96-.38,1.5-.38s1.05,.13,1.51,.38,.81,.61,1.08,1.06c.26,.45,.4,.96,.4,1.53s-.13,1.09-.4,1.54c-.26,.45-.62,.81-1.08,1.06-.46,.26-.96,.38-1.5,.38s-1.05-.13-1.5-.38Zm2.43-.9c.27-.16,.48-.39,.63-.68,.15-.29,.22-.64,.22-1.03s-.07-.73-.22-1.02c-.15-.29-.36-.52-.63-.67-.27-.16-.58-.23-.93-.23s-.66,.08-.93,.23c-.27,.16-.48,.38-.63,.67-.15,.29-.22,.63-.22,1.02s.07,.73,.22,1.03c.15,.29,.36,.52,.63,.68s.58,.24,.93,.24,.66-.08,.93-.24Z"/>
        <path class="cls-2" d="M94.61,136.05h-1.17l-2.64-4v4h-1.17v-5.83h1.17l2.64,4v-4h1.17v5.83Z"/>
        <path class="cls-2" d="M103.08,135.12h1.92v.93h-3.09v-5.82h1.17v4.9Z"/>
        <path class="cls-2" d="M109,131.17v1.46h1.96v.93h-1.96v1.54h2.21v.95h-3.38v-5.83h3.38v.95h-2.21Z"/>
        <path class="cls-2" d="M117.92,134.94h-2.32l-.38,1.11h-1.23l2.09-5.83h1.36l2.09,5.83h-1.23l-.38-1.11Zm-.32-.93l-.84-2.44-.84,2.44h1.68Z"/>
        <path class="cls-2" d="M126.06,130.59c.46,.24,.82,.58,1.08,1.02s.38,.96,.38,1.54-.13,1.09-.38,1.53c-.25,.44-.61,.77-1.08,1.01-.46,.24-1,.36-1.61,.36h-2.03v-5.82h2.03c.61,0,1.15,.12,1.61,.36Zm-.24,3.97c.33-.33,.5-.8,.5-1.41s-.17-1.08-.5-1.42c-.33-.34-.81-.51-1.42-.51h-.83v3.85h.83c.61,0,1.08-.17,1.42-.5Z"/>
        <path class="cls-2" d="M131.64,131.17v1.46h1.96v.93h-1.96v1.54h2.21v.95h-3.38v-5.83h3.38v.95h-2.21Z"/>
        <path class="cls-2" d="M140,136.05l-1.28-2.27h-.55v2.27h-1.17v-5.82h2.19c.45,0,.83,.08,1.15,.24,.32,.16,.56,.37,.71,.64,.16,.27,.24,.57,.24,.91,0,.38-.11,.73-.33,1.04-.22,.31-.55,.52-.99,.64l1.39,2.36h-1.35Zm-1.84-3.14h.98c.32,0,.55-.08,.71-.23s.23-.37,.23-.64-.08-.47-.23-.62c-.16-.15-.39-.22-.71-.22h-.98v1.71Z"/>
        <path class="cls-2" d="M145.34,135.9c-.33-.14-.58-.34-.77-.6-.19-.26-.29-.57-.29-.93h1.25c.02,.24,.1,.43,.25,.57s.36,.21,.63,.21,.49-.07,.64-.2c.16-.13,.23-.3,.23-.51,0-.17-.05-.31-.16-.43-.11-.11-.24-.2-.4-.26-.16-.06-.38-.13-.65-.21-.38-.11-.69-.22-.92-.33s-.44-.27-.61-.49c-.17-.22-.25-.51-.25-.88,0-.34,.09-.65,.26-.9,.17-.26,.41-.45,.73-.59,.31-.14,.67-.2,1.07-.2,.6,0,1.09,.15,1.46,.44,.38,.29,.58,.7,.62,1.22h-1.28c-.01-.2-.1-.37-.25-.5s-.37-.2-.63-.2c-.23,0-.41,.06-.55,.17s-.2,.29-.2,.51c0,.16,.05,.29,.15,.39s.23,.19,.38,.25c.15,.06,.37,.14,.65,.22,.38,.11,.69,.22,.93,.33s.44,.28,.62,.5c.17,.22,.26,.51,.26,.88,0,.31-.08,.6-.24,.87-.16,.27-.4,.48-.71,.64-.31,.16-.68,.24-1.11,.24s-.77-.07-1.1-.21Z"/>
      </g>
    </g>
  </g>
</svg>