<?xml version="1.0" encoding="UTF-8"?>
<svg id="Layer_2" data-name="Layer 2" xmlns="http://www.w3.org/2000/svg" viewBox="0 0 360.35 65.51">
  <defs>
    <style>
      .cls-1 {
        fill: #fff;
      }

      .cls-2 {
        fill: #204b9b;
      }

      .cls-3 {
        fill: #204a9b;
      }

      .cls-4 {
        fill: #1f489c;
      }

      .cls-5 {
        fill: #5163ab;
      }
    </style>
  </defs>
  <g id="Layer_1-2" data-name="Layer 1">
    <g>
      <g>
        <path class="cls-4" d="M320.79,0h-66.92c-1.19,0-2.15,.96-2.15,2.15V44c.14-.02,.29-.03,.44-.03h7.98c1.37,0,2.5,1.04,2.66,2.37h57.99c1.19,0,2.15-.96,2.15-2.15V2.15c0-1.19-.96-2.15-2.15-2.15Zm-3.32,33.88c0,3.05-2.48,5.53-5.53,5.53h-49.15c-3.05,0-5.53-2.47-5.53-5.53V9.69c0-3.05,2.47-5.53,5.53-5.53h49.15c3.05,0,5.53,2.48,5.53,5.53v24.19Z"/>
        <rect class="cls-4" x="264.83" y="12.81" width="31.16" height="1.14"/>
        <rect class="cls-4" x="264.83" y="18.03" width="31.16" height="1.14"/>
        <rect class="cls-4" x="264.83" y="23.25" width="31.16" height="1.14"/>
        <path class="cls-4" d="M307.3,18.92l-8.97-5.87c-.15-.1-.34-.11-.5-.02-.16,.09-.26,.25-.26,.43v10.28c0,.18,.1,.35,.27,.43,.16,.08,.36,.07,.51-.04l2.53-1.83,2.49,3.66c.09,.14,.25,.21,.41,.21,.08,0,.17-.02,.24-.07l2.28-1.3c.11-.07,.2-.17,.23-.3,.03-.13,.01-.26-.05-.38l-2.12-3.53,2.81-.8c.18-.05,.32-.21,.35-.4,.03-.19-.06-.38-.22-.48Zm-3.83,.92c-.15,.04-.26,.15-.32,.29-.06,.14-.04,.3,.04,.43l2.19,3.65-1.46,.83-2.52-3.7c-.08-.11-.19-.18-.32-.21-.03,0-.06,0-.08,0-.1,0-.2,.03-.29,.09l-2.16,1.56V14.37l7.32,4.79-2.4,.69Z"/>
        <path class="cls-4" d="M261.51,46.64v5.75c0,.76-.61,1.37-1.37,1.37h-7.99c-1.05,0-1.91-.85-1.91-1.91v-4.67c0-.34,.09-.66,.25-.94,.16-.28,.38-.51,.65-.68,.26-.16,.55-.26,.87-.28,.05,0,.09,0,.14,0h7.99c.65,0,1.19,.45,1.33,1.06,.02,.1,.03,.2,.03,.31Z"/>
        <path class="cls-4" d="M269.5,56.54c0,.05,0,.11,0,.16,0,.88,.11,1.74,.33,2.56v.22h-.82v-2.94h-3.65c-1.14,0-2.06-.92-2.06-2.06v-6.34h10.94c-2.76,1.74-4.62,4.77-4.73,8.24,0,.05,0,.11,0,.16Z"/>
        <path class="cls-4" d="M336.4,46.42v.16c-5.52,0-10.03,4.45-10.11,9.95h-1.31v-6.36h-14.36v6.36h-20.89c-.06-3.54-1.94-6.64-4.74-8.4h35.79c1.35,0,2.54-.68,3.25-1.71h12.36Z"/>
        <g>
          <g>
            <circle class="cls-4" cx="279.62" cy="56.7" r="1.63"/>
            <path class="cls-4" d="M288.43,56.54c-.07-4.08-2.92-7.48-6.74-8.4-.66-.16-1.36-.24-2.07-.24s-1.41,.08-2.07,.24c-3.82,.92-6.67,4.32-6.74,8.4,0,.05,0,.11,0,.16,0,4.87,3.94,8.81,8.81,8.81s8.81-3.94,8.81-8.81c0-.06,0-.11,0-.16Zm-8.81,4.89c-2.61,0-4.73-2.12-4.73-4.73s2.12-4.73,4.73-4.73,4.73,2.12,4.73,4.73-2.12,4.73-4.73,4.73Z"/>
          </g>
          <circle class="cls-1" cx="279.62" cy="56.7" r="1.63"/>
          <circle class="cls-5" cx="279.62" cy="56.7" r="1.63"/>
        </g>
        <g>
          <g>
            <circle class="cls-4" cx="336.4" cy="56.7" r="1.63"/>
            <path class="cls-4" d="M336.4,47.89c-4.81,0-8.72,3.86-8.81,8.65,0,.05,0,.11,0,.16,0,4.87,3.94,8.81,8.81,8.81s8.81-3.94,8.81-8.81-3.95-8.81-8.81-8.81Zm0,13.54c-2.61,0-4.73-2.12-4.73-4.73s2.12-4.73,4.73-4.73,4.73,2.12,4.73,4.73-2.12,4.73-4.73,4.73Z"/>
          </g>
          <circle class="cls-1" cx="336.4" cy="56.7" r="1.63"/>
          <circle class="cls-5" cx="336.4" cy="56.7" r="1.63"/>
        </g>
        <path class="cls-4" d="M357.33,33.46c-.03-.06-.06-.12-.1-.18-2.81-4.73-5.35-10.02-8.34-14-.35-.46-.76-.87-1.21-1.22-1.13-.87-1.92-1.58-5.02-2.07-.36-.06-.72-.08-1.08-.08h-14.37c-1.33,0-2.4,1.07-2.4,2.4v26.32l13.68,.15c.49,0,.98,.12,1.43,.34,3.39,1.69,5.95,5.38,5.95,5.38h12.89v-11.75c-.16-1.94-.14-2.56-1.42-5.29Zm-2.17,4.33c0,.27-.02,.55-.08,.82-.58,2.79-3.39,1.76-4,1.61-.65-.16-14.36-3.92-17.46-4.9-3.1-.98-3.75-3.26-3.75-4.57v-11.1h13.71c3.92,0,4.73,1.14,5.55,2.28,.55,.77,6.04,8.97,6.04,10.93v4.91Z"/>
        <path class="cls-4" d="M347.33,55.39s-.16-2.12-.98-3.59h9.14v2.77l-8.16,.82Z"/>
        <path class="cls-4" d="M348.15,56.54l7.34-.65s.16,.16,0,.82l-7.34-.16Z"/>
        <path class="cls-4" d="M356.79,56.7s-.16-3.92-.16-4.24-.16-.82,.98-.82h2.45s.65,2.45,0,5.06h-3.26Z"/>
        <rect class="cls-4" x="311.76" y="51.31" width="12.07" height="7.51" rx=".31" ry=".31"/>
      </g>
      <g>
        <path class="cls-3" d="M10.49,28.79H4.8l-.91,2.69H0l5.52-15.25h4.3l5.52,15.25h-3.93l-.91-2.69Zm-.96-2.87l-1.89-5.58-1.87,5.58h3.76Z"/>
        <path class="cls-3" d="M17.18,27.96c1.42-1.17,2.54-2.14,3.36-2.89s1.51-1.54,2.07-2.37,.85-1.63,.85-2.41c0-.59-.14-1.06-.41-1.39-.28-.33-.69-.5-1.24-.5s-.98,.21-1.29,.62c-.31,.41-.47,1-.47,1.75h-3.58c.03-1.23,.29-2.26,.79-3.08,.5-.82,1.16-1.43,1.98-1.82,.82-.39,1.73-.59,2.73-.59,1.72,0,3.02,.44,3.9,1.32,.88,.88,1.31,2.03,1.31,3.45,0,1.55-.53,2.99-1.59,4.31-1.06,1.33-2.4,2.62-4.04,3.88h5.86v3.02h-10.9v-2.76c.49-.39,.72-.57,.67-.54Z"/>
        <path class="cls-3" d="M33.36,28.44h6.56v3.04h-10.77v-2.82l6.52-9.38h-6.52v-3.04h10.77v2.82l-6.56,9.38Z"/>
        <path class="cls-3" d="M57.92,16.23v2.98h-4.04v12.27h-3.71v-12.27h-4.04v-2.98h11.79Z"/>
        <path class="cls-3" d="M63.51,19.21v3.08h4.97v2.87h-4.97v3.34h5.63v2.98h-9.34v-15.25h9.34v2.98h-5.63Z"/>
        <path class="cls-3" d="M71.89,19.8c.65-1.18,1.56-2.1,2.73-2.76,1.16-.66,2.49-.99,3.96-.99,1.81,0,3.36,.48,4.65,1.43,1.29,.96,2.15,2.26,2.58,3.91h-4.08c-.3-.64-.73-1.12-1.29-1.45-.56-.33-1.19-.5-1.9-.5-1.14,0-2.07,.4-2.78,1.19-.71,.8-1.06,1.86-1.06,3.19s.35,2.4,1.06,3.19c.71,.8,1.64,1.19,2.78,1.19,.71,0,1.34-.17,1.9-.5,.56-.33,.99-.82,1.29-1.46h4.08c-.43,1.65-1.3,2.95-2.58,3.9-1.29,.95-2.84,1.42-4.65,1.42-1.48,0-2.8-.33-3.96-.99-1.17-.66-2.07-1.57-2.73-2.75-.65-1.17-.98-2.51-.98-4.02s.33-2.85,.98-4.03Z"/>
        <path class="cls-3" d="M101.3,16.23v15.25h-3.71v-6.28h-5.78v6.28h-3.71v-15.25h3.71v5.97h5.78v-5.97h3.71Z"/>
        <path class="cls-3" d="M111.09,31.09c-.88-.36-1.59-.9-2.12-1.61-.53-.71-.81-1.56-.84-2.56h3.95c.06,.56,.25,1,.59,1.29,.33,.3,.77,.44,1.3,.44s.98-.13,1.3-.38c.32-.25,.48-.6,.48-1.05,0-.38-.13-.69-.38-.93s-.56-.45-.93-.61c-.37-.16-.89-.34-1.57-.54-.98-.3-1.79-.61-2.41-.91-.62-.3-1.16-.75-1.61-1.35-.45-.59-.67-1.37-.67-2.32,0-1.42,.51-2.53,1.54-3.33,1.03-.8,2.37-1.2,4.02-1.2s3.03,.4,4.06,1.2c1.03,.8,1.58,1.92,1.65,3.36h-4.02c-.03-.49-.21-.88-.54-1.16-.33-.28-.76-.42-1.28-.42-.45,0-.81,.12-1.09,.36s-.41,.58-.41,1.03c0,.49,.23,.88,.7,1.15,.46,.28,1.19,.57,2.17,.89,.98,.33,1.78,.65,2.4,.96,.62,.3,1.15,.75,1.6,1.33,.45,.58,.67,1.33,.67,2.24s-.22,1.66-.66,2.37c-.44,.71-1.08,1.27-1.92,1.69-.84,.42-1.83,.63-2.98,.63s-2.11-.18-3-.54Z"/>
        <path class="cls-3" d="M125.2,30.63c-1.19-.67-2.14-1.6-2.85-2.79-.7-1.19-1.05-2.54-1.05-4.03s.35-2.83,1.05-4.02c.7-1.19,1.65-2.11,2.85-2.78,1.19-.67,2.51-1,3.94-1s2.75,.33,3.94,1c1.19,.67,2.14,1.59,2.82,2.78,.69,1.19,1.03,2.53,1.03,4.02s-.35,2.83-1.04,4.03c-.7,1.19-1.64,2.12-2.82,2.79-1.19,.67-2.5,1-3.93,1s-2.75-.33-3.94-1Zm6.86-3.61c.73-.81,1.1-1.88,1.1-3.21s-.37-2.42-1.1-3.23c-.73-.8-1.7-1.21-2.92-1.21s-2.21,.4-2.94,1.19c-.73,.8-1.1,1.87-1.1,3.24s.37,2.42,1.1,3.23c.73,.8,1.71,1.21,2.94,1.21s2.19-.41,2.92-1.22Z"/>
        <path class="cls-3" d="M142.71,28.61h4.86v2.87h-8.58v-15.25h3.71v12.38Z"/>
        <path class="cls-3" d="M153.01,16.23v9.12c0,.91,.22,1.61,.67,2.11,.45,.49,1.11,.74,1.98,.74s1.53-.25,2-.74,.7-1.19,.7-2.11v-9.12h3.71v9.1c0,1.36-.29,2.51-.87,3.45-.58,.94-1.36,1.65-2.33,2.13s-2.07,.72-3.27,.72-2.28-.23-3.23-.71-1.7-1.18-2.25-2.13c-.55-.95-.83-2.1-.83-3.46v-9.1h3.71Z"/>
        <path class="cls-3" d="M175.64,16.23v2.98h-4.04v12.27h-3.71v-12.27h-4.04v-2.98h11.79Z"/>
        <path class="cls-3" d="M181.22,16.23v15.25h-3.71v-15.25h3.71Z"/>
        <path class="cls-3" d="M187.18,30.63c-1.19-.67-2.14-1.6-2.85-2.79-.7-1.19-1.05-2.54-1.05-4.03s.35-2.83,1.05-4.02c.7-1.19,1.65-2.11,2.85-2.78,1.19-.67,2.51-1,3.94-1s2.75,.33,3.94,1c1.19,.67,2.14,1.59,2.82,2.78,.69,1.19,1.03,2.53,1.03,4.02s-.35,2.83-1.04,4.03c-.7,1.19-1.64,2.12-2.82,2.79-1.19,.67-2.5,1-3.93,1s-2.75-.33-3.94-1Zm6.86-3.61c.73-.81,1.1-1.88,1.1-3.21s-.37-2.42-1.1-3.23c-.73-.8-1.71-1.21-2.92-1.21s-2.21,.4-2.94,1.19-1.1,1.87-1.1,3.24,.37,2.42,1.1,3.23c.73,.8,1.71,1.21,2.94,1.21s2.19-.41,2.92-1.22Z"/>
        <path class="cls-3" d="M214.63,31.48h-3.71l-6.21-9.4v9.4h-3.71v-15.25h3.71l6.21,9.45v-9.45h3.71v15.25Z"/>
        <path class="cls-3" d="M219.84,31.09c-.88-.36-1.59-.9-2.12-1.61-.53-.71-.81-1.56-.84-2.56h3.95c.06,.56,.25,1,.59,1.29s.77,.44,1.3,.44,.98-.13,1.3-.38c.32-.25,.48-.6,.48-1.05,0-.38-.13-.69-.38-.93s-.56-.45-.93-.61c-.37-.16-.89-.34-1.57-.54-.99-.3-1.79-.61-2.41-.91-.62-.3-1.16-.75-1.61-1.35-.45-.59-.67-1.37-.67-2.32,0-1.42,.51-2.53,1.54-3.33,1.03-.8,2.37-1.2,4.02-1.2s3.03,.4,4.06,1.2c1.03,.8,1.58,1.92,1.65,3.36h-4.02c-.03-.49-.21-.88-.54-1.16-.33-.28-.76-.42-1.28-.42-.45,0-.81,.12-1.09,.36-.28,.24-.41,.58-.41,1.03,0,.49,.23,.88,.7,1.15,.46,.28,1.19,.57,2.17,.89,.98,.33,1.78,.65,2.4,.96,.62,.3,1.15,.75,1.6,1.33,.45,.58,.67,1.33,.67,2.24s-.22,1.66-.66,2.37-1.08,1.27-1.92,1.69c-.84,.42-1.83,.63-2.98,.63s-2.11-.18-3-.54Z"/>
      </g>
      <g>
        <path class="cls-2" d="M108.3,38.67v5.67h-1.14v-5.67h1.14Z"/>
        <path class="cls-2" d="M116.31,44.35h-1.14l-2.58-3.89v3.89h-1.14v-5.68h1.14l2.58,3.9v-3.9h1.14v5.68Z"/>
        <path class="cls-2" d="M124.32,44.35h-1.14l-2.58-3.89v3.89h-1.14v-5.68h1.14l2.58,3.9v-3.9h1.14v5.68Z"/>
        <path class="cls-2" d="M128.64,44.03c-.44-.25-.8-.59-1.06-1.04-.26-.44-.39-.94-.39-1.5s.13-1.05,.39-1.49c.26-.44,.61-.79,1.06-1.04,.44-.25,.93-.37,1.46-.37s1.03,.12,1.47,.37c.44,.25,.79,.59,1.05,1.04,.26,.44,.39,.94,.39,1.49s-.13,1.06-.39,1.5c-.26,.44-.61,.79-1.05,1.04s-.93,.37-1.46,.37-1.02-.12-1.46-.37Zm2.37-.87c.26-.15,.46-.38,.61-.66,.15-.29,.22-.62,.22-1s-.07-.71-.22-1c-.15-.28-.35-.5-.61-.65-.26-.15-.56-.23-.9-.23s-.64,.08-.91,.23c-.26,.15-.47,.37-.61,.65-.15,.28-.22,.62-.22,1s.07,.71,.22,1c.15,.29,.35,.51,.61,.66,.26,.15,.56,.23,.91,.23s.64-.08,.9-.23Z"/>
        <path class="cls-2" d="M140.98,38.67l-2.08,5.67h-1.38l-2.08-5.67h1.22l1.56,4.51,1.55-4.51h1.21Z"/>
        <path class="cls-2" d="M147.18,43.27h-2.26l-.37,1.08h-1.2l2.04-5.68h1.33l2.04,5.68h-1.2l-.37-1.08Zm-.31-.91l-.82-2.37-.82,2.37h1.64Z"/>
        <path class="cls-2" d="M155.41,38.67v.92h-1.51v4.76h-1.14v-4.76h-1.51v-.92h4.16Z"/>
        <path class="cls-2" d="M159.41,38.67v5.67h-1.14v-5.67h1.14Z"/>
        <path class="cls-2" d="M163.74,44.03c-.44-.25-.8-.59-1.06-1.04-.26-.44-.39-.94-.39-1.5s.13-1.05,.39-1.49c.26-.44,.61-.79,1.06-1.04,.44-.25,.93-.37,1.46-.37s1.03,.12,1.47,.37,.79,.59,1.05,1.04c.26,.44,.39,.94,.39,1.49s-.13,1.06-.39,1.5c-.26,.44-.61,.79-1.05,1.04-.44,.25-.93,.37-1.46,.37s-1.02-.12-1.46-.37Zm2.37-.87c.26-.15,.46-.38,.61-.66,.15-.29,.22-.62,.22-1s-.07-.71-.22-1c-.15-.28-.35-.5-.61-.65-.26-.15-.56-.23-.9-.23s-.64,.08-.91,.23c-.26,.15-.47,.37-.61,.65-.15,.28-.22,.62-.22,1s.07,.71,.22,1c.15,.29,.35,.51,.61,.66s.57,.23,.91,.23,.64-.08,.9-.23Z"/>
        <path class="cls-2" d="M175.84,44.35h-1.14l-2.58-3.89v3.89h-1.14v-5.68h1.14l2.58,3.9v-3.9h1.14v5.68Z"/>
        <path class="cls-2" d="M184.1,43.45h1.87v.9h-3.01v-5.67h1.14v4.77Z"/>
        <path class="cls-2" d="M189.86,39.59v1.42h1.91v.9h-1.91v1.5h2.15v.93h-3.29v-5.68h3.29v.93h-2.15Z"/>
        <path class="cls-2" d="M198.56,43.27h-2.26l-.37,1.08h-1.2l2.04-5.68h1.33l2.04,5.68h-1.2l-.37-1.08Zm-.31-.91l-.82-2.37-.82,2.37h1.64Z"/>
        <path class="cls-2" d="M206.49,39.02c.45,.23,.8,.57,1.05,1s.37,.93,.37,1.5-.12,1.07-.37,1.49c-.25,.43-.6,.75-1.05,.99-.45,.23-.98,.35-1.57,.35h-1.98v-5.67h1.98c.6,0,1.12,.12,1.57,.35Zm-.23,3.87c.32-.33,.49-.78,.49-1.37s-.16-1.05-.49-1.39c-.33-.33-.79-.5-1.38-.5h-.81v3.75h.81c.6,0,1.06-.16,1.38-.49Z"/>
        <path class="cls-2" d="M211.93,39.59v1.42h1.91v.9h-1.91v1.5h2.15v.93h-3.29v-5.68h3.29v.93h-2.15Z"/>
        <path class="cls-2" d="M220.08,44.35l-1.25-2.21h-.54v2.21h-1.14v-5.67h2.13c.44,0,.81,.08,1.12,.23,.31,.15,.54,.36,.69,.63,.15,.26,.23,.56,.23,.88,0,.37-.11,.71-.32,1.01-.22,.3-.54,.51-.97,.62l1.36,2.3h-1.32Zm-1.79-3.07h.95c.31,0,.54-.07,.69-.22s.23-.36,.23-.62-.08-.46-.23-.61c-.15-.14-.38-.22-.69-.22h-.95v1.67Z"/>
        <path class="cls-2" d="M225.29,44.2c-.32-.14-.57-.33-.75-.59-.18-.26-.28-.56-.28-.9h1.22c.02,.23,.1,.42,.25,.55s.35,.2,.61,.2,.47-.06,.63-.19c.15-.13,.23-.29,.23-.5,0-.17-.05-.31-.15-.41-.1-.11-.23-.19-.39-.26-.15-.06-.37-.13-.64-.21-.37-.11-.67-.22-.9-.32s-.43-.27-.59-.48c-.17-.21-.25-.5-.25-.86,0-.34,.08-.63,.25-.88,.17-.25,.4-.44,.71-.57,.3-.13,.65-.2,1.04-.2,.59,0,1.06,.14,1.43,.43,.37,.28,.57,.68,.61,1.19h-1.25c-.01-.2-.09-.36-.25-.48s-.36-.19-.61-.19c-.22,0-.4,.06-.53,.17s-.2,.28-.2,.5c0,.15,.05,.28,.15,.38s.22,.18,.37,.24c.15,.06,.36,.13,.63,.22,.37,.11,.67,.22,.9,.33s.43,.27,.6,.49c.17,.22,.25,.5,.25,.85,0,.3-.08,.59-.24,.85-.16,.26-.39,.47-.69,.62-.3,.15-.66,.23-1.08,.23s-.75-.07-1.07-.2Z"/>
      </g>
    </g>
  </g>
</svg>