<?xml version="1.0" encoding="UTF-8"?>
<svg id="Layer_2" data-name="Layer 2" xmlns="http://www.w3.org/2000/svg" xmlns:xlink="http://www.w3.org/1999/xlink" viewBox="0 0 112.12 114.72">
  <defs>
    <style>
      .cls-1 {
        fill: none;
      }

      .cls-2 {
        clip-path: url(#clippath);
      }

      .cls-3 {
        fill: #f4b47e;
      }

      .cls-4 {
        fill: #fff;
      }

      .cls-5 {
        fill: #211d1d;
      }

      .cls-6 {
        fill: #966b63;
      }

      .cls-7 {
        fill: #5ce1e6;
      }
    </style>
    <clipPath id="clippath">
      <rect class="cls-1" width="112.12" height="114.72"/>
    </clipPath>
  </defs>
  <g id="Layer_1-2" data-name="Layer 1">
    <g>
      <g class="cls-2">
        <path class="cls-5" d="M111.98,86.93c.25-4.14-1.52-7.71-5.1-10.33-4.35-3.18-11.25-3.77-19.95-1.71-5.37,1.27-9.92,3.19-11.4,3.85l.03-21.43c1.99-.06,3.68-.7,4.15-.89,.95,.28,7.23,2.14,10.01,2.97,1.35,.41,3.44,.81,5.61,.81s4.21-.36,5.89-1.42c1.75-1.1,2.83-2.81,3.19-5.09,.36-2.25-.26-4.48-1.87-6.6-5.35-7.1-19.95-11.48-28.66-13.06,1.04-.38,2.01-1.08,2.78-2.04,1.27-1.6,1.61-3.47,.88-4.88-.34-.66-.79-1.14-1.32-1.47,.62-.82,.99-1.83,.99-2.93,0-1.63-.81-3.07-2.04-3.95,1.54-1.05,2.55-2.81,2.55-4.81,0-3.22-2.61-5.82-5.82-5.82-.02,0-.04,0-.06,0,0-.2-.01-.4-.03-.6C71.36,3.17,67.47,0,63.13,.46c-1.98,.2-3.71,1.13-4.97,2.48-1.42-1.73-3.58-2.83-5.99-2.83-4.21,0-7.62,3.35-7.74,7.52-1.35-.14-2.74,.12-4.01,.83-3.29,1.84-4.46,5.99-2.62,9.28,.27,.48,.6,.91,.96,1.3-1.11,.89-1.82,2.25-1.82,3.79,0,1.39,.59,2.64,1.53,3.53-.38,.33-.69,.75-.92,1.28-.65,1.49-.19,3.38,1.19,4.93,.53,.6,1.24,1.16,2.06,1.56-9.24,.96-24.87,5.39-33.87,14.64-4.18,4.3-3.78,8.95-2.17,11.64,1.38,2.3,3.68,3.55,6.31,3.55,.82,0,1.67-.12,2.53-.37,5.65-1.62,8.03-2.45,8.61-2.66,.4,.19,1.56,.66,2.69,.53-1.37,2.3-4.43,8.35-4.67,16.62-6.86-.28-12.27,1.32-16.09,4.75-3.29,2.95-4.38,6.89-3.06,11.08,2.3,7.33,12.22,15.68,29.22,17.9v.15c0,1.53,1.24,2.77,2.77,2.77H103.64c1.53,0,2.77-1.24,2.77-2.77v-.45c0-1.53-1.24-2.77-2.77-2.77h-.14v-.57c0-.86-.7-1.55-1.56-1.55h-1.25v-3.26c5.33-3.07,10.87-9.64,11.28-16.42ZM28.07,62.37c.89,.52,1.8,.9,2.58,.9,.18,0,.35-.02,.51-.06,.52-.13,.86-.4,1.03-.78,.05-.12,.08-.25,.09-.37,.75,.49,1.88,1.06,2.83,.7l.19,18.42c-1.49-.57-6.18-2.21-11.87-2.84,.34-8.62,3.95-14.83,4.65-15.96Z"/>
      </g>
      <path class="cls-6" d="M42.7,28c.04,2.06,.53,4.03,1.4,5.83-.19,.05-.37,.09-.55,.11-.12,0-.25,.01-.37,.01-1.6,.04-3.03-.85-3.92-1.85-1.17-1.33-1.6-2.97-1.07-4.18,.2-.47,.49-.84,.83-1.11,.79,.55,1.74,.87,2.77,.87,.31,0,.61-.03,.91-.09v.41Zm15.69,13.9l-1.13,.03c-.11,0-.21,0-.32,0-1.69,0-3.34-.31-4.89-.88,.82,.86,2.51,2.05,5.44,1.8,2.25-.19,3.47-.86,4.1-1.4-1.04,.26-2.11,.42-3.21,.45Zm43.59,5.61c-2.22-2.96-6.38-5.55-11.16-7.65-1.51,2.04-2.35,3.57-2.62,5.79,2.78,.13,5.28,.33,6.71,.61,.19,.04,.32,.22,.28,.42-.04,.19-.23,.32-.42,.28-4.43-.88-20.03-.9-20.19-.9-.03,0-.06,0-.08,0-4.05-.93-7.3-.64-9.83,.92-.04,.05-.09,.08-.15,.09-.82,.52-1.56,1.18-2.23,1.98-4.1,4.86-3.53,6.58-3.25,6.99,.39,.58,.95,.43,1.17,.33,1.7-3.85,5.19-6.81,6.23-7.63,.15-.12,.38-.1,.5,.06s.1,.38-.06,.5c-1.02,.8-4.46,3.71-6.07,7.47-.02,.06-.55,1.6,.3,2.06,1.05,.57,2.18-.53,2.19-.54t0,0s0-.06,.02-.09c1.04-2.4,2.97-4.48,5.01-6.69l.67-.73c.13-.14,.36-.15,.5-.02,.15,.13,.15,.36,.02,.5l-.67,.73c-2,2.16-3.88,4.2-4.88,6.49-.02,.04-.05,.06-.08,.09,0,.02,0,.04,0,.06-.04,.16-.19,.99,.76,1.28,.85,.25,2.29-.65,2.98-1.18,0-.02,0-.04,.02-.06,1.6-2.87,4.23-5.94,4.25-5.97,.13-.15,.35-.17,.5-.04s.17,.35,.04,.5c-.03,.03-2.46,2.88-4.03,5.62,.01,.08,0,.15-.03,.22-.05,.11-.16,.44-.04,.67,.08,.16,.28,.27,.59,.32,1.48,.24,4.45-3.21,5.96-5.46,.11-.17,.33-.21,.49-.1,.16,.11,.21,.33,.1,.49-.13,.19-.56,.82-1.17,1.61,2.64,.32,5.22-.81,5.25-.83,.08-.03,.17-.04,.24-.01,0,0,7.12,2.11,10.13,3.01,.28,.08,6.86,2.01,10.92-.53,1.57-.98,2.54-2.53,2.87-4.6,.33-2.06-.25-4.1-1.73-6.06Zm-30.88-13.99c2.11,.54,4.02-.74,5.02-1.99,1.1-1.38,1.41-2.96,.81-4.11-.3-.58-.69-1-1.15-1.27-.88,.86-2.08,1.39-3.4,1.39-.02,0-.03,0-.05,0,.02,2.09-.42,4.12-1.26,5.98,.01,0,.03,0,.04,0Zm-13.86,7.69c-3.63,.09-7.04-1.26-9.65-3.76-2.61-2.5-4.09-5.86-4.17-9.48v-.59c1.87-.67,3.23-2.46,3.23-4.57,0-.44-.06-.85-.17-1.25,2.36-.15,4.28-1.91,4.66-4.2,1.01,1,2.4,1.62,3.93,1.62,2.41,0,4.45-1.53,5.24-3.66,.11,.06,.22,.1,.33,.16-.04,.26-.07,.52-.07,.79,0,2.68,2.18,4.86,4.86,4.86,1.02,0,1.96-.31,2.74-.85-.41,.71-.64,1.53-.64,2.41,0,2.42,1.78,4.42,4.1,4.79,.05,3.57-1.28,6.96-3.75,9.55-2.5,2.61-5.87,4.09-9.48,4.17l-1.13,.02Zm7.39-9.99c.02-1.79-.72-3.24-1.65-3.25-.93-.01-1.71,1.43-1.73,3.22s.72,3.24,1.65,3.25,1.71-1.43,1.73-3.22Zm-3.84-4.92c.07,.11,.18,.17,.3,.17,.06,0,.13-.02,.19-.06,.02-.01,1.78-1.08,4.39-.28,.19,.06,.39-.05,.44-.23,.06-.19-.05-.39-.23-.44-2.93-.9-4.89,.3-4.97,.35-.17,.1-.21,.32-.11,.49Zm-2.77,7.33c.44,.36,.67,.68,.67,.96,0,.27-.19,.59-.61,.96-.15,.13-.16,.35-.03,.5,.07,.08,.17,.12,.26,.12,.08,0,.17-.03,.24-.09,.37-.33,.86-.85,.85-1.51-.01-.5-.32-.99-.93-1.5-.15-.12-.37-.1-.5,.05-.12,.15-.1,.37,.05,.5Zm-8.19-7.61c2.66-.59,4.33,.61,4.35,.63,.06,.05,.14,.07,.21,.07,.11,0,.21-.05,.28-.14,.12-.16,.08-.38-.07-.5-.08-.06-1.94-1.41-4.93-.75-.19,.04-.31,.23-.27,.42,.04,.19,.23,.31,.42,.27Zm4.14,5.08c.02-1.79-.72-3.25-1.65-3.25-.93-.01-1.71,1.43-1.73,3.22-.02,1.79,.72,3.24,1.65,3.25,.93,0,1.71-1.43,1.73-3.22Zm3.73,7.66c.15,0,.3,0,.46-.02,1.66-.15,2.88-1.46,2.93-1.52,.13-.15,.12-.37-.02-.5-.15-.13-.37-.12-.5,.03-.01,.01-1.08,1.17-2.47,1.29-2.22,.19-3.39-1.27-3.44-1.33-.12-.15-.35-.18-.5-.06-.16,.12-.19,.34-.06,.5,.05,.07,1.28,1.62,3.61,1.62Zm-20.74,12.69c-2.95-2.72-6.52-2.15-11.05-1.42-.7,.11-1.41,.23-2.15,.34-.02,0-.05,0-.07,0-.01,0-.6-.03-1.88-.02-.01,0-.03,.01-.04,.02-.02,0-.05,0-.07,0-.04,0-.08,0-.12-.02-1.86,.02-5.04,.13-9.88,.52-.19,.01-.37-.13-.38-.32-.01-.19,.13-.37,.33-.38,4.62-.37,7.71-.49,9.61-.52-.52-2.43-1.66-4.77-3.74-7.72-3.76,1.99-7.27,4.42-10.1,7.34-3.9,4.01-3.55,8.31-2.07,10.78,1.63,2.72,4.71,3.82,8.04,2.87,6.46-1.86,8.68-2.69,8.7-2.7,.09-.04,.2-.03,.29,.02,.02,0,1.78,.92,3,.39,.01,0,.02,0,.03,0,.03-.05,.06-.09,.08-.12-.72-.61-1.24-1.12-1.39-1.27-.14-.14-.14-.37,0-.5,.14-.14,.36-.14,.5,0,1.21,1.2,4.7,4.22,6.38,3.79,.29-.08,.48-.2,.55-.37,.12-.26-.02-.63-.09-.77-1.77-2.65-5.17-5.08-5.2-5.11-.16-.11-.2-.33-.08-.49,.11-.16,.33-.2,.49-.08,.15,.1,3.52,2.52,5.36,5.26,.52,.45,1.97,1.48,2.85,1.13,.88-.34,.84-.93,.81-1.09-1.25-2.33-3.83-5.1-6.6-7.09-.16-.12-.2-.34-.08-.5,.11-.16,.34-.2,.5-.08,2.85,2.04,5.52,4.92,6.82,7.34,.09,.12,1.11,1.38,2.42,.67,.81-.44,.37-2.09,.3-2.33-1.55-2.94-4.3-5.66-7.17-7.09-.18-.09-.25-.3-.16-.48,.09-.18,.3-.25,.48-.16,2.97,1.48,5.8,4.27,7.43,7.3,.23,.08,.81,.19,1.15-.42,.2-.36,.95-2.35-3.77-6.71Z"/>
      <path class="cls-7" d="M62.99,102.27s.08,.02,.12,.03v4.38l-11.16-.07c.2-.25,.31-.54,.31-.85,0-.41-.2-.79-.52-1.06,.32-.28,.52-.65,.52-1.06,0-.63-.46-1.17-1.11-1.41v-1.61c1.22-.47,2.31-1.15,3.25-1.98l8.6,3.65Zm-19.38-.06v-1.61c-4.05-1.55-6.75-5.44-6.78-9.77l-12.88-5.64c2.78,12.71,15.1,21.52,15.24,21.61,.02,.02,.03,.04,.05,.06h3.74s.02-.02,.04-.03c-.32-.28-.52-.65-.52-1.06s.2-.79,.52-1.06c-.32-.28-.52-.65-.52-1.06,0-.63,.46-1.17,1.11-1.41Zm-10.57,6.52h3.09v-.29c-1.55-1.14-15.01-11.53-15.89-27.33-.05-.79-.06-1.57-.06-2.32-6.67-.27-11.92,1.26-15.6,4.57-3.07,2.76-4.09,6.43-2.86,10.34,2.23,7.11,11.93,15.21,28.58,17.4,.2-1.33,1.34-2.37,2.73-2.37Zm73.4-31.56c-10.13-7.4-30.88,2.32-31.13,2.44-6.14,3.42-12.47,5.38-18.82,5.87,.91,1.55,1.44,3.36,1.44,5.28,0,2.79-1.12,5.4-2.98,7.32l2.29,.97c2.52-1.73,32.48-20.26,33.79-21.07,.16-.1,.38-.05,.49,.12,.1,.17,.05,.39-.12,.49-10.56,6.53-30.03,18.61-33.38,20.8l5.25,2.23c.11,.05,.18,.15,.2,.26h2.64l-.06-1.32c0-.1,.03-.19,.1-.26s.16-.11,.26-.11h3.54l4.42-1.78c.11-.04,.23-.03,.33,.03,.1,.07,.16,.18,.16,.3v3.14h2.23c2.43-.08,4.99,.47,5.89,.92h17.27c5.19-2.95,10.63-9.33,11.02-15.91,.23-3.88-1.43-7.24-4.81-9.71Zm-83.02,4.17c.05,1.02,.18,2.02,.36,3l13.08,5.72c.17-2.5,1.2-4.77,2.82-6.49-2.65-.79-4.09-1.5-4.19-1.55-.16-.06-5.41-2.22-12.1-2.97-.01,.75,0,1.52,.03,2.3Z"/>
      <path class="cls-4" d="M63.82,102.59h12.92v4.15h-4.71l-8.21-.05v-4.1Zm10.32-.71v-2.61l-3.99,1.61s-.09,.02-.13,.02h-3.24l.04,.98h7.32Zm-19.68-53.94c0,.71,.58,1.29,1.29,1.29s1.29-.58,1.29-1.29-.58-1.29-1.29-1.29-1.29,.58-1.29,1.29Zm-.18-1.35c.37-.4,.89-.65,1.47-.65,.21,0,.42,.04,.61,.11-.83-.66-2.89-2-5.89-2l-.2,.3,3.99,2.25s0,0,0,0Zm-.09,2.6c-.28-.35-.45-.77-.45-1.24,0-.27,.06-.52,.15-.75l-4.01-2.26-.25,.38c.38,.67,1.9,3.05,4.56,3.88Zm29.05,54.33v5.2h16.74v-5.2h-16.74Zm-26.02-12.74c0,4.14-2.63,7.87-6.55,9.26-.14,.05-.23,.18-.23,.33v1.73s-.05,0-.07,0h-5.97s-.05,0-.07,0v-1.73c0-.15-.09-.28-.23-.33-3.92-1.39-6.55-5.11-6.55-9.26,0-5.42,4.41-9.83,9.84-9.83s9.84,4.41,9.84,9.83Zm-17.9,.36c.2,0,.35-.16,.35-.36,0-.52,.06-1.04,.16-1.55,.04-.19-.08-.38-.28-.42-.19-.04-.38,.08-.42,.28-.11,.55-.17,1.12-.17,1.69,0,.2,.16,.36,.35,.36Zm5.48,6.89c-2.2-.78-3.91-2.49-4.69-4.69-.06-.19-.27-.28-.45-.21-.19,.06-.28,.27-.21,.45,.85,2.4,2.72,4.27,5.12,5.12,.04,.01,.08,.02,.12,.02,.15,0,.28-.09,.34-.24,.06-.19-.03-.39-.22-.45Z"/>
      <path class="cls-3" d="M25.8,49.34c-.68,.11-1.38,.22-2.1,.33-.15,0-.69-.03-1.71-.03-.53-2.56-1.69-4.99-3.83-8.04,8.8-4.51,18.82-6.64,24.77-6.93,.05,0,.09,0,.14,0,.13,0,.27-.02,.41-.03,.36,0,.7-.01,1.02-.01,.68,1.22,1.55,2.34,2.59,3.33,1.1,1.06,2.35,1.9,3.68,2.54,0,.01,0,.03,.01,.05,.07,.13,1.66,3.03,5.92,3.03,.27,0,.55-.01,.84-.03,4.07-.35,5.15-2.2,5.29-2.48,2.07-.73,3.96-1.93,5.52-3.56,.95-.99,1.73-2.09,2.34-3.27,5.35,.66,12.91,2.54,19.44,5.32-1.53,2.09-2.39,3.7-2.67,6.05-5.68-.25-12.17-.26-12.87-.26-4.22-.97-7.62-.64-10.29,.99-3.89-1.31-6.44-.8-7.17-.6-.62-.56-3.02-2.47-6.85-2.43-.12,0-.22,.06-.29,.16l-1.07,1.6c-.07,.11-.08,.24-.02,.35,.08,.15,1.86,3.7,5.58,4.55,.25,.81,1.31,3.78,3.61,5.16-.02,.57,.12,.99,.32,1.29,.44,.66,1.04,.79,1.53,.73-.12,.7-.14,1.79,.8,2.29,.93,.5,1.84,.16,2.41-.19,.1,.52,.44,1.07,1.26,1.32,1.01,.3,2.33-.41,3.14-.95,.02,.12,.06,.24,.11,.35,.19,.37,.56,.61,1.1,.7,.09,.01,.18,.02,.28,.02,1.48,0,3.36-1.91,4.71-3.54,.01,0,.02,0,.03,.01,.35,.06,.7,.09,1.04,.11l-.03,21.78c-6.12,3.38-12.42,5.31-18.73,5.73-1.9-2.77-5.09-4.59-8.7-4.59-2.74,0-5.24,1.06-7.11,2.78-2.32-.67-3.78-1.31-4.27-1.53l-.2-19.13c.24-.21,.4-.45,.49-.68,.65,.51,1.66,.9,2.76,.3,.98-.53,.91-1.84,.77-2.62,.51,.04,1.13-.13,1.53-.84,.25-.45,.7-1.84-1.03-4.36,1.71-.34,3.64-.3,3.67-.29l3.73,.27h.03c.19,0,.34-.14,.35-.33,.01-.2-.13-.37-.33-.38l-3.44-.25-.04-.43,3.5,.25h.03c.19,0,.34-.14,.35-.33,.01-.19-.13-.37-.33-.38l-3.61-.26-.03-.34,3.39,.24h.03c.19,0,.34-.14,.35-.33,.01-.19-.13-.37-.33-.38l-3.81-.27c-3.05-.35-5.33,.25-5.94,.44-.15-.15-.3-.29-.46-.44-3.21-2.96-7.11-2.33-11.64-1.59Zm56.74,57.46v-3.43c-.78-.33-2.9-.82-5.08-.79v4.19l5.08,.03Zm-24.92-58.16c-.06,.15-.12,.29-.21,.41,.33,1.39,1.56,2.31,2.03,2.62,.48-.78,1.13-1.67,1.95-2.67-2.23-.5-3.29-.46-3.77-.36Zm46.02,60.81H33.05c-1.14,0-2.06,.92-2.06,2.06v.45c0,1.14,.93,2.06,2.06,2.06H103.64c1.14,0,2.06-.92,2.06-2.06v-.45c0-1.14-.92-2.06-2.06-2.06Zm-59.25-4.54c-.64,0-1.18,.39-1.18,.84,0,.28,.2,.53,.5,.68,.21-.07,.44-.11,.68-.11h5.97c.24,0,.47,.04,.68,.11,.3-.15,.5-.4,.5-.68,0-.46-.54-.84-1.18-.84h-5.97Zm5.97-2.13h-5.97c-.64,0-1.18,.39-1.18,.85,0,.28,.2,.53,.5,.68,.21-.07,.44-.11,.68-.11h5.97c.24,0,.47,.04,.68,.11,.3-.15,.5-.41,.5-.68,0-.46-.54-.85-1.18-.85Zm.85,4.53h-.03l-.3-.18c-.16-.06-.34-.1-.52-.1h-5.97c-.36,0-.69,.13-.9,.32-.03,.06-.08,.11-.14,.15-.08,.11-.14,.24-.14,.38,0,.46,.54,.84,1.18,.84h5.97c.64,0,1.18-.39,1.18-.84,0-.22-.12-.42-.32-.57Z"/>
    </g>
  </g>
</svg>