<?xml version="1.0" encoding="UTF-8"?>
<svg id="Layer_2" data-name="Layer 2" xmlns="http://www.w3.org/2000/svg" xmlns:xlink="http://www.w3.org/1999/xlink" viewBox="0 0 135.54 162.65">
  <defs>
    <style>
      .cls-1 {
        fill: none;
      }

      .cls-2 {
        clip-path: url(#clippath);
      }

      .cls-3 {
        fill: #eec77a;
      }

      .cls-4 {
        fill: #211a15;
      }

      .cls-5 {
        fill: #211d1d;
      }

      .cls-6 {
        fill: #966b63;
      }

      .cls-7 {
        fill: #629da3;
      }

      .cls-8 {
        clip-path: url(#clippath-1);
      }

      .cls-9 {
        clip-path: url(#clippath-4);
      }

      .cls-10 {
        clip-path: url(#clippath-3);
      }

      .cls-11 {
        clip-path: url(#clippath-2);
      }

      .cls-12 {
        clip-path: url(#clippath-5);
      }
    </style>
    <clipPath id="clippath">
      <rect class="cls-1" x="41.66" y="77.58" width="48.45" height="85.07"/>
    </clipPath>
    <clipPath id="clippath-1">
      <rect class="cls-1" x="53.96" y="130.64" width="36.14" height="32.01"/>
    </clipPath>
    <clipPath id="clippath-2">
      <rect class="cls-1" x="27.82" width="29.22" height="13.75"/>
    </clipPath>
    <clipPath id="clippath-3">
      <rect class="cls-1" x="45.51" y="79.88" width="90.04" height="82.29"/>
    </clipPath>
    <clipPath id="clippath-4">
      <rect class="cls-1" x="86.26" y="122.18" width="49.28" height="39.99"/>
    </clipPath>
    <clipPath id="clippath-5">
      <rect class="cls-1" x="0" y="104.92" width="46.65" height=".65"/>
    </clipPath>
  </defs>
  <g id="Layer_1-2" data-name="Layer 1">
    <g>
      <g class="cls-2">
        <path class="cls-6" d="M41.89,78.06h31.91v.04c3.81,.01,7.58,.03,8.91,.03,3.14,0,5.55,2.99,4.28,11.79-2.54,17.56-8.73,60.94-8.73,60.94l11.76,11.75-35.63-1.96,6.61-58.36h-19.09v-24.23"/>
      </g>
      <g class="cls-8">
        <path class="cls-7" d="M80.9,132.29l-23.14-1.55-3.39,29.91,35.63,1.96-11.76-11.75,2.65-18.57"/>
      </g>
      <path class="cls-5" d="M80.08,138.13l-23-1.3c-.09,0-.16-.08-.15-.17s.08-.16,.17-.15l23,1.3c.09,0,.16,.08,.15,.17s-.08,.16-.17,.15"/>
      <path class="cls-5" d="M55.1,154.31s1.3,.03,2.63,.88c1.33,.85,2.68,2.54,2.81,5.79,0,.09-.07,.17-.15,.17-.09,0-.17-.07-.17-.15-.14-3.16-1.42-4.73-2.66-5.53-.62-.4-1.24-.61-1.7-.71-.23-.05-.42-.08-.55-.1-.07,0-.12-.01-.15-.02h-.04s-.01,0-.01,0c-.09,0-.16-.08-.16-.17,0-.09,.08-.16,.17-.16"/>
      <path class="cls-5" d="M83.56,156.32h0c-.11,.01-1.11,.16-2.12,.94s-2.05,2.18-2.25,4.76c0,.09-.09,.15-.18,.15-.09,0-.16-.08-.15-.17,.21-2.74,1.37-4.26,2.48-5.07,1.11-.81,2.17-.93,2.18-.93,.09,0,.17,.05,.18,.14,.01,.09-.05,.17-.14,.18"/>
      <path class="cls-4" d="M80.55,134.74l-12.36-24.48,9.1-2.82,4.16,21.01-.9,6.29"/>
      <path class="cls-6" d="M75.99,60.7l7.3-2.83,2.81,4.61-10.11-1.78Z"/>
      <path class="cls-6" d="M86.6,61.06c1.12,.31,2.91,2.83,.77,4.36,0,0,2.21,2.06,0,3.33,0,0,1.57,2.11-.73,3.42,0,0,.96,3.07-2.93,2.41-3.41-.59-1.01-14.61,2.89-13.52"/>
      <path class="cls-6" d="M44.18,56.63l38.52,4.43v13.62l-44.19-2.74,5.67-15.31"/>
      <path class="cls-7" d="M57.95,81.49l-.13-3.36-14.82-.13,14.95,3.49Z"/>
      <path class="cls-7" d="M44.57,68.74l1.72,36.37s-25.31,.07-32.98,0c-3.82-.04-7.14,.31-3.25-14.22,1.74-6.5,7.37-25.89,7.37-25.89l27.14,3.74"/>
      <path class="cls-5" d="M44.93,78.29H14.15c-.09,0-.16-.08-.16-.16s.08-.16,.16-.16h30.79c.09,0,.16,.07,.16,.16s-.07,.16-.16,.16"/>
      <path class="cls-3" d="M40.3,32.85l15.63,38.54s-25.7,7.74-46.9-2.58c0,0,11.94-26.41,16.39-34.98,1.72-3.31,7.93-13.88,14.88-.98"/>
      <path class="cls-4" d="M55.59,10.79c1.1,2.09,1.08,10.52-4.51,11.2l.55-11.32s3.63-.52,3.97,.12"/>
      <path class="cls-4" d="M56.31,9.56s.5,1.97,.5,4.33c0,1.43-.18,3-.78,4.38-.6,1.38-1.63,2.57-3.29,3.19-.08,.03-.18-.01-.21-.1-.03-.08,0-.18,.09-.21,1.57-.59,2.53-1.69,3.1-3.02s.76-2.86,.76-4.26c0-1.16-.13-2.22-.25-3-.06-.39-.12-.7-.17-.92-.02-.11-.04-.19-.05-.25-.01-.05-.02-.08-.02-.08-.02-.09,.03-.17,.12-.2,.09-.02,.17,.03,.2,.12"/>
      <path class="cls-6" d="M45.56,3.61c3.92,.96,10.69,4.94,8.75,13.57,0,0-1.79,6.95-2.22,9.29-.35,1.92-1.29,6.07-5.06,5.94-2.44-.09-10.31-1.78-10.31-1.78l-4.79-12.37S35.14,1.08,45.56,3.61"/>
      <path class="cls-4" d="M37.85,18.22c4.3,.84,10.65-3.37,6.58-9.02-2.37-3.28-16.28-3.27-15.89,2.11,.34,4.7,6.54,6.37,9.31,6.91"/>
      <path class="cls-4" d="M52.04,22.24l-.94,4.1c-.02,.09-.11,.14-.19,.12s-.14-.11-.12-.2l.93-4.1c.02-.09,.11-.14,.2-.12,.09,.02,.14,.11,.12,.19"/>
      <path class="cls-4" d="M48.11,21.01c-.12,.47,.05,.92,.38,1,.32,.08,.68-.24,.79-.72s-.05-.92-.38-1c-.32-.08-.68,.25-.79,.72"/>
      <path class="cls-4" d="M49.14,28.85s-.25,.08-.57,.08c-.24,0-.53-.04-.8-.2-.27-.16-.51-.44-.65-.87-.03-.08,.02-.17,.11-.2,.08-.03,.18,.02,.2,.11,.12,.37,.3,.57,.5,.69,.2,.12,.43,.16,.63,.16,.13,0,.25-.02,.34-.03,.04,0,.08-.02,.1-.02h.03s0,0,0,0c.08-.03,.18,.02,.2,.11s-.02,.17-.11,.2"/>
      <path class="cls-4" d="M28.35,10.99s-4.07,9.19,1.53,11.18c1.73,.62,13.36-8.02-1.53-11.18"/>
      <path class="cls-6" d="M39.44,18.99s-.73-4.35-4.49-3.67c-1.51,.28-3.33,2.88-1.3,5.99l5.79-2.33"/>
      <path class="cls-4" d="M37.42,19.84l-3.17-4.24c-.05-.07-.04-.17,.03-.23,.08-.05,.17-.04,.23,.03l3.17,4.24c.05,.07,.04,.17-.03,.23-.07,.05-.17,.04-.23-.03"/>
      <g class="cls-11">
        <path class="cls-4" d="M56.67,8.68c.1-3.74-7.94-8.64-14.89-8.07-2.35,.19-9.85,.25-13.44,10.38,0,0,9.33,1.8,17.39,1.98,5.61,.13,10.82,.01,10.94-4.29"/>
      </g>
      <path class="cls-4" d="M33.17,20.45c1.92,1.01,7.38,4.12,4.54,7.39-1.69,1.94-8.78,3.43-8.42-5.91,.04-1.04,.91-3.05,3.88-1.47"/>
      <path class="cls-4" d="M29.45,21.96s0,.02-.01,.05c-.05,.22-.26,1.21-.26,2.35,0,.88,.13,1.86,.53,2.65,.41,.79,1.08,1.4,2.22,1.6,.09,.02,.15,.1,.13,.19-.02,.09-.1,.14-.19,.13-1.23-.21-2.01-.91-2.45-1.78-.44-.86-.56-1.88-.56-2.79,0-1.35,.28-2.47,.28-2.48,.02-.09,.11-.14,.2-.12s.14,.11,.12,.2"/>
      <path class="cls-4" d="M39.01,27.44c2.73,1.61,7.22,5.76,4,12.03-1.54,3-10.02-4.55-7.1-11.45,.31-.72,.95-1.84,3.1-.57"/>
      <path class="cls-4" d="M42.92,39.54c1.5,1.85,3.73,7.25,.41,9.51-2.2,1.5-7.12-3.38-2.97-10.23,.8-1.32,1.44-.67,2.55,.71"/>
      <path class="cls-4" d="M43.79,48.69c1.03,1.57,1.25,5.94-2.17,8.81,0,0-5.03-5.96-1.08-9.89,.65-.64,1.92-.95,3.25,1.07"/>
      <path class="cls-5" d="M50.03,78.13h34.12v-3.45H50.03v3.45"/>
      <path class="cls-5" d="M79.73,78.13h4.27l5.86-32.64h-4.27l-5.86,32.64"/>
      <g class="cls-10">
        <path class="cls-6" d="M51.79,80.06s16.48,3.69,23.03,6.25c3.42,1.33,6.62,2.79,11.33,9.32,10.3,14.31,32.64,44.08,32.64,44.08h16.75l-30.81,22.26s-24-34.55-36.09-51.15c-1.44-1.98-3.9-2.61-7.41-3.21-3.87-.66-15.5-2.49-15.5-2.49l6.06-25.05"/>
      </g>
      <path class="cls-7" d="M46.3,105.11l6.03,1.05,8.01-24.04-15.32-4.06-8.94,27.08,10.22-.03"/>
      <path class="cls-5" d="M81.28,128.78c-4.93-7.06-9.29-13.51-12.47-17.51-1.04-1.31-2.38-2.08-3.85-2.6-1.47-.52-3.09-.78-4.65-1.08-.09-.02-.15-.1-.13-.19,.02-.09,.1-.14,.19-.13,1.56,.29,3.18,.56,4.7,1.09,1.51,.53,2.91,1.33,4,2.7,3.2,4.03,7.56,10.48,12.48,17.53,.05,.08,.03,.17-.04,.23-.07,.05-.17,.03-.23-.04"/>
      <path class="cls-5" d="M47.96,78.68s5.09,1.23,10.99,2.78c5.91,1.55,12.63,3.42,15.93,4.7,1.71,.67,3.39,1.37,5.22,2.73s3.82,3.37,6.18,6.64c.05,.08,.04,.17-.04,.23-.08,.05-.17,.03-.23-.04-2.34-3.25-4.31-5.24-6.11-6.57-1.8-1.34-3.44-2.03-5.15-2.69-3.26-1.27-9.99-3.14-15.89-4.69-2.95-.78-5.7-1.47-7.71-1.97-1-.25-1.83-.45-2.39-.59s-.88-.22-.89-.22c-.09-.02-.14-.11-.12-.2,.02-.09,.11-.14,.2-.12"/>
      <path class="cls-5" d="M82.75,63.22s-.38,1.24-1.2,2.48c-.41,.62-.93,1.24-1.58,1.71-.65,.47-1.43,.79-2.34,.79-.47,0-.98-.09-1.53-.28-.08-.03-.13-.13-.1-.21s.12-.13,.21-.1c.51,.18,.98,.26,1.41,.26,.83,0,1.54-.29,2.15-.73,.91-.66,1.59-1.67,2.02-2.51,.22-.42,.38-.8,.49-1.08,.05-.14,.09-.25,.12-.32,.01-.04,.02-.07,.03-.09v-.03c.04-.08,.13-.13,.21-.11,.09,.03,.14,.12,.11,.2"/>
      <path class="cls-5" d="M57.53,90.47l-22.78-12.27c-.08-.04-.11-.14-.07-.22,.04-.08,.14-.11,.22-.07l22.78,12.27c.08,.04,.11,.14,.07,.22s-.14,.11-.22,.07"/>
      <path class="cls-5" d="M54.23,100.25l-25.62-22.07c-.07-.06-.08-.16-.02-.23s.16-.08,.23-.02l25.62,22.07c.07,.06,.08,.16,.02,.23-.06,.07-.16,.08-.23,.02"/>
      <path class="cls-5" d="M46.18,105.23l-21.88-22.3c-.06-.06-.06-.17,0-.23,.07-.06,.17-.06,.23,0l21.87,22.3c.07,.07,.06,.17,0,.23-.07,.06-.17,.06-.23,0"/>
      <path class="cls-5" d="M22.08,89.43l4.23,5.44c.06,.07,.05,.17-.03,.23-.07,.05-.17,.04-.23-.03l-4.23-5.44c-.05-.07-.04-.17,.03-.23,.07-.05,.17-.04,.23,.03"/>
      <g class="cls-9">
        <path class="cls-7" d="M106.26,122.93l-19.46,13.39,17.93,25.64,30.81-22.26h-16.75l-12.53-16.77"/>
      </g>
      <path class="cls-5" d="M110.46,128.57l-19.49,13.73c-.07,.05-.17,.03-.23-.04-.05-.08-.04-.18,.04-.23l19.49-13.73c.07-.05,.17-.03,.23,.04,.05,.07,.04,.17-.04,.23"/>
      <path class="cls-5" d="M110.13,158.07h0c-.06-.09-.67-.9-1.85-1.68-1.17-.78-2.9-1.54-5.22-1.54-.9,0-1.9,.12-2.99,.39-.09,.02-.17-.03-.2-.12-.02-.08,.03-.17,.12-.2,1.11-.29,2.14-.41,3.07-.41,2.47,0,4.3,.84,5.51,1.68,1.21,.84,1.81,1.67,1.82,1.68,.05,.07,.03,.17-.04,.23-.08,.05-.17,.04-.23-.04"/>
      <path class="cls-5" d="M124.98,139.81c-.04,.05-.85,1.13-.85,3.12,0,1.13,.26,2.57,1.09,4.28,.04,.08,0,.18-.07,.22-.08,.04-.18,0-.22-.08-.84-1.75-1.12-3.24-1.12-4.42,0-2.15,.91-3.3,.93-3.32,.05-.07,.16-.08,.23-.03,.07,.06,.08,.16,.02,.23"/>
      <path class="cls-5" d="M76.87,60.54l-3.48,1.28c-.08,.03-.18-.01-.21-.09-.03-.09,.01-.18,.1-.21l3.48-1.29c.08-.03,.18,.01,.21,.1,.03,.08-.01,.18-.1,.21"/>
      <path class="cls-6" d="M36.4,28.18c3.57,1.22,5.24,5.64,2.2,14.9-4.4,13.44-18.66,51.89-18.66,51.89,0,0,4.56-1.26,6.24,0,1.69,1.27,6.68,5.16,6.68,5.16,0,0,2.9,.29,3.59,1.45,.21,.35,.56,.8-.38,1.6,0,0,1.36,2.26-2.97,.95,0,0,.88,1.07-.86,1.11,0,0-1.02,.18-2.4-.76,0,0,.62,.87-1.52,.77,0,0-.98-.24-1.91-.81,0,0-.34,1.33-2.49,.49-1.07-.42-2.72-1.87-2.72-1.87,0,0-10.53,4.04-14.09,.53-2.32-2.29-3.65-5.96,1.53-22.48,3.15-10.05,8.98-27.41,12.92-37.17,2.68-6.65,6.69-18.54,14.84-15.76"/>
      <path class="cls-5" d="M35.96,103.3l-3.21-3.06c-.07-.06-.07-.17,0-.23,.06-.07,.17-.07,.23,0l3.21,3.06c.07,.06,.07,.17,0,.23-.06,.06-.17,.07-.23,0"/>
      <path class="cls-5" d="M32.99,104.25l-6.56-6.5c-.06-.06-.06-.17,0-.23,.06-.06,.17-.06,.23,0l6.56,6.5c.06,.06,.06,.17,0,.23-.07,.07-.17,.07-.23,0"/>
      <path class="cls-5" d="M29.72,104.6l-5.61-5.87c-.06-.07-.06-.17,0-.23,.07-.06,.17-.06,.23,0l5.61,5.88c.06,.06,.06,.17,0,.23-.06,.06-.17,.06-.23,0"/>
      <path class="cls-5" d="M26.29,104.56l-3.97-4.32c-.06-.06-.05-.17,.01-.23s.17-.05,.23,.01l3.97,4.32c.06,.07,.06,.17-.01,.23-.07,.06-.17,.06-.23,0"/>
      <path class="cls-5" d="M20,95.12l-5.03,1.96c-.08,.03-.18,0-.21-.09-.03-.08,0-.18,.09-.21l5.03-1.96c.08-.03,.18,0,.21,.09,.03,.08,0,.18-.09,.21"/>
      <path class="cls-5" d="M35.78,102.91s-.11,.11-.29,.21-.44,.21-.76,.21-.68-.11-1.06-.41c-.08-.07-.17-.16-.24-.28-.07-.12-.12-.26-.12-.42,0-.17,.06-.35,.19-.51s.34-.31,.63-.45c.08-.04,.18,0,.22,.08,.04,.08,0,.18-.08,.21-.26,.12-.43,.25-.52,.36-.09,.11-.12,.21-.12,.31s.03,.18,.08,.26c.05,.08,.11,.15,.17,.2,.32,.26,.61,.33,.85,.34,.24,0,.45-.08,.6-.17,.07-.04,.13-.08,.17-.11l.04-.04h0s.02,.02,.02,.02l-.02-.02,.02,.02-.02-.02c.07-.07,.17-.07,.23,0,.06,.06,.06,.17,0,.23"/>
      <path class="cls-5" d="M32.59,103.65s-.44,.35-1.08,.36c-.37,0-.8-.12-1.22-.5-.15-.13-.31-.35-.31-.64,0-.17,.07-.36,.21-.53,.14-.17,.37-.34,.69-.49,.08-.04,.18,0,.22,.08,.04,.08,0,.18-.08,.22-.29,.14-.48,.28-.58,.4-.11,.13-.14,.23-.14,.32,0,.15,.1,.3,.2,.39,.37,.32,.71,.41,1,.41,.26,0,.47-.07,.63-.14,.08-.04,.14-.08,.18-.1l.05-.03h.01c.07-.07,.17-.05,.23,.02,.05,.07,.04,.17-.03,.23"/>
      <path class="cls-5" d="M29.31,103.95s-.31,.27-.81,.27c-.31,0-.7-.11-1.11-.42-.09-.07-.2-.17-.29-.3-.09-.13-.16-.29-.16-.48,0-.15,.05-.32,.17-.47,.12-.15,.29-.28,.55-.41,.08-.04,.18,0,.22,.08s0,.18-.08,.22c-.23,.11-.36,.22-.44,.32-.08,.1-.1,.18-.1,.26,0,.1,.04,.21,.11,.3,.06,.1,.15,.18,.21,.23,.37,.28,.68,.35,.92,.35,.19,0,.34-.05,.44-.1,.05-.02,.09-.05,.12-.07l.03-.02h0s0,0,0,0h0s0,0,0,0h0c.07-.07,.17-.06,.23,0,.06,.07,.05,.17-.02,.23"/>
      <path class="cls-5" d="M25.97,103.92s-.09,.13-.25,.26c-.16,.12-.4,.26-.7,.26-.35,0-.75-.17-1.18-.64-.12-.13-.23-.33-.24-.57,0-.17,.07-.36,.22-.52,.15-.16,.39-.29,.73-.39,.08-.03,.17,.02,.2,.11,.02,.09-.02,.18-.11,.2-.3,.09-.48,.2-.59,.31-.1,.11-.13,.2-.13,.29,0,.13,.08,.27,.15,.35,.4,.42,.71,.53,.95,.53,.21,0,.38-.09,.5-.19,.06-.05,.11-.1,.14-.13l.03-.04h0s.03,0,.03,0l-.03-.02,.03,.02-.03-.02c.05-.08,.15-.09,.23-.05,.07,.05,.09,.15,.04,.23"/>
      <path class="cls-4" d="M38.26,1.84h-.02c-.25,.02-2.53,.26-5.03,1.99-2.5,1.72-5.22,4.92-6.37,10.91-.1,.49-.17,1.18-.17,1.93,0,1.17,.17,2.49,.64,3.5,.23,.5,.54,.93,.94,1.23,.4,.3,.88,.47,1.48,.47,.17,0,.34-.02,.52-.04,.09-.01,.17,.05,.18,.14,.02,.09-.05,.17-.14,.18-.2,.03-.38,.04-.56,.04-.67,0-1.23-.2-1.68-.54-.67-.51-1.09-1.32-1.35-2.21-.26-.9-.35-1.88-.35-2.78,0-.77,.07-1.47,.17-2,1.2-6.25,4.12-9.56,6.75-11.28,2.63-1.72,4.95-1.87,4.97-1.88,.09,0,.17,.06,.17,.15s-.06,.17-.15,.17"/>
      <path class="cls-4" d="M41.83,29.48s.76,.49,1.51,1.46c.75,.97,1.51,2.42,1.51,4.36,0,1.38-.39,2.99-1.41,4.83-.05,.08-.14,.11-.22,.06-.08-.05-.11-.14-.06-.22,1.01-1.8,1.38-3.35,1.38-4.67,0-1.84-.72-3.23-1.44-4.16-.36-.47-.72-.81-.99-1.05-.14-.12-.25-.2-.32-.26-.04-.03-.07-.05-.09-.07l-.02-.02h0c-.08-.05-.1-.15-.05-.23,.05-.08,.15-.1,.23-.05"/>
      <path class="cls-4" d="M43.89,47.81s1.2,1.27,1.2,3.41c0,1.68-.75,3.89-3.36,6.41-.07,.06-.17,.06-.23,0-.06-.07-.06-.17,0-.23,2.57-2.48,3.26-4.59,3.26-6.18,0-1-.28-1.8-.56-2.35-.14-.27-.28-.48-.38-.62-.05-.07-.09-.12-.12-.16l-.03-.04h-.01c-.06-.08-.06-.18,0-.24,.07-.06,.17-.06,.23,0"/>
      <path class="cls-3" d="M45.63,13.43l-4.87-2.69c-.08-.05-.11-.14-.06-.22s.14-.11,.22-.06l4.87,2.69c.08,.04,.11,.14,.06,.22-.04,.08-.14,.11-.22,.06"/>
      <path class="cls-3" d="M44.94,15.4l-4.82-1.63c-.08-.03-.13-.12-.1-.2,.03-.08,.12-.13,.2-.1l4.81,1.63c.08,.03,.13,.12,.1,.2-.03,.08-.12,.13-.2,.1"/>
      <g class="cls-12">
        <path class="cls-5" d="M46.3,105.28H.16c-.09,0-.16-.07-.16-.16s.07-.16,.16-.16H46.3c.09,0,.16,.07,.16,.16s-.07,.16-.16,.16"/>
      </g>
      <path class="cls-5" d="M21.08,103.19l-2.3-2.18c-.07-.06-.07-.17,0-.23,.06-.07,.17-.07,.23,0l2.3,2.18c.06,.06,.07,.17,0,.23-.06,.07-.16,.07-.23,0"/>
      <path class="cls-4" d="M48.1,17.7c.28-.41,.75-.68,1.29-.68,.04,0,.08,0,.12,0,.58,.05,1.05,.4,1.29,.88,.04,.08,0,.18-.08,.22-.08,.04-.18,0-.22-.08-.19-.39-.56-.66-1.02-.7-.03,0-.06,0-.09,0-.42,0-.79,.21-1.02,.54-.05,.08-.15,.09-.23,.04-.07-.05-.09-.15-.04-.23"/>
      <path class="cls-3" d="M36.28,21.45c0,.39,.32,.71,.71,.71s.71-.32,.71-.71-.32-.71-.71-.71-.71,.32-.71,.71"/>
    </g>
  </g>
</svg>