<?xml version="1.0" encoding="UTF-8"?>
<svg id="Layer_2" data-name="Layer 2" xmlns="http://www.w3.org/2000/svg" xmlns:xlink="http://www.w3.org/1999/xlink" viewBox="0 0 2378.05 1013.91">
  <defs>
    <style>
      .cls-1 {
        fill: none;
      }

      .cls-2 {
        clip-path: url(#clippath);
      }

      .cls-3 {
        fill: #f6c66d;
      }

      .cls-4 {
        fill: #fff;
      }

      .cls-5 {
        fill: #946f18;
      }

      .cls-6 {
        fill: #d7b54b;
      }

      .cls-7 {
        fill: #292929;
      }

      .cls-8 {
        fill: #3d3d3d;
      }

      .cls-9 {
        fill: #619ea3;
      }

      .cls-10 {
        fill: #28292a;
      }

      .cls-11 {
        clip-path: url(#clippath-1);
      }

      .cls-12 {
        clip-path: url(#clippath-4);
      }

      .cls-13 {
        clip-path: url(#clippath-3);
      }

      .cls-14 {
        clip-path: url(#clippath-2);
      }

      .cls-15 {
        clip-path: url(#clippath-6);
      }

      .cls-16 {
        clip-path: url(#clippath-5);
      }
    </style>
    <clipPath id="clippath">
      <rect class="cls-1" x="783.95" y="582.08" width="1455.18" height="320.22"/>
    </clipPath>
    <clipPath id="clippath-1">
      <rect class="cls-1" x="1003.99" y="6.33" width="364.89" height="158.23"/>
    </clipPath>
    <clipPath id="clippath-2">
      <path class="cls-1" d="M1004.23,128.41c1.49-6.08,168.55-121.99,168.55-121.99l196.02,73.07-168.6,84.76-195.96-35.84Z"/>
    </clipPath>
    <clipPath id="clippath-3">
      <path class="cls-1" d="M1004.23,128.41c1.49-6.08,168.55-121.99,168.55-121.99l196.02,73.07-168.6,84.76-195.96-35.84"/>
    </clipPath>
    <clipPath id="clippath-4">
      <rect class="cls-1" x="1085.8" y="88.65" width="217.33" height="97.37"/>
    </clipPath>
    <clipPath id="clippath-5">
      <rect class="cls-1" x="1172.47" width="196.41" height="80.65"/>
    </clipPath>
    <clipPath id="clippath-6">
      <rect class="cls-1" x="1003.99" width="169.81" height="128.65"/>
    </clipPath>
  </defs>
  <g id="Layer_1-2" data-name="Layer 1">
    <g>
      <g class="cls-2">
        <path class="cls-9" d="M783.95,582.08h1453.88v322.41H783.95v-322.41Z"/>
      </g>
      <path class="cls-3" d="M293.69,165.98v-30.98c0-4.51-1.69-7.89-5.07-11.27-3.38-3.38-6.76-5.07-11.27-5.07H107.24c-4.51,0-8.45,1.69-11.83,5.07s-4.51,6.76-4.51,11.27v380.22c0,4.51,1.13,8.45,4.51,11.83s7.32,4.51,11.83,4.51h170.11c4.51,0,7.89-1.13,11.27-4.51,3.38-3.38,5.07-7.32,5.07-11.83v-30.98c0-4.51-1.69-7.89-5.07-11.27-3.38-3.38-6.76-5.07-11.27-5.07h-106.46c-4.51,0-8.45-1.13-11.83-4.51s-4.51-7.32-4.51-11.83v-122.8c0-4.51,1.13-7.89,4.51-11.27s7.32-5.07,11.83-5.07h70.41c4.51,0,8.45-1.69,11.83-5.07s5.07-7.32,5.07-11.83v-30.42c0-4.51-1.69-7.89-5.07-11.27-3.38-3.38-7.32-5.07-11.83-5.07h-70.41c-4.51,0-8.45-1.13-11.83-4.51s-4.51-7.32-4.51-11.83v-33.8c0-4.51,1.13-7.89,4.51-11.27s7.32-5.07,11.83-5.07h106.46c4.51,0,7.89-1.13,11.27-4.51,3.38-3.38,5.07-7.32,5.07-11.83Z"/>
      <path class="cls-3" d="M701.51,118.66h-39.43c-7.89,0-12.95,3.94-15.77,11.27l-105.9,290.66c-1.13,3.38-2.82,4.51-6.2,4.51s-5.64-1.13-6.76-4.51l-105.9-290.66c-2.82-7.32-7.89-11.27-15.77-11.27h-38.87c-5.07,0-9.01,1.69-12.39,5.07s-4.51,7.32-4.51,11.83v379.09c0,5.07,1.13,9.02,4.51,12.4s7.32,4.51,12.39,4.51h29.85c4.51,0,8.45-1.13,11.83-4.51s5.07-7.32,5.07-12.4v-181.94c0-3.38,1.69-5.64,5.63-6.76,3.94-.56,6.76,1.13,7.89,4.51l69.29,189.83c2.25,7.89,7.89,11.27,15.77,11.27h43.94c3.38,0,6.2-.56,9.57-2.82,2.82-2.25,5.07-5.07,6.2-8.45l69.29-189.83c1.13-3.38,3.38-5.07,7.89-4.51,3.38,1.13,5.63,3.38,5.63,6.76v181.94c0,5.07,1.13,9.02,4.51,12.4,3.38,3.38,7.32,4.51,11.83,4.51h30.42c4.51,0,8.45-1.13,11.83-4.51s5.07-7.32,5.07-12.4V135.56c0-4.51-1.69-8.45-5.07-11.83s-7.32-5.07-11.83-5.07Z"/>
      <path class="cls-3" d="M884.02,118.66h-92.94c-4.51,0-8.45,1.69-11.83,5.07s-4.51,6.76-4.51,11.27v380.22c0,4.51,1.13,8.45,4.51,11.83s7.32,4.51,11.83,4.51h30.98c4.51,0,7.89-1.13,11.27-4.51s5.07-7.32,5.07-11.83v-90.13c0-4.51,1.13-7.89,4.51-11.27,3.38-3.38,7.32-5.07,11.83-5.07h29.29c25.91,0,47.32-6.76,64.78-21.41,17.46-14.08,30.42-32.1,39.43-53.51,8.45-21.41,12.95-45.06,12.95-69.85s-4.51-48.44-12.95-69.84c-9.02-21.41-21.97-39.43-39.43-54.08-17.46-14.08-38.86-21.41-64.78-21.41Zm1.13,226.44h-30.42c-4.51,0-8.45-1.13-11.83-4.51s-4.51-7.32-4.51-11.83V198.65c0-4.51,1.13-7.89,4.51-11.27s7.32-5.07,11.83-5.07h30.42c11.83,0,21.97,4.51,29.85,12.4s13.52,18.02,17.46,29.85c3.94,12.39,6.2,25.34,6.2,39.43s-2.26,27.04-6.2,38.87c-4.51,12.39-10.14,22.53-18.03,30.42s-18.03,11.83-29.29,11.83Z"/>
      <path class="cls-3" d="M1214.67,531.55c51.82,0,92.38-21.41,121.1-65.34,23.66-36.61,35.49-83.36,35.49-140.82,0-28.17-3.38-54.08-9.02-77.73-6.2-23.66-15.21-45.06-26.47-63.09-28.73-43.94-69.29-65.91-121.1-65.91s-92.94,21.97-121.11,65.91c-11.83,18.03-20.84,39.43-26.47,63.09-6.2,23.66-9.01,49.57-9.01,77.73,0,57.45,11.83,104.21,35.48,140.82,28.17,43.94,68.72,65.34,121.11,65.34Zm0-349.24c14.08,0,26.47,2.82,36.61,8.45,10.14,5.63,18.59,12.39,25.35,21.4,6.76,9.02,12.39,18.59,16.9,29.29,3.94,10.7,6.76,21.41,9.01,32.11,2.26,10.7,3.38,20.84,3.94,29.85,.56,9.01,1.13,16.33,1.13,21.97s-.56,13.52-1.13,22.53c-.56,9.01-1.69,19.15-3.94,29.29-2.25,10.7-5.07,21.4-9.01,32.1-4.51,10.7-10.14,20.28-16.9,29.29s-15.21,15.77-25.35,21.41c-10.14,5.63-22.53,7.89-36.61,7.89s-26.48-2.26-36.61-7.89c-10.14-5.64-19.15-12.4-25.91-21.41s-12.4-18.59-16.34-29.29c-4.51-10.7-7.32-21.41-9.57-32.1-2.26-10.14-3.38-20.28-3.94-29.29-.56-9.02-.56-16.9-.56-22.53s0-12.96,.56-21.97c.56-9.02,1.69-19.15,3.94-29.85,2.25-10.7,5.07-21.41,9.57-32.11,3.94-10.7,9.58-20.28,16.34-29.29,6.76-9.01,15.77-15.77,25.91-21.4,10.14-5.64,21.97-8.45,36.61-8.45Z"/>
      <path class="cls-3" d="M1754.85,518.03l80.55-379.09c.56-5.07-.56-9.58-3.38-14.08-3.38-3.94-7.89-6.2-13.52-6.2h-30.42c-4.51,0-7.89,1.69-10.7,3.94-3.38,2.26-5.07,5.64-5.63,9.58l-47.88,224.75c-1.13,2.26-2.26,3.38-4.51,3.38-3.38,0-4.51-1.13-4.51-3.38-7.89-35.48-14.08-64.78-18.59-87.31-5.07-22.53-9.02-40.56-11.83-54.08-2.81-13.52-5.07-24.22-6.19-31.54-1.69-6.76-2.82-12.96-3.94-17.46-1.13-4.51-2.26-9.57-3.38-14.08l-3.94-20.28c-1.13-3.94-2.82-7.32-6.2-9.58-3.38-2.25-6.76-3.94-10.7-3.94h-37.18c-4.51,0-7.89,1.69-11.27,3.94-3.38,2.26-5.07,5.64-5.63,9.58l-47.32,224.75c-1.13,2.26-2.82,3.38-5.07,3.38-2.82,0-4.51-1.13-4.51-3.38l-47.88-224.75c-1.13-3.94-2.82-7.32-5.64-9.58-3.38-2.25-6.76-3.94-10.7-3.94h-30.42c-5.63,0-10.14,2.26-12.95,6.2-3.38,4.51-4.51,9.01-3.38,14.65l80.55,378.53c.56,4.51,2.26,7.89,5.64,10.14,2.82,2.26,6.19,3.38,10.7,3.38h37.74c3.94,0,7.32-1.13,10.7-3.38,2.81-2.26,4.51-5.63,5.63-10.14l52.39-246.72,52.39,246.72c.56,4.51,2.26,7.89,5.64,10.14s6.76,3.38,11.27,3.38h37.18c3.94,0,7.32-1.13,10.7-3.38s5.07-5.63,6.19-10.14Z"/>
      <path class="cls-3" d="M2095.08,165.98v-30.98c0-4.51-1.69-7.89-5.07-11.27-3.38-3.38-6.76-5.07-11.27-5.07h-170.11c-4.51,0-8.45,1.69-11.83,5.07s-4.51,6.76-4.51,11.27v380.22c0,4.51,1.13,8.45,4.51,11.83s7.32,4.51,11.83,4.51h170.11c4.51,0,7.89-1.13,11.27-4.51,3.38-3.38,5.07-7.32,5.07-11.83v-30.98c0-4.51-1.69-7.89-5.07-11.27-3.38-3.38-6.76-5.07-11.27-5.07h-106.46c-4.51,0-8.45-1.13-11.83-4.51s-4.51-7.32-4.51-11.83v-122.8c0-4.51,1.13-7.89,4.51-11.27s7.32-5.07,11.83-5.07h70.41c4.51,0,8.45-1.69,11.83-5.07s5.07-7.32,5.07-11.83v-30.42c0-4.51-1.69-7.89-5.07-11.27-3.38-3.38-7.32-5.07-11.83-5.07h-70.41c-4.51,0-8.45-1.13-11.83-4.51s-4.51-7.32-4.51-11.83v-33.8c0-4.51,1.13-7.89,4.51-11.27s7.32-5.07,11.83-5.07h106.46c4.51,0,7.89-1.13,11.27-4.51,3.38-3.38,5.07-7.32,5.07-11.83Z"/>
      <path class="cls-3" d="M2260.69,118.66h-92.94c-4.51,0-8.45,1.69-11.83,5.07s-4.51,6.76-4.51,11.27v380.22c0,4.51,1.13,8.45,4.51,11.83s7.32,4.51,11.83,4.51h30.98c4.51,0,7.89-1.13,11.27-4.51s5.07-7.32,5.07-11.83v-90.13c0-4.51,1.13-7.89,4.51-11.27,3.38-3.38,7.32-5.07,11.83-5.07h22.53c7.89,0,12.96,3.94,15.77,10.7l36.61,101.39c2.26,7.32,7.89,10.7,15.77,10.7h32.11c5.63,0,10.14-2.26,13.52-6.76,3.38-4.51,3.94-9.57,2.25-15.21l-40.56-111.53c-2.81-6.76-1.13-12.39,4.51-17.46,12.4-11.83,22.54-26.48,29.86-44.5,7.32-17.46,11.83-36.05,13.52-55.77,1.69-19.16,.56-38.87-3.38-58.02-4.51-19.15-11.27-36.05-20.84-51.82-10.14-15.21-22.53-27.6-37.74-37.18-15.78-9.57-33.8-14.65-54.64-14.65Zm-45.63,210.11V198.65c0-4.51,1.13-7.89,4.51-11.27s7.32-5.07,11.83-5.07h30.42c11.83,0,21.97,4.51,29.85,12.4s13.52,18.02,17.46,29.85c3.94,12.39,6.2,25.34,6.2,39.43s-2.26,27.04-6.2,38.87c-4.51,12.39-10.14,22.53-18.03,30.42s-18.03,11.83-29.29,11.83h-30.42c-4.51,0-8.45-1.13-11.83-4.51s-4.51-7.32-4.51-11.83Z"/>
      <g class="cls-11">
        <g class="cls-14">
          <g class="cls-13">
            <path class="cls-7" d="M1004.23,6.41V164.24h364.56V6.41h-364.56Z"/>
          </g>
        </g>
      </g>
      <g class="cls-12">
        <path class="cls-8" d="M1294.96,114.17c-2.94-15.48-50.65-30.22-108.34-22.03-57.7,8.19-94.34,29.35-100.51,51.55-.14,.49,.1,.77,.14,1.1h-.01l7.47,41.25,208.16-32.4-6.91-39.47"/>
      </g>
      <g class="cls-16">
        <path class="cls-10" d="M1172.72,6.45l-.11-6.47,196.03,74.39,.16,5.12L1172.72,6.45"/>
      </g>
      <g class="cls-15">
        <path class="cls-10" d="M1004.23,128.41l-.15-5.35L1172.61-.02l.11,6.47-168.48,121.95"/>
      </g>
      <path class="cls-6" d="M1163.77,6.45c-4.23,2.3-8.29,4.88-12.02,7.82-1.86,1.47-3.63,3.05-5.24,4.74-1.6,1.71-3.06,3.54-4.18,5.52-.56,.99-1.04,2.02-1.39,3.08-.36,1.05-.65,2.21-.91,3.36-.52,2.33-.93,4.73-1.34,7.13l-1.17,7.22-1.21,7.25c-.83,4.83-1.72,9.67-2.88,14.48-.58,2.41-1.22,4.81-2.02,7.2-.8,2.39-1.76,4.69-2.77,6.96-2.03,4.53-4.4,8.84-6.87,13.08-2.5,4.23-5.1,8.35-7.94,12.38-.46,.66-1.37,.81-2.02,.33-.64-.46-.79-1.35-.36-2.01l.02-.03c5.22-8.07,10.15-16.46,14.07-25.21,.96-2.19,1.86-4.4,2.59-6.65,.74-2.24,1.38-4.56,1.94-6.91,1.12-4.69,2.05-9.46,2.93-14.26,.87-4.79,1.69-9.61,2.6-14.44,.47-2.41,.94-4.82,1.53-7.26,.31-1.22,.62-2.43,1.08-3.69,.47-1.24,1.07-2.41,1.74-3.51,.68-1.1,1.44-2.14,2.25-3.11,.81-.97,1.69-1.87,2.61-2.72,.91-.85,1.85-1.66,2.83-2.43,.98-.74,1.98-1.46,3.01-2.13,1.02-.68,2.07-1.31,3.14-1.9,1.06-.59,2.13-1.17,3.23-1.69,2.2-1.05,4.85-2.09,6.84-2.72,.02,0,.02-.01,.03,.01,0,.03-.09,.07-.11,.07"/>
      <path class="cls-5" d="M1097.53,144.93s-.03,.07-.04,.15c.01-.04,.03-.09,.04-.15Zm1.21,2.04c-.1-.02-.19-.04-.29-.07-.73-.27-1.14-1.05-.97-1.81,.01-.06,.03-.17,.06-.33,1.2-6.98,4.76-24.74,12.01-38.8,.39-.76,1.3-1.04,2.04-.64,.73,.39,1.02,1.33,.63,2.08-7.05,13.68-10.54,31.06-11.71,37.9-.08,.47-.09,.53-.14,.66-.24,.71-.94,1.11-1.63,1.02"/>
      <path class="cls-5" d="M1117.18,149.17c-.83-.11-1.4-.9-1.28-1.74,.03-.21,2.87-21.3-3.39-39.81-.27-.8,.15-1.68,.94-1.96,.79-.28,1.65,.15,1.92,.96,6.49,19.23,3.64,40.35,3.52,41.25-.11,.84-.88,1.42-1.7,1.3"/>
      <path class="cls-5" d="M1117.02,149.3h0c-.82-.11-1.4-.9-1.28-1.74,.03-.21,2.86-21.3-3.38-39.81-.27-.8,.15-1.69,.93-1.96,.79-.28,1.65,.15,1.92,.95,6.49,19.23,3.64,40.36,3.51,41.25-.11,.84-.88,1.43-1.7,1.31"/>
      <path class="cls-5" d="M1102.08,148.34s-.03-.01-.04-.01c-.82-.14-1.37-.93-1.24-1.77,.2-1.21,4.85-29.73,9.28-39.81,.34-.78,1.23-1.13,1.99-.78,.76,.35,1.1,1.26,.76,2.04-4.28,9.73-9.01,38.76-9.06,39.05-.13,.83-.89,1.39-1.69,1.28"/>
      <path class="cls-5" d="M1105.59,149.48s-.02,0-.03-.01c-.82-.14-1.38-.92-1.24-1.76l6.4-40.47c.14-.84,.91-1.4,1.72-1.28,.82,.14,1.39,.93,1.26,1.77l-6.4,40.47c-.13,.83-.89,1.4-1.7,1.28"/>
      <path class="cls-5" d="M1109.35,150.03c-.8-.11-1.37-.85-1.29-1.68,.03-.31,2.91-30.77,2.62-40.82-.03-.85,.63-1.56,1.46-1.58,.83-.03,1.53,.65,1.55,1.49,.29,10.23-2.52,39.94-2.64,41.2-.08,.85-.82,1.47-1.65,1.39-.03,0-.05,0-.07,0"/>
      <path class="cls-5" d="M1113.6,149.5c-.8-.11-1.38-.86-1.29-1.69,.03-.27,2.68-27.1-1.96-40.04-.29-.8,.11-1.69,.9-1.98,.78-.3,1.65,.12,1.93,.91,4.88,13.61,2.24,40.3,2.13,41.42-.08,.85-.83,1.46-1.65,1.38-.02,0-.04,0-.06,0"/>
      <path class="cls-5" d="M1115.55,106.78c.09,1.33-2.07,1.33-3.66,1.1s-3.01-.93-2.89-1.76c.11-.83,1.71-1.46,3.3-1.25,2.24,.3,3.18,1.01,3.24,1.91"/>
      <path class="cls-6" d="M1097.53,144.65s-.03,.06-.04,.14c.01-.05,.03-.09,.04-.14Zm1.21,2.04c-.1-.02-.19-.04-.29-.08-.73-.26-1.14-1.05-.97-1.8,.01-.06,.03-.17,.06-.33,1.2-6.98,4.76-24.74,12.01-38.8,.39-.75,1.3-1.04,2.04-.65,.73,.4,1.02,1.33,.63,2.08-7.05,13.67-10.54,31.06-11.71,37.9-.08,.47-.09,.53-.14,.66-.24,.7-.94,1.11-1.63,1.02"/>
      <path class="cls-6" d="M1117.18,148.89c-.83-.12-1.4-.9-1.28-1.74,.03-.21,2.87-21.3-3.39-39.81-.27-.81,.15-1.68,.94-1.96,.79-.28,1.65,.15,1.92,.96,6.49,19.23,3.64,40.36,3.52,41.25-.11,.84-.88,1.42-1.7,1.31"/>
      <path class="cls-6" d="M1102.08,148.05s-.03,0-.04,0c-.82-.14-1.37-.94-1.24-1.78,.2-1.21,4.85-29.72,9.28-39.81,.34-.78,1.23-1.12,1.99-.77,.76,.34,1.1,1.26,.76,2.03-4.28,9.73-9.01,38.76-9.06,39.06-.13,.83-.89,1.4-1.69,1.28"/>
      <path class="cls-6" d="M1105.59,149.2s-.02,0-.03,0c-.82-.14-1.38-.93-1.24-1.77l6.4-40.47c.14-.84,.91-1.41,1.72-1.28,.82,.14,1.39,.93,1.26,1.77l-6.4,40.47c-.13,.83-.89,1.4-1.7,1.28"/>
      <path class="cls-6" d="M1109.35,149.73c-.8-.11-1.37-.85-1.29-1.67,.03-.31,2.91-30.78,2.62-40.82-.03-.85,.63-1.56,1.46-1.58,.83-.02,1.53,.65,1.55,1.49,.29,10.24-2.52,39.95-2.64,41.21-.08,.85-.82,1.46-1.65,1.39-.03,0-.05,0-.07-.01"/>
      <path class="cls-6" d="M1113.6,149.21c-.8-.11-1.38-.85-1.29-1.69,.03-.27,2.68-27.1-1.96-40.04-.29-.8,.11-1.68,.9-1.98,.78-.29,1.65,.12,1.93,.92,4.88,13.6,2.24,40.29,2.13,41.43-.08,.84-.83,1.45-1.65,1.37-.02,0-.04,0-.06,0"/>
      <path class="cls-6" d="M1116.02,106.64c.09,1.33-2.55,1.18-4.13,.96-1.58-.23-3.01-.93-2.89-1.76,.11-.83,1.71-1.46,3.3-1.25,2.24,.3,3.65,1.16,3.72,2.05"/>
      <path class="cls-9" d="M191.63,867.51c25.54-3.07,48.02-7.16,67.44-12.27,17.38-5.11,30.41-8.69,39.1-10.73,1.01-.51,2.55-.77,4.6-.77,3.05,0,5.6,1.03,7.65,3.08,3.58,3.06,5.38,6.89,5.38,11.48l-6.9,119.58c0,7.67-3.83,12.01-11.5,13.02-56.21,9.21-103.47,15.6-141.79,19.17-24.53,2.56-47.53,3.83-69,3.83-11.24,0-19.67-.26-25.29-.77-24.53-2.04-41.9-10.73-52.1-26.06-6.14-11.75-9.21-23.5-9.21-35.25,0-9.71,1.79-20.69,5.38-32.96,6.13-19.42,14.81-37.3,26.06-53.65l54.42-82.79v-.77c19.93-26.57,41.65-57.48,65.15-92.73,1.01-1.03,1.9-2.44,2.67-4.23,.78-1.79,1.93-3.71,3.46-5.75h.77l3.06-1.52v-1.54c0-.51-.77-1.02-2.29-1.52,2.04-4.09,5.61-12.78,10.73-26.06,0-.51,.76-3.32,2.29-8.44,1.54-5.11,2.05-8.94,1.54-11.5-.52,0-.77-.26-.77-.77-1.03-1.01-3.07-1.52-6.13-1.52-6.66,0-14.96,1.79-24.92,5.38-9.96,3.57-19.03,7.14-27.21,10.71-17.38,8.18-42.93,22.49-76.65,42.94-1.54,1.02-3.84,1.52-6.9,1.52-4.1,0-7.55-1.28-10.35-3.83-2.81-2.55-4.21-5.88-4.21-9.96l4.58-144.1c0-6.64,3.07-10.98,9.21-13.02,47.01-14.82,83.29-24.27,108.83-28.35,21.46-4.09,42.15-6.15,62.08-6.15s38.58,2.05,54.42,6.15c27.08,6.64,46.76,19.03,59.02,37.17,12.26,18.14,18.4,38.96,18.4,62.46,0,18.92-3.06,36.04-9.19,51.35-9.71,26.07-19.42,47.02-29.13,62.85v.77l-30.67,48.29-72.04,117.27Zm4.6-346.46c3.57,0,6.11,1.54,7.65,4.6,2.05-3.57,2.05-6.38,0-8.44-3.06,1.03-4.84,1.54-5.35,1.54l-4.6,2.29h2.31Zm19.15,1.54c0,1.03,.51,2.06,1.54,3.08,1.03,1.02,2.05,1.78,3.06,2.29,.51,0,.9-.26,1.15-.77,.26-.51,.65-1.03,1.15-1.54v-3.06h-6.9Zm-27.58,11.5c-1.53,0-2.29,.51-2.29,1.52,4.08,0,7.66-.25,10.73-.75h2.29c3.07,0,4.6,1.79,4.6,5.35l-5.38,3.83c-1.02,1.03-1.52,2.05-1.52,3.06,6.13,3.07,12,3.84,17.63,2.31-2.04-1.03-3.32-2.3-3.83-3.83-.52-1.54-.26-2.82,.77-3.83l3.83-3.06c1.53-1.54,2.29-2.57,2.29-3.08l-13.04-2.29-12.25-1.54c-1.54,1.54-2.82,2.31-3.83,2.31Zm29.9,19.92h3.06v-1.52h-3.06v1.52Zm-6.9,13.81c0,1.53,.64,2.93,1.92,4.21,1.28,1.28,2.94,1.92,4.98,1.92l1.52-.77h5.38l-1.54-6.13-3.83-2.31c-1.02-.5-2.29-.75-3.83-.75s-2.81,.51-3.83,1.52l-.75,2.31Zm-28.38,7.67c1.03-1.03,.26-1.8-2.29-2.31v1.54l2.29,.77Zm-42.15,1.52v3.06h2.29c1.03-1.01,1.54-1.52,1.54-1.52l1.52-1.54h-5.35Zm63.6,7.67c.51,0,.77-.26,.77-.77,0-1.01-.26-1.78-.77-2.29,0,0-.13,.14-.38,.4l-.38,.38s-.14,.13-.4,.38c-.25,.25-.38,.64-.38,1.15s.51,.77,1.52,.77Zm-53.65-1.54c-2.04,0-3.32,1.28-3.83,3.83l.77,.77h6.9c1.03,0,1.79-.26,2.29-.77-1.53-1.01-2.29-2.03-2.29-3.06l.77-1.52-4.6,.75Zm42.92,7.67c0-1.53-1.02-2.29-3.06-2.29-1.53,.52-2.29,.77-2.29,.77v2.29l2.29,.77s.51,.52,1.54,1.54l1.52-1.54v-1.54Zm-1.52,3.83c-1.03,2.56-3.84,3.83-8.44,3.83,0,.52,.38,1.41,1.15,2.69,.78,1.28,1.67,1.92,2.69,1.92,1.53,0,2.29-.51,2.29-1.54,1.03-1.01,2.3-1.52,3.83-1.52,.51,0,1.28-.51,2.31-1.54v-1.52c0-1.03-.52-1.54-1.54-1.54s-1.78-.26-2.29-.77Zm-39.85,6.9l2.29-3.06c-1.03-.51-2.56-.77-4.6-.77s-3.06,.52-3.06,1.54c1.03,1.03,1.8,1.54,2.31,1.54l3.06,.75Zm-35.27,5.38c0-1.03-.51-2.05-1.52-3.06l-2.31,.77h-1.52l.77,3.06,4.58-.77Zm95.81,3.83l-1.52-1.54-3.83,1.54,3.83,2.29,.38-.38,.38-.38,.77-1.54Zm-20.69,5.35c0,.52,.51,.77,1.52,.77,0,0,.13,.14,.38,.4,.26,.25,.4,.38,.4,.38,.51-.51,1.53-.77,3.06-.77,0-1.53-1.02-2.55-3.06-3.06-1.53,.52-2.29,1.28-2.29,2.29Zm-9.21,0c1.03,.52,1.8,.52,2.31,0h3.06l-3.06-1.52c-1.54,0-2.31,.51-2.31,1.52Zm-23.75,3.08c1.01-1.03,1.52-1.8,1.52-2.31,0-1.01-.77-1.52-2.29-1.52h-2.29c-1.03,1.02-1.54,1.78-1.54,2.29l.77,1.54h3.83Zm111.15,38.31l.75-2.29-.75-.77-.77,2.29,.77,.77Zm13.02,5.38c-.52,1.53-.39,2.81,.38,3.83,.78,1.02,1.93,1.52,3.46,1.52,.51,.52,1.53,.77,3.06,.77,2.55,0,4.85-1.02,6.9-3.06,1.03-2.04,1.54-3.06,1.54-3.06l.77-2.31-4.6-.75-4.6-.77-3.83,2.29-3.06,1.54Zm-39.08,11.5c-.52,0-1.16-.13-1.94-.38-.77-.26-1.4-.14-1.9,.38l.75,.75c0,1.03,.38,1.54,1.15,1.54s1.42-.26,1.94-.77v-1.52Zm39.85,9.19l2.29-.77c0-1.53-.77-2.29-2.29-2.29l-2.31,.77v3.83l2.31-1.54Zm-36.02,7.67c0-.51,.38-.9,1.15-1.15,.76-.26,1.66-.65,2.69-1.15l-.77-1.54-3.06-.77c-2.56-1.01-3.83-.5-3.83,1.54v1.52l3.83,1.54Zm-25.31-3.06c-1.53-1.54-3.06-1.54-4.58,0l2.29,.77,2.29-.77Zm39.88,6.9c1.01,0,1.01-.51,0-1.54-1.03-.5-1.54-1.26-1.54-2.29-.52,0-.77-.51-.77-1.54l.38-.38c.26-.25,.4-.38,.4-.38v-.77l-3.06-.77c-1.54,0-2.82,.52-3.83,1.54l-1.54,.75c3.58,2.06,4.6,4.61,3.06,7.67,3.58,0,5.89-.76,6.92-2.29Zm22.98-.77c-2.04,0-3.57,.26-4.58,.77,0,2.04,.51,3.06,1.52,3.06l3.06-.77v-3.06Zm-6.13,6.9c-2.56,1.54-3.32,2.82-2.29,3.83l1.52,.77,1.54-3.06,.77-2.31-1.54,.77Zm-52.9,10.73c-1.53,1.03-2.81,1.03-3.83,0-1.53,0-2.29-.51-2.29-1.52l-.77,4.6c-1.02,1.02,0,2.54,3.06,4.58l1.54-.77,3.06-5.35-.77-1.54Zm-14.56,7.67c-1.02-1.01-1.52-1.78-1.52-2.29l-2.31-1.54-2.29,3.83c3.07,.52,4.6,1.03,4.6,1.54l1.52-1.54Zm32.96,2.31c0-1.03-.25-1.54-.75-1.54l-1.54-.77c-2.56,.52-4.09,1.41-4.6,2.69-.5,1.28,.27,2.18,2.31,2.69l3.06-1.54,.38-.38,.4-.4,.75-.75Zm21.48,3.06c0,.52,.51,1.16,1.52,1.92,1.03,.77,2.05,.89,3.06,.38l1.54-3.06-.77-.77c-3.57-2.04-5.35-2.04-5.35,0v1.54Zm-43.71,18.4c1.54,0,2.31-.51,2.31-1.54l-2.31-3.83,.77-1.52v-3.83c0-2.55-1.28-4.34-3.83-5.38-1.02-1.01-1.52-1.01-1.52,0h-1.54c1.54,2.04,2.31,3.32,2.31,3.83l-1.54,1.54-1.54,.75-.75,3.08c0,3.06,1.28,5.1,3.83,6.13,.5,0,.88,.14,1.13,.4,.26,.25,.65,.12,1.17-.4l1.52,.77Zm-10.73-4.6c0-1.53-1.79-3.06-5.35-4.6-3.07,.52-4.86,1.54-5.38,3.06-.5,1.03-.37,2.18,.4,3.46,.76,1.28,1.4,1.92,1.92,1.92l2.29,.77c1.03,0,2.05-.38,3.06-1.15,1.03-.78,1.8-1.67,2.31-2.69l.75-.77Zm25.31,13.79c.5-.51,.75-1.28,.75-2.29-2.04-.51-3.83-.51-5.35,0v3.06l3.06,.77,1.54-1.54Zm-10.75,0v.77l3.08,1.54,.75-.77-3.83-1.54Zm-10.73,11.5c2.05,0,3.08-1.02,3.08-3.06l.75-1.54c-1.53-1.01-2.29-1.78-2.29-2.29l-2.29,1.54c-1.03,1.02-1.54,2.04-1.54,3.06v.77l2.29,1.52Zm-11.5,2.31h-.75c0,.5-.26,.75-.77,.75v.77c0,.52,.38,.91,1.15,1.17,.76,.25,1.66,.12,2.69-.4l.77-1.54h-1.54l-1.54-.75Zm13.04,5.35c2.04-1.53,2.8-2.8,2.29-3.83h-3.83c1.03,1.03,1.54,2.31,1.54,3.83Zm-26.06,9.96c.51,.52,1.53,1.03,3.06,1.54,1.54,.52,2.82,.77,3.83,.77l1.54-1.54c-.52-.51-.77-2.05-.77-4.6l-2.29-.75-5.38,4.58Zm-.77,0c0-1.01-.26-1.78-.77-2.29h-3.06c-.5,0-.75,1.02-.75,3.06,2.04,0,3.06,.26,3.06,.77,.5,0,.75-.26,.75-.77h.77v-.77Zm37.56,5.38c0-1.03-.52-1.54-1.54-1.54-.5,.52-.5,.77,0,.77l1.54,.77Zm-33.73,18.4c1.03-1.03,1.03-1.54,0-1.54v-.77l2.31-6.9,3.06-6.13v-.77h-2.31c-.5-.51-1.01-.64-1.52-.38-.52,.25-1.03,.38-1.54,.38v3.06c0,1.54-.77,2.82-2.29,3.83-1.03,.52-1.8,1.41-2.31,2.69-.5,1.28-1.01,2.18-1.52,2.69l-2.29,3.83c-1.03,1.53-.78,3.31,.75,5.35h2.31l3.83-3.06c1.01-1.01,1.52-1.78,1.52-2.29Zm16.88-6.9c1.01-1.03,1.01-1.8,0-2.31-2.06-2.04-3.08-3.06-3.08-3.06-1.02,0-1.78,.26-2.29,.77l-3.06,3.83,.77,.77,1.52,.77,3.06,.75c1.03,0,2.05-.51,3.08-1.52Zm-39.1,4.58c-.52,.52-.77,1.29-.77,2.31,.51,0,.77,.51,.77,1.52l5.38,2.31c0-1.54,.26-2.56,.77-3.06-1.03,0-1.8-.26-2.31-.77-.52,0-.65-.13-.4-.38s.65-.4,1.17-.4l.77-.77c0-.51-.77-1.79-2.31-3.83l-3.06,3.06Zm-13.79,6.92c2.04,0,3.57-.26,4.6-.77l-2.31-2.31h-2.29l-.77,2.31,.77,.77Zm26.83,6.13h1.52l.77-3.06-2.29,3.06Zm-19.17,6.13c0-.51-.52-1.79-1.54-3.83-1.02-2.04-1.78-3.06-2.29-3.06l-3.06,3.06-.77,.77c-1.03,2.56-.27,4.09,2.29,4.6,2.05-2.04,3.84-2.55,5.38-1.54Zm-32.19,5.38l1.52-.77-3.06-.77-.77,2.31,2.31-.77Zm5.35,0c-1.02,1.02-.76,1.78,.77,2.29,.51-.51,.77-1.53,.77-3.06l-1.54,.77Zm64.4,3.83h-3.06l-.77,.77v.75c0,2.04,1.02,3.06,3.06,3.06,1.01-1.01,1.52-2.03,1.52-3.06v-.75l-.75-.77Zm-49.06,7.67c-.52,.5-.77,1.27-.77,2.29,0,1.53,1.02,2.55,3.06,3.06,2.05,.52,3.84,.52,5.38,0l.77-1.52v-2.31c0-1.01-.26-1.52-.77-1.52l-4.6-1.54c-1.02,0-2.04,.52-3.06,1.54Zm0,9.19v-.77l-2.29-1.52v1.52l2.29,.77Zm102.71,46c-1.03,0-1.54,.77-1.54,2.29l2.31,.77c0-1.54-.26-2.56-.77-3.06Zm-1.54,8.42c0,.52,.13,1.03,.38,1.54,.26,.52,.4,1.02,.4,1.52h1.54v-3.06h-2.31Zm-125.69,3.06c0-1.01-.52-1.52-1.54-1.52h-1.52c-2.06,0-3.33,.51-3.83,1.52,1.01,1.03,3.05,2.06,6.13,3.08,0-1.03,.26-1.54,.77-1.54v-1.54Zm99.65,9.98c0-1.03-.77-.26-2.31,2.29h3.83l2.31-3.06h-.77l-.77-.77c-.52,0-1.28,.52-2.29,1.54Zm-156.38,3.83c-.52,0-.77-.26-.77-.77h-3.83c-1.02,1.02-1.52,1.78-1.52,2.29h4.6l1.52-1.52Zm107.31-.77h-2.29l-.77,1.52,3.83,.77,1.52-.77v-.75l-2.29-.77Zm-11.5,2.29l-3.06,.77v2.29c1.53,1.54,2.29,2.82,2.29,3.83,0,1.54,1.28,2.31,3.83,2.31h1.54c-.52-1.03-1.29-1.54-2.31-1.54l-1.52-.77v-3.06l3.83-3.06-4.6-.77Zm119.58,2.31c-2.06,0-3.08,.51-3.08,1.52,0,.52,.51,1.29,1.54,2.31l2.29-1.54v-.77l-.75-1.52Zm-20.71,4.58l.77-1.52h-.77l-1.52,.77,1.52,.75Zm-182.42,3.08c-2.04-1.03-3.58-1.54-4.6-1.54l-6.13,1.54v2.29l3.83,.77c.51-.51,1.53-.77,3.06-.77,1.03,1.03,2.3,.77,3.83-.77v-1.52Zm124.94,0s-.14,.13-.4,.38l-.38,.38c0,2.06,1.79,3.08,5.38,3.08,1.01,0,1.78-.26,2.29-.77h3.06l.77-1.54c-1.03-1.01-2.06-1.78-3.08-2.29-1.02-.51-1.78-.51-2.29,0h-5.35v.77Zm74.35,1.52c1.01,1.03,2.54,1.54,4.58,1.54l3.06-.77v-1.54l-2.29-.75c0-.51-.51-.77-1.52-.77l-.77,.77-1.54,.75-1.52,.77Zm-251.42,.77c1.03-1.03,1.54-1.79,1.54-2.29h-4.6c-.52,0-.77,.51-.77,1.52l.77,1.54c.51-.51,1.53-.77,3.06-.77Zm243.75,.77c.5,.52,.75,.52,.75,0,.51-2.04,.26-3.06-.75-3.06v.75h-.77v.77l.77,1.54Zm-260.6,0v1.52l1.52-.75,.77-.77h-2.29Zm157.9,15.33c-.52-.51-1.93-1.15-4.23-1.92-2.29-.78-4.21-1.17-5.75-1.17h-3.83c-2.56,0-4.34,.26-5.35,.77h-8.44l-4.6-.77c-.5-.5-1.52-.75-3.06-.75l-3.83,.75-3.83,3.08h42.94Zm62.85-3.83s-.52,1.28-1.54,3.83h53.65c-.5-.51-3.44-1.15-8.81-1.92-5.36-.78-9.83-1.17-13.42-1.17-.5,0-1.01,.14-1.52,.4-.52,.25-1.54,.38-3.06,.38s-2.7,.14-3.46,.4c-.77,.25-1.41,.38-1.92,.38h-3.83c-2.04,0-5.1-.51-9.19-1.54-1.03-.5-2.31-.75-3.83-.75h-3.06Z"/>
      <path class="cls-9" d="M750.38,546.35c3.58,4.61,5.38,8.45,5.38,11.5,0,3.58-1.54,6.91-4.6,9.98l-144.1,166.31,130.31,183.19c2.54,3.58,3.81,6.91,3.81,9.98s-2.04,6.64-6.13,10.73l-79.71,69.75c-4.6,3.57-8.69,4.59-12.27,3.06-4.6,0-8.18-2.3-10.73-6.9l-40.63-62.08c-12.78-20.96-26.57-41.65-41.38-62.08-14.32-19.93-32.21-42.67-53.67-68.23v183.96c0,10.22-4.85,15.59-14.56,16.1l-101.17,2.29c-4.6,0-8.43-1.53-11.5-4.58-3.07-3.07-4.6-6.91-4.6-11.52,1.53-91.46,4.6-182.15,9.21-272.08,2.04-44.46,3.82-76.91,5.35-97.35l.77-14.56h.77l3.06-3.06-3.83-1.54,4.6-55.94,3.83-56.73c.5-9.71,5.86-14.56,16.08-14.56h95.81c4.59,0,8.43,1.66,11.5,4.98,3.07,3.32,4.6,7.28,4.6,11.88l-11.5,141.81,155.58-160.96c3.58-3.58,7.42-5.38,11.5-5.38s7.67,1.54,10.73,4.6l67.46,67.44Zm-55.96,6.15c2.04,0,3.06-.77,3.06-2.31l-1.52-1.52h-5.38c-2.56,1.53-2.3,2.81,.77,3.83h3.06Zm-30.65,6.9c-2.06,0-3.08,.26-3.08,.77,0,0-.77,.51-2.29,1.52h3.06l.77-1.52,1.54-.77Zm-16.88,4.6c1.03-.51,.52-1.28-1.52-2.31,0,1.03,.25,1.54,.75,1.54,.51,1.02,.77,1.27,.77,.77Zm32.96-.77l.77-.77-3.83-.77h-.77l3.83,1.54Zm-2.29,18.4c1.53,0,3.31-.38,5.35-1.15,2.05-.76,3.08-1.92,3.08-3.46,0-.51-.52-1.28-1.54-2.29-1.03-1.03-2.31-1.54-3.83-1.54-5.63,0-8.44,1.28-8.44,3.83l.77,3.06c2.04,1.03,3.57,1.54,4.6,1.54Zm-272.88-2.29l-1.52-.77c-2.06,0-3.08,1.02-3.08,3.06,0,1.02,.26,1.52,.77,1.52l2.31,1.54c0-.51,1.28-1.28,3.83-2.29v-2.31l-2.31-.75Zm276.71,13.79h-3.83c-1.03,1.02-1.54,1.78-1.54,2.29h4.6l2.29-1.52-1.52-.77Zm13.79,13.02c-.52-.51-1.28-.77-2.29-.77-1.54,0-3.08,.39-4.6,1.17-1.53,.77-2.55,1.41-3.06,1.92v2.29l3.83,.77c.5-.51,1.78-.77,3.83-.77s3.57-.26,4.58-.77v-2.29l-2.29-1.54Zm-61.31,3.83c1.53,0,2.29-.51,2.29-1.52h-3.83c-1.02,0-1.78-.26-2.29-.77v3.83c1.01-1.03,2.29-1.54,3.83-1.54Zm-69.75,3.83s-.52-.51-1.54-1.52c-.52-1.54-1.54-2.05-3.06-1.54h-1.54c1.03,3.07,2.3,4.6,3.83,4.6l2.31-1.54Zm23.75,5.38c0-.51,.51-1.28,1.54-2.31s1.01-1.52,0-1.52h-6.9v3.83h5.35Zm-13.02,12.25c-1.03,0-1.8-.26-2.31-.77h-2.29l-.77,1.54c-.52,0-.77,.52-.77,1.54s.77,2.04,2.31,3.06l3.83-1.54v-3.83Zm-16.1,21.46s-.14-.13-.4-.38l-.38-.38-2.29,1.52,2.29,3.06h1.54l1.54-.75v-3.08h-2.31Zm36.79,64.4c0-2.55-1.54-3.83-4.6-3.83v3.83h4.6Zm11.5,32.19c3.07-1.01,4.6-2.8,4.6-5.35h-7.67l3.06,5.35Zm-150.23,49.83c2.04,0,4.34-1.02,6.9-3.06,2.55-2.05,3.83-4.1,3.83-6.15,0-1.03-1.16-2.05-3.46-3.06-2.29-1.03-4.2-1.54-5.73-1.54s-3.47,1.03-5.77,3.08c-2.29,2.04-3.44,3.83-3.44,5.35l1.54,3.06c1.01,1.54,3.05,2.31,6.13,2.31Zm131.83-3.08c3.07-1.01,4.6-2.8,4.6-5.35h-3.06l-3.83,.77,2.29,4.58Zm7.67,18.4c-1.53,1.54-1.53,3.08,0,4.6l6.13-3.06-1.52-3.06-4.6,1.52Zm9.19-1.52l-3.06,1.52,3.06,2.31,3.08-.77-3.08-3.06Zm24.54,19.17c-.52,.5-.77,1.01-.77,1.52s.26,1.03,.77,1.54c.51,2.04,2.55,3.06,6.13,3.06,1.53,0,2.93-.38,4.21-1.15,1.28-.78,1.67-1.93,1.17-3.46l-.77-.77-1.54-.75-1.52-.77c0-.51-.77-1.03-2.31-1.54l-4.58,1.54-.77,.77Zm3.83,26.81l3.06-.77-3.06-3.83-3.06,1.54,3.06,3.06Zm-183.19,0l-1.54,3.83h3.06c.51,.52,1.53,.77,3.06,.77v-4.6h-4.58Zm207.71,13.79c-3.07,0-4.6,1.79-4.6,5.38h2.31c1.53,0,2.67-.51,3.44-1.52,.76-1.03,.38-2.31-1.15-3.85Zm-77.42,3.08h-1.52l.75,2.29h1.54l-.77-2.29Zm82.79,2.29c-.52,.52-.27,1.79,.75,3.83l5.38-2.29c0-2.05-1.02-3.33-3.06-3.83l-3.06,2.29Zm-23,6.9l-5.38,7.67c2.55,0,4.09,.77,4.6,2.29,.51-.5,.77-1.13,.77-1.9s.26-1.17,.77-1.17v-.77l.38-.38,.38-.38c1.03-.51,1.54-1.03,1.54-1.54s.26-1.03,.77-1.54l-.77-.75-3.06-1.54Zm-242.98,29.9s-.14-.13-.4-.38c-.25-.26-.38-.4-.38-.4-1.02,0-1.52,.52-1.52,1.54s.51,1.52,1.52,1.52l.77-2.29Zm310.42,3.83c-1.02,0-1.4,.64-1.15,1.92,.26,1.28,.9,1.66,1.92,1.15l.77-1.54c0-1.01-.52-1.52-1.54-1.52Zm-73.56,3.06h-.77l1.52,2.29,1.54-.75-2.29-1.54Z"/>
      <path class="cls-4" d="M935.74,649.95c-15.65,0-27.32,4.24-35.02,12.47-7.96,8.49-11.67,20.16-11.67,35.28,0,5.57,.53,10.61,1.59,15.39s3.18,9.55,5.83,14.32c2.66,4.78,6.37,9.55,10.88,14.33,4.24,4.77,9.81,10.08,16.44,15.39,5.04,4.24,9.29,8.22,12.73,11.93,3.45,3.72,6.36,6.9,8.49,10.08,2.12,3.18,3.45,6.36,4.51,9.55,.8,3.19,1.32,6.64,1.32,9.82,0,6.9-1.59,11.67-4.51,14.32-2.92,2.92-6.9,4.24-11.94,4.24-5.31,0-9.29-1.33-11.94-4.24-2.92-2.65-4.24-7.43-4.24-14.32v-7.69c0-1.59-.8-2.92-1.86-3.98-1.32-1.06-2.65-1.86-4.24-1.86h-18.04c-1.59,0-3.18,.8-4.24,1.86s-1.59,2.39-1.59,3.98v5.83c0,15.39,3.98,27.32,11.93,35.55,7.96,8.22,19.63,12.2,35.28,12.2s27.06-3.98,35.02-12.2c7.96-8.22,11.94-20.16,11.94-35.55,0-5.3-.8-10.61-1.85-15.39-1.06-4.77-2.92-9.28-5.57-14.06s-6.36-9.55-10.88-14.32c-4.51-4.78-10.08-10.08-16.45-15.65-5.3-4.24-9.55-7.96-12.99-11.67-3.45-3.71-6.1-7.16-8.22-10.35-2.13-3.18-3.71-6.1-4.51-9.28-1.06-3.18-1.33-6.37-1.33-10.08,0-6.63,1.33-11.41,3.98-14.32s6.63-4.51,11.94-4.51,9.02,1.59,11.67,4.51,3.98,7.69,3.98,14.32v1.86c0,1.85,.53,3.45,1.59,4.51s2.65,1.59,4.51,1.59h17.78c1.59,0,3.18-.53,4.24-1.59,1.06-1.06,1.85-2.66,1.85-4.51,0-15.12-3.98-26.79-11.67-35.28-7.96-8.22-19.36-12.47-34.75-12.47Z"/>
      <path class="cls-4" d="M1195.43,808.31l-18.83-10.88c-2.12-1.06-3.98-.8-5.3,.8-3.19,3.71-6.37,6.36-9.82,8.49-3.45,2.12-6.9,3.98-10.08,5.04-3.45,1.06-6.64,1.86-9.82,2.13-3.18,.53-5.83,.53-7.96,.53-4.24,0-9.28-.53-15.12-1.86-5.83-1.32-11.67-4.24-17.24-9.02-5.57-4.51-10.35-11.15-14.33-20.16-3.98-8.76-5.83-20.69-5.83-36.08s1.85-27.06,5.83-36.08c3.98-9.02,8.76-15.65,14.33-20.42,5.57-4.51,11.41-7.43,17.24-8.76,5.84-1.33,10.88-2.12,15.12-2.12,2.13,0,4.78,.26,7.96,.53,3.18,.53,6.37,1.33,9.82,2.39,3.18,1.06,6.63,2.65,10.08,4.78,3.45,2.12,6.63,5.04,9.82,8.48,1.32,1.59,3.18,2.13,5.3,1.06l18.83-11.14c1.06-.53,1.59-1.33,1.86-2.65,.27-1.06,0-2.13-.53-3.19-7.43-10.08-16.71-17.51-27.32-22.55-10.61-5.04-22.55-7.69-35.81-7.69s-25.46,2.66-36.07,7.69c-10.61,5.04-19.63,12.47-27.06,22.55-6.37,8.49-11.41,18.57-14.59,29.71-3.18,11.41-4.77,23.88-4.77,37.4,0,27.32,6.36,49.6,19.36,67.11,15.12,20.16,36.07,29.97,63.13,29.97,13.27,0,25.2-2.39,35.81-7.43,10.61-5.04,19.9-12.47,27.32-22.55v-.27c.53-.8,.8-1.86,.53-3.18-.27-1.06-.8-2.13-1.86-2.66Z"/>
      <path class="cls-4" d="M1349.29,657.64v66.85c0,2.12-.8,3.98-2.39,5.57-1.59,1.59-3.18,2.12-5.31,2.12h-37.67c-2.13,0-3.98-.53-5.57-2.12-1.59-1.59-2.12-3.45-2.12-5.57v-66.85c0-2.12-.8-3.71-2.39-5.3-1.59-1.59-3.18-2.39-5.3-2.39h-14.59c-2.13,0-3.98,.8-5.57,2.39-1.59,1.59-2.12,3.18-2.12,5.3v179.06c0,2.12,.53,3.98,2.12,5.57,1.59,1.59,3.45,2.12,5.57,2.12h14.59c2.12,0,3.71-.53,5.3-2.12,1.59-1.59,2.39-3.45,2.39-5.57v-66.85c0-2.12,.53-3.71,2.12-5.3s3.45-2.39,5.57-2.39h37.67c2.13,0,3.71,.8,5.31,2.39s2.39,3.18,2.39,5.3v66.85c0,2.12,.53,3.98,2.13,5.57,1.59,1.59,3.45,2.12,5.83,2.12h14.32c2.13,0,3.71-.53,5.31-2.12,1.59-1.59,2.39-3.45,2.39-5.57v-179.06c0-2.12-.79-3.71-2.39-5.3-1.59-1.59-3.18-2.39-5.31-2.39h-14.32c-2.39,0-4.24,.8-5.83,2.39-1.59,1.59-2.13,3.18-2.13,5.3Z"/>
      <path class="cls-4" d="M1521.71,844.39c24.4,0,43.5-10.08,57.03-30.77,11.14-17.24,16.71-39.26,16.71-66.32,0-13.26-1.59-25.46-4.24-36.6-2.92-11.15-7.17-21.22-12.47-29.71-13.53-20.69-32.63-31.04-57.03-31.04s-43.77,10.35-57.04,31.04c-5.57,8.49-9.81,18.57-12.47,29.71-2.92,11.14-4.24,23.34-4.24,36.6,0,27.06,5.57,49.07,16.71,66.32,13.27,20.69,32.36,30.77,57.04,30.77Zm0-164.46c6.63,0,12.46,1.32,17.24,3.97,4.78,2.66,8.76,5.84,11.94,10.08s5.83,8.76,7.96,13.79c1.85,5.04,3.18,10.08,4.24,15.12,1.06,5.04,1.59,9.82,1.85,14.06s.53,7.69,.53,10.34-.27,6.36-.53,10.61-.79,9.02-1.85,13.8c-1.06,5.04-2.39,10.08-4.24,15.12-2.13,5.04-4.78,9.55-7.96,13.79s-7.16,7.43-11.94,10.08c-4.78,2.65-10.61,3.71-17.24,3.71s-12.47-1.06-17.24-3.71c-4.78-2.66-9.02-5.84-12.2-10.08s-5.83-8.75-7.69-13.79c-2.12-5.04-3.45-10.08-4.51-15.12-1.06-4.78-1.59-9.55-1.85-13.8s-.27-7.96-.27-10.61,0-6.1,.27-10.34,.8-9.02,1.85-14.06c1.06-5.04,2.39-10.08,4.51-15.12,1.86-5.04,4.51-9.55,7.69-13.79s7.43-7.43,12.2-10.08c4.78-2.65,10.34-3.97,17.24-3.97Z"/>
      <path class="cls-4" d="M1737.9,844.39c24.4,0,43.5-10.08,57.03-30.77,11.14-17.24,16.71-39.26,16.71-66.32,0-13.26-1.59-25.46-4.24-36.6-2.92-11.15-7.17-21.22-12.47-29.71-13.53-20.69-32.63-31.04-57.03-31.04s-43.77,10.35-57.04,31.04c-5.57,8.49-9.81,18.57-12.47,29.71-2.92,11.14-4.24,23.34-4.24,36.6,0,27.06,5.57,49.07,16.71,66.32,13.27,20.69,32.36,30.77,57.04,30.77Zm0-164.46c6.63,0,12.46,1.32,17.24,3.97,4.78,2.66,8.76,5.84,11.94,10.08s5.83,8.76,7.96,13.79c1.85,5.04,3.18,10.08,4.24,15.12,1.06,5.04,1.59,9.82,1.85,14.06s.53,7.69,.53,10.34-.27,6.36-.53,10.61-.79,9.02-1.85,13.8c-1.06,5.04-2.39,10.08-4.24,15.12-2.13,5.04-4.78,9.55-7.96,13.79s-7.16,7.43-11.94,10.08c-4.78,2.65-10.61,3.71-17.24,3.71s-12.47-1.06-17.24-3.71c-4.78-2.66-9.02-5.84-12.2-10.08s-5.83-8.75-7.69-13.79c-2.12-5.04-3.45-10.08-4.51-15.12-1.06-4.78-1.59-9.55-1.85-13.8s-.27-7.96-.27-10.61,0-6.1,.27-10.34,.8-9.02,1.85-14.06c1.06-5.04,2.39-10.08,4.51-15.12,1.86-5.04,4.51-9.55,7.69-13.79s7.43-7.43,12.2-10.08c4.78-2.65,10.34-3.97,17.24-3.97Z"/>
      <path class="cls-4" d="M1961.25,814.41h-43.24c-2.13,0-3.98-.53-5.57-2.13s-2.12-3.45-2.12-5.57v-149.08c0-2.12-.8-3.71-2.39-5.3-1.59-1.59-3.18-2.39-5.3-2.39h-14.59c-2.13,0-3.98,.8-5.57,2.39-1.59,1.59-2.12,3.18-2.12,5.3v179.06c0,2.12,.53,3.98,2.12,5.57,1.59,1.59,3.45,2.12,5.57,2.12h73.21c2.12,0,3.71-.53,5.3-2.12,1.59-1.59,2.39-3.45,2.39-5.57v-14.59c0-2.13-.8-3.71-2.39-5.31s-3.18-2.39-5.3-2.39Z"/>
      <path class="cls-4" d="M2085.13,649.95c-15.65,0-27.32,4.24-35.02,12.47-7.96,8.49-11.67,20.16-11.67,35.28,0,5.57,.53,10.61,1.59,15.39s3.18,9.55,5.83,14.32c2.66,4.78,6.37,9.55,10.88,14.33,4.24,4.77,9.81,10.08,16.44,15.39,5.04,4.24,9.29,8.22,12.73,11.93,3.45,3.72,6.36,6.9,8.49,10.08,2.12,3.18,3.45,6.36,4.51,9.55,.8,3.19,1.32,6.64,1.32,9.82,0,6.9-1.59,11.67-4.51,14.32-2.92,2.92-6.9,4.24-11.94,4.24-5.31,0-9.29-1.33-11.94-4.24-2.92-2.65-4.24-7.43-4.24-14.32v-7.69c0-1.59-.8-2.92-1.86-3.98-1.32-1.06-2.65-1.86-4.24-1.86h-18.04c-1.59,0-3.18,.8-4.24,1.86s-1.59,2.39-1.59,3.98v5.83c0,15.39,3.98,27.32,11.93,35.55,7.96,8.22,19.63,12.2,35.28,12.2s27.06-3.98,35.02-12.2c7.96-8.22,11.94-20.16,11.94-35.55,0-5.3-.8-10.61-1.85-15.39-1.06-4.77-2.92-9.28-5.57-14.06s-6.36-9.55-10.88-14.32c-4.51-4.78-10.08-10.08-16.45-15.65-5.3-4.24-9.55-7.96-12.99-11.67-3.45-3.71-6.1-7.16-8.22-10.35-2.13-3.18-3.71-6.1-4.51-9.28-1.06-3.18-1.33-6.37-1.33-10.08,0-6.63,1.33-11.41,3.98-14.32s6.63-4.51,11.94-4.51,9.02,1.59,11.67,4.51,3.98,7.69,3.98,14.32v1.86c0,1.85,.53,3.45,1.59,4.51s2.65,1.59,4.51,1.59h17.78c1.59,0,3.18-.53,4.24-1.59,1.06-1.06,1.85-2.66,1.85-4.51,0-15.12-3.98-26.79-11.67-35.28-7.96-8.22-19.36-12.47-34.75-12.47Z"/>
    </g>
  </g>
</svg>